<?xml version="1.0" encoding="utf-8" standalone="no"?>
<!DOCTYPE svg PUBLIC "-//W3C//DTD SVG 1.1//EN"
  "http://www.w3.org/Graphics/SVG/1.1/DTD/svg11.dtd">
<svg xmlns:xlink="http://www.w3.org/1999/xlink" width="1080pt" height="144pt" viewBox="0 0 1080 144" xmlns="http://www.w3.org/2000/svg" version="1.1">
 <metadata>
  <rdf:RDF xmlns:dc="http://purl.org/dc/elements/1.1/" xmlns:cc="http://creativecommons.org/ns#" xmlns:rdf="http://www.w3.org/1999/02/22-rdf-syntax-ns#">
   <cc:Work>
    <dc:type rdf:resource="http://purl.org/dc/dcmitype/StillImage"/>
    <dc:date>2023-12-16T09:02:03.223743</dc:date>
    <dc:format>image/svg+xml</dc:format>
    <dc:creator>
     <cc:Agent>
      <dc:title>Matplotlib v3.5.3, https://matplotlib.org/</dc:title>
     </cc:Agent>
    </dc:creator>
   </cc:Work>
  </rdf:RDF>
 </metadata>
 <defs>
  <style type="text/css">*{stroke-linejoin: round; stroke-linecap: butt}</style>
 </defs>
 <g id="figure_1">
  <g id="patch_1">
   <path d="M 0 144 
L 1080 144 
L 1080 0 
L 0 0 
z
" style="fill: #ffffff"/>
  </g>
  <g id="axes_1">
   <g id="patch_2">
    <path d="M 44.675 104.2 
L 106.92 104.2 
L 106.92 12.109331 
L 44.675 12.109331 
z
" style="fill: #ffffff"/>
   </g>
   <g id="matplotlib.axis_1">
    <g id="xtick_1">
     <g id="line2d_1">
      <path d="M 66.594039 104.2 
L 66.594039 12.109331 
" clip-path="url(#pd55c7fa936)" style="fill: none; stroke: #cccccc; stroke-width: 0.8; stroke-linecap: round"/>
     </g>
     <g id="text_1">
      <!-- 0 -->
      <g style="fill: #262626" transform="translate(63.81357 118.357812)scale(0.1 -0.1)">
       <defs>
        <path id="ArialMT-30" d="M 266 2259 
Q 266 3072 433 3567 
Q 600 4063 929 4331 
Q 1259 4600 1759 4600 
Q 2128 4600 2406 4451 
Q 2684 4303 2865 4023 
Q 3047 3744 3150 3342 
Q 3253 2941 3253 2259 
Q 3253 1453 3087 958 
Q 2922 463 2592 192 
Q 2263 -78 1759 -78 
Q 1097 -78 719 397 
Q 266 969 266 2259 
z
M 844 2259 
Q 844 1131 1108 757 
Q 1372 384 1759 384 
Q 2147 384 2411 759 
Q 2675 1134 2675 2259 
Q 2675 3391 2411 3762 
Q 2147 4134 1753 4134 
Q 1366 4134 1134 3806 
Q 844 3388 844 2259 
z
" transform="scale(0.015625)"/>
       </defs>
       <use xlink:href="#ArialMT-30"/>
      </g>
     </g>
    </g>
    <g id="xtick_2">
     <g id="line2d_2">
      <path d="M 104.805693 104.2 
L 104.805693 12.109331 
" clip-path="url(#pd55c7fa936)" style="fill: none; stroke: #cccccc; stroke-width: 0.8; stroke-linecap: round"/>
     </g>
     <g id="text_2">
      <!-- 5 -->
      <g style="fill: #262626" transform="translate(102.025224 118.357812)scale(0.1 -0.1)">
       <defs>
        <path id="ArialMT-35" d="M 266 1200 
L 856 1250 
Q 922 819 1161 601 
Q 1400 384 1738 384 
Q 2144 384 2425 690 
Q 2706 997 2706 1503 
Q 2706 1984 2436 2262 
Q 2166 2541 1728 2541 
Q 1456 2541 1237 2417 
Q 1019 2294 894 2097 
L 366 2166 
L 809 4519 
L 3088 4519 
L 3088 3981 
L 1259 3981 
L 1013 2750 
Q 1425 3038 1878 3038 
Q 2478 3038 2890 2622 
Q 3303 2206 3303 1553 
Q 3303 931 2941 478 
Q 2500 -78 1738 -78 
Q 1113 -78 717 272 
Q 322 622 266 1200 
z
" transform="scale(0.015625)"/>
       </defs>
       <use xlink:href="#ArialMT-35"/>
      </g>
     </g>
    </g>
    <g id="text_3">
     <!-- radius1 -->
     <g style="fill: #262626" transform="translate(59.399844 131.503125)scale(0.1 -0.1)">
      <defs>
       <path id="ArialMT-72" d="M 416 0 
L 416 3319 
L 922 3319 
L 922 2816 
Q 1116 3169 1280 3281 
Q 1444 3394 1641 3394 
Q 1925 3394 2219 3213 
L 2025 2691 
Q 1819 2813 1613 2813 
Q 1428 2813 1281 2702 
Q 1134 2591 1072 2394 
Q 978 2094 978 1738 
L 978 0 
L 416 0 
z
" transform="scale(0.015625)"/>
       <path id="ArialMT-61" d="M 2588 409 
Q 2275 144 1986 34 
Q 1697 -75 1366 -75 
Q 819 -75 525 192 
Q 231 459 231 875 
Q 231 1119 342 1320 
Q 453 1522 633 1644 
Q 813 1766 1038 1828 
Q 1203 1872 1538 1913 
Q 2219 1994 2541 2106 
Q 2544 2222 2544 2253 
Q 2544 2597 2384 2738 
Q 2169 2928 1744 2928 
Q 1347 2928 1158 2789 
Q 969 2650 878 2297 
L 328 2372 
Q 403 2725 575 2942 
Q 747 3159 1072 3276 
Q 1397 3394 1825 3394 
Q 2250 3394 2515 3294 
Q 2781 3194 2906 3042 
Q 3031 2891 3081 2659 
Q 3109 2516 3109 2141 
L 3109 1391 
Q 3109 606 3145 398 
Q 3181 191 3288 0 
L 2700 0 
Q 2613 175 2588 409 
z
M 2541 1666 
Q 2234 1541 1622 1453 
Q 1275 1403 1131 1340 
Q 988 1278 909 1158 
Q 831 1038 831 891 
Q 831 666 1001 516 
Q 1172 366 1500 366 
Q 1825 366 2078 508 
Q 2331 650 2450 897 
Q 2541 1088 2541 1459 
L 2541 1666 
z
" transform="scale(0.015625)"/>
       <path id="ArialMT-64" d="M 2575 0 
L 2575 419 
Q 2259 -75 1647 -75 
Q 1250 -75 917 144 
Q 584 363 401 755 
Q 219 1147 219 1656 
Q 219 2153 384 2558 
Q 550 2963 881 3178 
Q 1213 3394 1622 3394 
Q 1922 3394 2156 3267 
Q 2391 3141 2538 2938 
L 2538 4581 
L 3097 4581 
L 3097 0 
L 2575 0 
z
M 797 1656 
Q 797 1019 1065 703 
Q 1334 388 1700 388 
Q 2069 388 2326 689 
Q 2584 991 2584 1609 
Q 2584 2291 2321 2609 
Q 2059 2928 1675 2928 
Q 1300 2928 1048 2622 
Q 797 2316 797 1656 
z
" transform="scale(0.015625)"/>
       <path id="ArialMT-69" d="M 425 3934 
L 425 4581 
L 988 4581 
L 988 3934 
L 425 3934 
z
M 425 0 
L 425 3319 
L 988 3319 
L 988 0 
L 425 0 
z
" transform="scale(0.015625)"/>
       <path id="ArialMT-75" d="M 2597 0 
L 2597 488 
Q 2209 -75 1544 -75 
Q 1250 -75 995 37 
Q 741 150 617 320 
Q 494 491 444 738 
Q 409 903 409 1263 
L 409 3319 
L 972 3319 
L 972 1478 
Q 972 1038 1006 884 
Q 1059 663 1231 536 
Q 1403 409 1656 409 
Q 1909 409 2131 539 
Q 2353 669 2445 892 
Q 2538 1116 2538 1541 
L 2538 3319 
L 3100 3319 
L 3100 0 
L 2597 0 
z
" transform="scale(0.015625)"/>
       <path id="ArialMT-73" d="M 197 991 
L 753 1078 
Q 800 744 1014 566 
Q 1228 388 1613 388 
Q 2000 388 2187 545 
Q 2375 703 2375 916 
Q 2375 1106 2209 1216 
Q 2094 1291 1634 1406 
Q 1016 1563 777 1677 
Q 538 1791 414 1992 
Q 291 2194 291 2438 
Q 291 2659 392 2848 
Q 494 3038 669 3163 
Q 800 3259 1026 3326 
Q 1253 3394 1513 3394 
Q 1903 3394 2198 3281 
Q 2494 3169 2634 2976 
Q 2775 2784 2828 2463 
L 2278 2388 
Q 2241 2644 2061 2787 
Q 1881 2931 1553 2931 
Q 1166 2931 1000 2803 
Q 834 2675 834 2503 
Q 834 2394 903 2306 
Q 972 2216 1119 2156 
Q 1203 2125 1616 2013 
Q 2213 1853 2448 1751 
Q 2684 1650 2818 1456 
Q 2953 1263 2953 975 
Q 2953 694 2789 445 
Q 2625 197 2315 61 
Q 2006 -75 1616 -75 
Q 969 -75 630 194 
Q 291 463 197 991 
z
" transform="scale(0.015625)"/>
       <path id="ArialMT-31" d="M 2384 0 
L 1822 0 
L 1822 3584 
Q 1619 3391 1289 3197 
Q 959 3003 697 2906 
L 697 3450 
Q 1169 3672 1522 3987 
Q 1875 4303 2022 4600 
L 2384 4600 
L 2384 0 
z
" transform="scale(0.015625)"/>
      </defs>
      <use xlink:href="#ArialMT-72"/>
      <use xlink:href="#ArialMT-61" x="33.300781"/>
      <use xlink:href="#ArialMT-64" x="88.916016"/>
      <use xlink:href="#ArialMT-69" x="144.53125"/>
      <use xlink:href="#ArialMT-75" x="166.748047"/>
      <use xlink:href="#ArialMT-73" x="222.363281"/>
      <use xlink:href="#ArialMT-31" x="272.363281"/>
     </g>
    </g>
   </g>
   <g id="matplotlib.axis_2">
    <g id="ytick_1">
     <g id="line2d_3">
      <path d="M 44.675 104.2 
L 106.92 104.2 
" clip-path="url(#pd55c7fa936)" style="fill: none; stroke: #cccccc; stroke-width: 0.8; stroke-linecap: round"/>
     </g>
     <g id="text_4">
      <!-- 0.00 -->
      <g style="fill: #262626" transform="translate(18.214062 107.778906)scale(0.1 -0.1)">
       <defs>
        <path id="ArialMT-2e" d="M 581 0 
L 581 641 
L 1222 641 
L 1222 0 
L 581 0 
z
" transform="scale(0.015625)"/>
       </defs>
       <use xlink:href="#ArialMT-30"/>
       <use xlink:href="#ArialMT-2e" x="55.615234"/>
       <use xlink:href="#ArialMT-30" x="83.398438"/>
       <use xlink:href="#ArialMT-30" x="139.013672"/>
      </g>
     </g>
    </g>
    <g id="ytick_2">
     <g id="line2d_4">
      <path d="M 44.675 76.001539 
L 106.92 76.001539 
" clip-path="url(#pd55c7fa936)" style="fill: none; stroke: #cccccc; stroke-width: 0.8; stroke-linecap: round"/>
     </g>
     <g id="text_5">
      <!-- 0.25 -->
      <g style="fill: #262626" transform="translate(18.214062 79.580445)scale(0.1 -0.1)">
       <defs>
        <path id="ArialMT-32" d="M 3222 541 
L 3222 0 
L 194 0 
Q 188 203 259 391 
Q 375 700 629 1000 
Q 884 1300 1366 1694 
Q 2113 2306 2375 2664 
Q 2638 3022 2638 3341 
Q 2638 3675 2398 3904 
Q 2159 4134 1775 4134 
Q 1369 4134 1125 3890 
Q 881 3647 878 3216 
L 300 3275 
Q 359 3922 746 4261 
Q 1134 4600 1788 4600 
Q 2447 4600 2831 4234 
Q 3216 3869 3216 3328 
Q 3216 3053 3103 2787 
Q 2991 2522 2730 2228 
Q 2469 1934 1863 1422 
Q 1356 997 1212 845 
Q 1069 694 975 541 
L 3222 541 
z
" transform="scale(0.015625)"/>
       </defs>
       <use xlink:href="#ArialMT-30"/>
       <use xlink:href="#ArialMT-2e" x="55.615234"/>
       <use xlink:href="#ArialMT-32" x="83.398438"/>
       <use xlink:href="#ArialMT-35" x="139.013672"/>
      </g>
     </g>
    </g>
    <g id="ytick_3">
     <g id="line2d_5">
      <path d="M 44.675 47.803078 
L 106.92 47.803078 
" clip-path="url(#pd55c7fa936)" style="fill: none; stroke: #cccccc; stroke-width: 0.8; stroke-linecap: round"/>
     </g>
     <g id="text_6">
      <!-- 0.50 -->
      <g style="fill: #262626" transform="translate(18.214062 51.381984)scale(0.1 -0.1)">
       <use xlink:href="#ArialMT-30"/>
       <use xlink:href="#ArialMT-2e" x="55.615234"/>
       <use xlink:href="#ArialMT-35" x="83.398438"/>
       <use xlink:href="#ArialMT-30" x="139.013672"/>
      </g>
     </g>
    </g>
    <g id="ytick_4">
     <g id="line2d_6">
      <path d="M 44.675 19.604617 
L 106.92 19.604617 
" clip-path="url(#pd55c7fa936)" style="fill: none; stroke: #cccccc; stroke-width: 0.8; stroke-linecap: round"/>
     </g>
     <g id="text_7">
      <!-- 0.75 -->
      <g style="fill: #262626" transform="translate(18.214062 23.183523)scale(0.1 -0.1)">
       <defs>
        <path id="ArialMT-37" d="M 303 3981 
L 303 4522 
L 3269 4522 
L 3269 4084 
Q 2831 3619 2401 2847 
Q 1972 2075 1738 1259 
Q 1569 684 1522 0 
L 944 0 
Q 953 541 1156 1306 
Q 1359 2072 1739 2783 
Q 2119 3494 2547 3981 
L 303 3981 
z
" transform="scale(0.015625)"/>
       </defs>
       <use xlink:href="#ArialMT-30"/>
       <use xlink:href="#ArialMT-2e" x="55.615234"/>
       <use xlink:href="#ArialMT-37" x="83.398438"/>
       <use xlink:href="#ArialMT-35" x="139.013672"/>
      </g>
     </g>
    </g>
    <g id="text_8">
     <!-- Density -->
     <g style="fill: #262626" transform="translate(12.109375 74.826541)rotate(-90)scale(0.1 -0.1)">
      <defs>
       <path id="ArialMT-44" d="M 494 0 
L 494 4581 
L 2072 4581 
Q 2606 4581 2888 4516 
Q 3281 4425 3559 4188 
Q 3922 3881 4101 3404 
Q 4281 2928 4281 2316 
Q 4281 1794 4159 1391 
Q 4038 988 3847 723 
Q 3656 459 3429 307 
Q 3203 156 2883 78 
Q 2563 0 2147 0 
L 494 0 
z
M 1100 541 
L 2078 541 
Q 2531 541 2789 625 
Q 3047 709 3200 863 
Q 3416 1078 3536 1442 
Q 3656 1806 3656 2325 
Q 3656 3044 3420 3430 
Q 3184 3816 2847 3947 
Q 2603 4041 2063 4041 
L 1100 4041 
L 1100 541 
z
" transform="scale(0.015625)"/>
       <path id="ArialMT-65" d="M 2694 1069 
L 3275 997 
Q 3138 488 2766 206 
Q 2394 -75 1816 -75 
Q 1088 -75 661 373 
Q 234 822 234 1631 
Q 234 2469 665 2931 
Q 1097 3394 1784 3394 
Q 2450 3394 2872 2941 
Q 3294 2488 3294 1666 
Q 3294 1616 3291 1516 
L 816 1516 
Q 847 969 1125 678 
Q 1403 388 1819 388 
Q 2128 388 2347 550 
Q 2566 713 2694 1069 
z
M 847 1978 
L 2700 1978 
Q 2663 2397 2488 2606 
Q 2219 2931 1791 2931 
Q 1403 2931 1139 2672 
Q 875 2413 847 1978 
z
" transform="scale(0.015625)"/>
       <path id="ArialMT-6e" d="M 422 0 
L 422 3319 
L 928 3319 
L 928 2847 
Q 1294 3394 1984 3394 
Q 2284 3394 2536 3286 
Q 2788 3178 2913 3003 
Q 3038 2828 3088 2588 
Q 3119 2431 3119 2041 
L 3119 0 
L 2556 0 
L 2556 2019 
Q 2556 2363 2490 2533 
Q 2425 2703 2258 2804 
Q 2091 2906 1866 2906 
Q 1506 2906 1245 2678 
Q 984 2450 984 1813 
L 984 0 
L 422 0 
z
" transform="scale(0.015625)"/>
       <path id="ArialMT-74" d="M 1650 503 
L 1731 6 
Q 1494 -44 1306 -44 
Q 1000 -44 831 53 
Q 663 150 594 308 
Q 525 466 525 972 
L 525 2881 
L 113 2881 
L 113 3319 
L 525 3319 
L 525 4141 
L 1084 4478 
L 1084 3319 
L 1650 3319 
L 1650 2881 
L 1084 2881 
L 1084 941 
Q 1084 700 1114 631 
Q 1144 563 1211 522 
Q 1278 481 1403 481 
Q 1497 481 1650 503 
z
" transform="scale(0.015625)"/>
       <path id="ArialMT-79" d="M 397 -1278 
L 334 -750 
Q 519 -800 656 -800 
Q 844 -800 956 -737 
Q 1069 -675 1141 -563 
Q 1194 -478 1313 -144 
Q 1328 -97 1363 -6 
L 103 3319 
L 709 3319 
L 1400 1397 
Q 1534 1031 1641 628 
Q 1738 1016 1872 1384 
L 2581 3319 
L 3144 3319 
L 1881 -56 
Q 1678 -603 1566 -809 
Q 1416 -1088 1222 -1217 
Q 1028 -1347 759 -1347 
Q 597 -1347 397 -1278 
z
" transform="scale(0.015625)"/>
      </defs>
      <use xlink:href="#ArialMT-44"/>
      <use xlink:href="#ArialMT-65" x="72.216797"/>
      <use xlink:href="#ArialMT-6e" x="127.832031"/>
      <use xlink:href="#ArialMT-73" x="183.447266"/>
      <use xlink:href="#ArialMT-69" x="233.447266"/>
      <use xlink:href="#ArialMT-74" x="255.664062"/>
      <use xlink:href="#ArialMT-79" x="283.447266"/>
     </g>
    </g>
   </g>
   <g id="line2d_7">
    <path d="M 52.550882 104.183371 
L 54.363839 104.055671 
L 55.399815 103.804792 
L 56.176797 103.440481 
L 56.953779 102.85524 
L 57.730761 101.991783 
L 58.507743 100.808741 
L 59.284725 99.280589 
L 60.320701 96.668771 
L 61.356677 93.330878 
L 62.392653 89.191893 
L 63.687622 82.976529 
L 66.79555 67.441727 
L 67.572532 64.621556 
L 68.349514 62.624326 
L 68.867502 61.800539 
L 69.38549 61.378646 
L 69.903478 61.316718 
L 70.421466 61.539796 
L 71.198448 62.188314 
L 72.234423 63.084892 
L 73.011405 63.432185 
L 73.529393 63.441327 
L 74.047381 63.278153 
L 74.824363 62.781131 
L 76.637321 61.429349 
L 77.155309 61.330674 
L 77.673297 61.522782 
L 78.191285 62.094229 
L 78.709273 63.118136 
L 79.227261 64.639665 
L 80.004243 67.857082 
L 81.040218 73.577425 
L 83.371164 87.532938 
L 84.148146 91.061902 
L 84.925128 93.74059 
L 85.70211 95.665611 
L 86.479092 97.030665 
L 87.515068 98.325582 
L 88.810038 99.536762 
L 90.364001 100.666642 
L 91.658971 101.332995 
L 92.694947 101.651567 
L 93.989917 101.816721 
L 95.802875 102.018144 
L 97.097845 102.441802 
L 100.464766 103.846875 
L 102.01873 104.105353 
L 104.090682 104.191015 
L 104.090682 104.191015 
" clip-path="url(#pd55c7fa936)" style="fill: none; stroke: #ff4500; stroke-width: 1.5; stroke-linecap: round"/>
   </g>
   <g id="line2d_8">
    <path d="M 47.504318 104.190839 
L 48.740437 104.072385 
L 49.513011 103.788155 
L 50.13107 103.35286 
L 50.749129 102.689872 
L 51.367189 101.756447 
L 51.985248 100.483897 
L 52.603307 98.752246 
L 53.221367 96.350433 
L 53.839426 93.053539 
L 54.612 87.646053 
L 56.157148 74.535011 
L 57.084237 67.810438 
L 58.320356 59.954607 
L 58.7839 55.290202 
L 59.40196 46.553596 
L 60.947108 22.467228 
L 61.410652 18.590059 
L 61.719682 17.178543 
L 62.028712 16.559152 
L 62.183227 16.494174 
L 62.492256 16.755222 
L 62.801286 17.440499 
L 63.26483 19.146 
L 63.728375 21.6996 
L 64.346434 26.634692 
L 65.119008 35.186923 
L 69.445423 88.391529 
L 70.063483 93.813381 
L 70.527027 96.36172 
L 70.990572 97.961611 
L 71.763146 99.699439 
L 72.999264 101.920055 
L 73.617324 102.616909 
L 74.235383 102.99595 
L 77.01665 104.08191 
L 78.252768 104.191022 
L 78.252768 104.191022 
" clip-path="url(#pd55c7fa936)" style="fill: none; stroke: #1e90ff; stroke-width: 1.5; stroke-linecap: round"/>
   </g>
   <g id="patch_3">
    <path d="M 44.675 104.2 
L 44.675 12.109331 
" style="fill: none; stroke: #cccccc; stroke-width: 0.8; stroke-linejoin: miter; stroke-linecap: square"/>
   </g>
   <g id="patch_4">
    <path d="M 106.92 104.2 
L 106.92 12.109331 
" style="fill: none; stroke: #cccccc; stroke-width: 0.8; stroke-linejoin: miter; stroke-linecap: square"/>
   </g>
   <g id="patch_5">
    <path d="M 44.675 104.2 
L 106.92 104.2 
" style="fill: none; stroke: #cccccc; stroke-width: 0.8; stroke-linejoin: miter; stroke-linecap: square"/>
   </g>
   <g id="patch_6">
    <path d="M 44.675 12.109331 
L 106.92 12.109331 
" style="fill: none; stroke: #cccccc; stroke-width: 0.8; stroke-linejoin: miter; stroke-linecap: square"/>
   </g>
  </g>
  <g id="axes_2">
   <g id="patch_7">
    <path d="M 151.595 104.2 
L 213.84 104.2 
L 213.84 12.109331 
L 151.595 12.109331 
z
" style="fill: #ffffff"/>
   </g>
   <g id="matplotlib.axis_3">
    <g id="xtick_3">
     <g id="line2d_9">
      <path d="M 174.64879 104.2 
L 174.64879 12.109331 
" clip-path="url(#pe2a19948e9)" style="fill: none; stroke: #cccccc; stroke-width: 0.8; stroke-linecap: round"/>
     </g>
     <g id="text_9">
      <!-- 0 -->
      <g style="fill: #262626" transform="translate(171.868321 118.357812)scale(0.1 -0.1)">
       <use xlink:href="#ArialMT-30"/>
      </g>
     </g>
    </g>
    <g id="xtick_4">
     <g id="line2d_10">
      <path d="M 207.373443 104.2 
L 207.373443 12.109331 
" clip-path="url(#pe2a19948e9)" style="fill: none; stroke: #cccccc; stroke-width: 0.8; stroke-linecap: round"/>
     </g>
     <g id="text_10">
      <!-- 5 -->
      <g style="fill: #262626" transform="translate(204.592974 118.357812)scale(0.1 -0.1)">
       <use xlink:href="#ArialMT-35"/>
      </g>
     </g>
    </g>
    <g id="text_11">
     <!-- texture1 -->
     <g style="fill: #262626" transform="translate(164.652656 131.503125)scale(0.1 -0.1)">
      <defs>
       <path id="ArialMT-78" d="M 47 0 
L 1259 1725 
L 138 3319 
L 841 3319 
L 1350 2541 
Q 1494 2319 1581 2169 
Q 1719 2375 1834 2534 
L 2394 3319 
L 3066 3319 
L 1919 1756 
L 3153 0 
L 2463 0 
L 1781 1031 
L 1600 1309 
L 728 0 
L 47 0 
z
" transform="scale(0.015625)"/>
      </defs>
      <use xlink:href="#ArialMT-74"/>
      <use xlink:href="#ArialMT-65" x="27.783203"/>
      <use xlink:href="#ArialMT-78" x="83.398438"/>
      <use xlink:href="#ArialMT-74" x="133.398438"/>
      <use xlink:href="#ArialMT-75" x="161.181641"/>
      <use xlink:href="#ArialMT-72" x="216.796875"/>
      <use xlink:href="#ArialMT-65" x="250.097656"/>
      <use xlink:href="#ArialMT-31" x="305.712891"/>
     </g>
    </g>
   </g>
   <g id="matplotlib.axis_4">
    <g id="ytick_5">
     <g id="line2d_11">
      <path d="M 151.595 104.2 
L 213.84 104.2 
" clip-path="url(#pe2a19948e9)" style="fill: none; stroke: #cccccc; stroke-width: 0.8; stroke-linecap: round"/>
     </g>
     <g id="text_12">
      <!-- 0.0 -->
      <g style="fill: #262626" transform="translate(130.695 107.778906)scale(0.1 -0.1)">
       <use xlink:href="#ArialMT-30"/>
       <use xlink:href="#ArialMT-2e" x="55.615234"/>
       <use xlink:href="#ArialMT-30" x="83.398438"/>
      </g>
     </g>
    </g>
    <g id="ytick_6">
     <g id="line2d_12">
      <path d="M 151.595 69.433138 
L 213.84 69.433138 
" clip-path="url(#pe2a19948e9)" style="fill: none; stroke: #cccccc; stroke-width: 0.8; stroke-linecap: round"/>
     </g>
     <g id="text_13">
      <!-- 0.2 -->
      <g style="fill: #262626" transform="translate(130.695 73.012044)scale(0.1 -0.1)">
       <use xlink:href="#ArialMT-30"/>
       <use xlink:href="#ArialMT-2e" x="55.615234"/>
       <use xlink:href="#ArialMT-32" x="83.398438"/>
      </g>
     </g>
    </g>
    <g id="ytick_7">
     <g id="line2d_13">
      <path d="M 151.595 34.666275 
L 213.84 34.666275 
" clip-path="url(#pe2a19948e9)" style="fill: none; stroke: #cccccc; stroke-width: 0.8; stroke-linecap: round"/>
     </g>
     <g id="text_14">
      <!-- 0.4 -->
      <g style="fill: #262626" transform="translate(130.695 38.245181)scale(0.1 -0.1)">
       <defs>
        <path id="ArialMT-34" d="M 2069 0 
L 2069 1097 
L 81 1097 
L 81 1613 
L 2172 4581 
L 2631 4581 
L 2631 1613 
L 3250 1613 
L 3250 1097 
L 2631 1097 
L 2631 0 
L 2069 0 
z
M 2069 1613 
L 2069 3678 
L 634 1613 
L 2069 1613 
z
" transform="scale(0.015625)"/>
       </defs>
       <use xlink:href="#ArialMT-30"/>
       <use xlink:href="#ArialMT-2e" x="55.615234"/>
       <use xlink:href="#ArialMT-34" x="83.398438"/>
      </g>
     </g>
    </g>
   </g>
   <g id="line2d_14">
    <path d="M 155.163355 104.187753 
L 157.127834 104.04701 
L 158.250393 103.774917 
L 159.653592 103.179427 
L 161.337431 102.448075 
L 162.74063 102.131018 
L 163.58255 101.914142 
L 164.143829 101.61004 
L 164.705109 101.064412 
L 165.266389 100.180571 
L 165.827668 98.881001 
L 166.388948 97.119564 
L 167.230868 93.594639 
L 168.072787 89.083881 
L 169.195346 81.774677 
L 170.598546 70.98941 
L 172.001745 58.601983 
L 173.966224 38.791755 
L 175.369423 25.504401 
L 176.211342 19.77815 
L 176.772622 17.434391 
L 177.053262 16.780069 
L 177.333902 16.494243 
L 177.614541 16.586973 
L 177.895181 17.060768 
L 178.175821 17.90942 
L 178.737101 20.658799 
L 179.57902 26.906631 
L 181.262859 42.598544 
L 182.946698 57.489604 
L 184.349898 68.344908 
L 185.472457 75.562169 
L 186.875656 82.965447 
L 188.278855 89.355702 
L 189.401415 93.554967 
L 190.243334 95.934954 
L 191.085254 97.664169 
L 191.927173 98.888508 
L 192.769093 99.772969 
L 193.891652 100.621043 
L 198.943169 103.605307 
L 200.065728 103.939338 
L 201.188288 103.986573 
L 202.310847 103.786792 
L 204.836605 103.123407 
L 205.678525 103.160718 
L 206.801084 103.453211 
L 208.765563 104.007982 
L 210.449402 104.172793 
L 211.010682 104.187938 
L 211.010682 104.187938 
" clip-path="url(#pe2a19948e9)" style="fill: none; stroke: #ff4500; stroke-width: 1.5; stroke-linecap: round"/>
   </g>
   <g id="line2d_15">
    <path d="M 154.424318 104.190828 
L 156.352916 104.046228 
L 157.317215 103.735138 
L 158.04044 103.253176 
L 158.763664 102.440516 
L 159.486888 101.183893 
L 160.210112 99.363261 
L 160.933337 96.824785 
L 161.656561 93.349048 
L 162.379785 88.680366 
L 163.10301 82.663998 
L 164.067309 72.809406 
L 166.719131 44.258594 
L 167.924505 34.102741 
L 168.888804 27.990111 
L 169.612028 24.735833 
L 170.335252 22.592029 
L 170.817402 21.76374 
L 171.299552 21.451046 
L 171.540626 21.511722 
L 171.781701 21.734564 
L 172.263851 22.725038 
L 172.746 24.527562 
L 173.22815 27.197285 
L 173.951374 32.731701 
L 175.156748 44.532908 
L 176.603196 58.500949 
L 178.049645 69.987241 
L 179.496093 79.943802 
L 180.460392 85.192872 
L 181.183617 87.9812 
L 181.906841 89.874624 
L 182.87114 91.651204 
L 184.799738 94.702187 
L 185.281888 95.171392 
L 185.764037 95.403972 
L 186.246187 95.411615 
L 188.174785 95.011427 
L 188.656934 95.29256 
L 189.139084 95.806804 
L 189.862308 96.93607 
L 192.755205 102.036234 
L 193.47843 102.776426 
L 194.201654 103.220996 
L 194.924878 103.421284 
L 196.130252 103.470397 
L 197.576701 103.572605 
L 201.674972 104.177828 
L 202.398196 104.192479 
L 202.398196 104.192479 
" clip-path="url(#pe2a19948e9)" style="fill: none; stroke: #1e90ff; stroke-width: 1.5; stroke-linecap: round"/>
   </g>
   <g id="patch_8">
    <path d="M 151.595 104.2 
L 151.595 12.109331 
" style="fill: none; stroke: #cccccc; stroke-width: 0.8; stroke-linejoin: miter; stroke-linecap: square"/>
   </g>
   <g id="patch_9">
    <path d="M 213.84 104.2 
L 213.84 12.109331 
" style="fill: none; stroke: #cccccc; stroke-width: 0.8; stroke-linejoin: miter; stroke-linecap: square"/>
   </g>
   <g id="patch_10">
    <path d="M 151.595 104.2 
L 213.84 104.2 
" style="fill: none; stroke: #cccccc; stroke-width: 0.8; stroke-linejoin: miter; stroke-linecap: square"/>
   </g>
   <g id="patch_11">
    <path d="M 151.595 12.109331 
L 213.84 12.109331 
" style="fill: none; stroke: #cccccc; stroke-width: 0.8; stroke-linejoin: miter; stroke-linecap: square"/>
   </g>
  </g>
  <g id="axes_3">
   <g id="patch_12">
    <path d="M 258.515 104.2 
L 320.76 104.2 
L 320.76 12.109331 
L 258.515 12.109331 
z
" style="fill: #ffffff"/>
   </g>
   <g id="matplotlib.axis_5">
    <g id="xtick_5">
     <g id="line2d_16">
      <path d="M 280.125305 104.2 
L 280.125305 12.109331 
" clip-path="url(#p3666b51fbc)" style="fill: none; stroke: #cccccc; stroke-width: 0.8; stroke-linecap: round"/>
     </g>
     <g id="text_15">
      <!-- 0 -->
      <g style="fill: #262626" transform="translate(277.344837 118.357812)scale(0.1 -0.1)">
       <use xlink:href="#ArialMT-30"/>
      </g>
     </g>
    </g>
    <g id="xtick_6">
     <g id="line2d_17">
      <path d="M 318.692486 104.2 
L 318.692486 12.109331 
" clip-path="url(#p3666b51fbc)" style="fill: none; stroke: #cccccc; stroke-width: 0.8; stroke-linecap: round"/>
     </g>
     <g id="text_16">
      <!-- 5 -->
      <g style="fill: #262626" transform="translate(315.912017 118.357812)scale(0.1 -0.1)">
       <use xlink:href="#ArialMT-35"/>
      </g>
     </g>
    </g>
    <g id="text_17">
     <!-- perimeter1 -->
     <g style="fill: #262626" transform="translate(265.740625 131.532813)scale(0.1 -0.1)">
      <defs>
       <path id="ArialMT-70" d="M 422 -1272 
L 422 3319 
L 934 3319 
L 934 2888 
Q 1116 3141 1344 3267 
Q 1572 3394 1897 3394 
Q 2322 3394 2647 3175 
Q 2972 2956 3137 2557 
Q 3303 2159 3303 1684 
Q 3303 1175 3120 767 
Q 2938 359 2589 142 
Q 2241 -75 1856 -75 
Q 1575 -75 1351 44 
Q 1128 163 984 344 
L 984 -1272 
L 422 -1272 
z
M 931 1641 
Q 931 1000 1190 694 
Q 1450 388 1819 388 
Q 2194 388 2461 705 
Q 2728 1022 2728 1688 
Q 2728 2322 2467 2637 
Q 2206 2953 1844 2953 
Q 1484 2953 1207 2617 
Q 931 2281 931 1641 
z
" transform="scale(0.015625)"/>
       <path id="ArialMT-6d" d="M 422 0 
L 422 3319 
L 925 3319 
L 925 2853 
Q 1081 3097 1340 3245 
Q 1600 3394 1931 3394 
Q 2300 3394 2536 3241 
Q 2772 3088 2869 2813 
Q 3263 3394 3894 3394 
Q 4388 3394 4653 3120 
Q 4919 2847 4919 2278 
L 4919 0 
L 4359 0 
L 4359 2091 
Q 4359 2428 4304 2576 
Q 4250 2725 4106 2815 
Q 3963 2906 3769 2906 
Q 3419 2906 3187 2673 
Q 2956 2441 2956 1928 
L 2956 0 
L 2394 0 
L 2394 2156 
Q 2394 2531 2256 2718 
Q 2119 2906 1806 2906 
Q 1569 2906 1367 2781 
Q 1166 2656 1075 2415 
Q 984 2175 984 1722 
L 984 0 
L 422 0 
z
" transform="scale(0.015625)"/>
      </defs>
      <use xlink:href="#ArialMT-70"/>
      <use xlink:href="#ArialMT-65" x="55.615234"/>
      <use xlink:href="#ArialMT-72" x="111.230469"/>
      <use xlink:href="#ArialMT-69" x="144.53125"/>
      <use xlink:href="#ArialMT-6d" x="166.748047"/>
      <use xlink:href="#ArialMT-65" x="250.048828"/>
      <use xlink:href="#ArialMT-74" x="305.664062"/>
      <use xlink:href="#ArialMT-65" x="333.447266"/>
      <use xlink:href="#ArialMT-72" x="389.0625"/>
      <use xlink:href="#ArialMT-31" x="422.363281"/>
     </g>
    </g>
   </g>
   <g id="matplotlib.axis_6">
    <g id="ytick_8">
     <g id="line2d_18">
      <path d="M 258.515 104.2 
L 320.76 104.2 
" clip-path="url(#p3666b51fbc)" style="fill: none; stroke: #cccccc; stroke-width: 0.8; stroke-linecap: round"/>
     </g>
     <g id="text_18">
      <!-- 0.00 -->
      <g style="fill: #262626" transform="translate(232.054062 107.778906)scale(0.1 -0.1)">
       <use xlink:href="#ArialMT-30"/>
       <use xlink:href="#ArialMT-2e" x="55.615234"/>
       <use xlink:href="#ArialMT-30" x="83.398438"/>
       <use xlink:href="#ArialMT-30" x="139.013672"/>
      </g>
     </g>
    </g>
    <g id="ytick_9">
     <g id="line2d_19">
      <path d="M 258.515 77.260907 
L 320.76 77.260907 
" clip-path="url(#p3666b51fbc)" style="fill: none; stroke: #cccccc; stroke-width: 0.8; stroke-linecap: round"/>
     </g>
     <g id="text_19">
      <!-- 0.25 -->
      <g style="fill: #262626" transform="translate(232.054062 80.839813)scale(0.1 -0.1)">
       <use xlink:href="#ArialMT-30"/>
       <use xlink:href="#ArialMT-2e" x="55.615234"/>
       <use xlink:href="#ArialMT-32" x="83.398438"/>
       <use xlink:href="#ArialMT-35" x="139.013672"/>
      </g>
     </g>
    </g>
    <g id="ytick_10">
     <g id="line2d_20">
      <path d="M 258.515 50.321813 
L 320.76 50.321813 
" clip-path="url(#p3666b51fbc)" style="fill: none; stroke: #cccccc; stroke-width: 0.8; stroke-linecap: round"/>
     </g>
     <g id="text_20">
      <!-- 0.50 -->
      <g style="fill: #262626" transform="translate(232.054062 53.900719)scale(0.1 -0.1)">
       <use xlink:href="#ArialMT-30"/>
       <use xlink:href="#ArialMT-2e" x="55.615234"/>
       <use xlink:href="#ArialMT-35" x="83.398438"/>
       <use xlink:href="#ArialMT-30" x="139.013672"/>
      </g>
     </g>
    </g>
    <g id="ytick_11">
     <g id="line2d_21">
      <path d="M 258.515 23.38272 
L 320.76 23.38272 
" clip-path="url(#p3666b51fbc)" style="fill: none; stroke: #cccccc; stroke-width: 0.8; stroke-linecap: round"/>
     </g>
     <g id="text_21">
      <!-- 0.75 -->
      <g style="fill: #262626" transform="translate(232.054062 26.961626)scale(0.1 -0.1)">
       <use xlink:href="#ArialMT-30"/>
       <use xlink:href="#ArialMT-2e" x="55.615234"/>
       <use xlink:href="#ArialMT-37" x="83.398438"/>
       <use xlink:href="#ArialMT-35" x="139.013672"/>
      </g>
     </g>
    </g>
   </g>
   <g id="line2d_22">
    <path d="M 266.61326 104.185089 
L 268.676272 104.028736 
L 269.707778 103.744126 
L 270.481407 103.338382 
L 271.255037 102.692534 
L 272.028666 101.740808 
L 272.802296 100.427769 
L 273.575925 98.709992 
L 274.607431 95.732328 
L 275.638937 91.92768 
L 276.92832 86.092225 
L 280.53859 68.691568 
L 281.570096 65.31955 
L 282.343726 63.558637 
L 283.117355 62.446378 
L 283.633108 62.032787 
L 284.148861 61.844445 
L 284.664614 61.840506 
L 285.438244 62.077876 
L 287.759132 63.085057 
L 288.532762 63.157829 
L 290.595774 63.093969 
L 291.111527 63.380955 
L 291.62728 63.976567 
L 292.143033 64.966036 
L 292.658786 66.404494 
L 293.432415 69.417029 
L 294.463921 74.718026 
L 296.784809 87.432533 
L 297.816315 91.644918 
L 298.589945 94.040211 
L 299.363574 95.892502 
L 300.39508 97.736831 
L 301.426586 99.06289 
L 302.458092 99.982614 
L 303.489598 100.582315 
L 304.778981 101.055194 
L 306.841993 101.544113 
L 310.968017 102.339923 
L 315.09404 103.966476 
L 316.641299 104.146617 
L 317.930682 104.18854 
L 317.930682 104.18854 
" clip-path="url(#p3666b51fbc)" style="fill: none; stroke: #ff4500; stroke-width: 1.5; stroke-linecap: round"/>
   </g>
   <g id="line2d_23">
    <path d="M 261.344318 104.190688 
L 262.528033 104.069527 
L 263.267854 103.767725 
L 263.859711 103.291092 
L 264.599533 102.358062 
L 265.487318 100.835094 
L 266.22714 99.199767 
L 266.818997 97.338805 
L 267.410854 94.612049 
L 268.002711 90.801814 
L 268.742533 84.48591 
L 270.518104 68.307008 
L 271.997747 58.082906 
L 272.589604 50.858471 
L 273.47739 36.214466 
L 274.365176 22.833469 
L 274.809069 18.743642 
L 275.104997 17.203951 
L 275.400926 16.540502 
L 275.54889 16.494176 
L 275.844819 16.864922 
L 276.288712 18.265057 
L 276.880569 21.121293 
L 277.472426 25.034606 
L 278.064283 30.592079 
L 278.65614 38.293884 
L 280.579676 65.647691 
L 283.686926 95.132591 
L 284.278784 97.549108 
L 285.018605 99.547762 
L 285.906391 101.457647 
L 286.498248 102.339244 
L 287.090105 102.88368 
L 288.273819 103.580056 
L 289.309569 104.014908 
L 290.34532 104.173762 
L 290.789212 104.191074 
L 290.789212 104.191074 
" clip-path="url(#p3666b51fbc)" style="fill: none; stroke: #1e90ff; stroke-width: 1.5; stroke-linecap: round"/>
   </g>
   <g id="patch_13">
    <path d="M 258.515 104.2 
L 258.515 12.109331 
" style="fill: none; stroke: #cccccc; stroke-width: 0.8; stroke-linejoin: miter; stroke-linecap: square"/>
   </g>
   <g id="patch_14">
    <path d="M 320.76 104.2 
L 320.76 12.109331 
" style="fill: none; stroke: #cccccc; stroke-width: 0.8; stroke-linejoin: miter; stroke-linecap: square"/>
   </g>
   <g id="patch_15">
    <path d="M 258.515 104.2 
L 320.76 104.2 
" style="fill: none; stroke: #cccccc; stroke-width: 0.8; stroke-linejoin: miter; stroke-linecap: square"/>
   </g>
   <g id="patch_16">
    <path d="M 258.515 12.109331 
L 320.76 12.109331 
" style="fill: none; stroke: #cccccc; stroke-width: 0.8; stroke-linejoin: miter; stroke-linecap: square"/>
   </g>
  </g>
  <g id="axes_4">
   <g id="patch_17">
    <path d="M 365.435 104.2 
L 427.68 104.2 
L 427.68 12.109331 
L 365.435 12.109331 
z
" style="fill: #ffffff"/>
   </g>
   <g id="matplotlib.axis_7">
    <g id="xtick_7">
     <g id="line2d_24">
      <path d="M 381.384932 104.2 
L 381.384932 12.109331 
" clip-path="url(#p50a6b068e5)" style="fill: none; stroke: #cccccc; stroke-width: 0.8; stroke-linecap: round"/>
     </g>
     <g id="text_22">
      <!-- 0 -->
      <g style="fill: #262626" transform="translate(378.604463 118.357812)scale(0.1 -0.1)">
       <use xlink:href="#ArialMT-30"/>
      </g>
     </g>
    </g>
    <g id="xtick_8">
     <g id="line2d_25">
      <path d="M 415.740111 104.2 
L 415.740111 12.109331 
" clip-path="url(#p50a6b068e5)" style="fill: none; stroke: #cccccc; stroke-width: 0.8; stroke-linecap: round"/>
     </g>
     <g id="text_23">
      <!-- 5 -->
      <g style="fill: #262626" transform="translate(412.959642 118.357812)scale(0.1 -0.1)">
       <use xlink:href="#ArialMT-35"/>
      </g>
     </g>
    </g>
    <g id="text_24">
     <!-- area1 -->
     <g style="fill: #262626" transform="translate(383.770781 131.503125)scale(0.1 -0.1)">
      <use xlink:href="#ArialMT-61"/>
      <use xlink:href="#ArialMT-72" x="55.615234"/>
      <use xlink:href="#ArialMT-65" x="88.916016"/>
      <use xlink:href="#ArialMT-61" x="144.53125"/>
      <use xlink:href="#ArialMT-31" x="200.146484"/>
     </g>
    </g>
   </g>
   <g id="matplotlib.axis_8">
    <g id="ytick_12">
     <g id="line2d_26">
      <path d="M 365.435 104.2 
L 427.68 104.2 
" clip-path="url(#p50a6b068e5)" style="fill: none; stroke: #cccccc; stroke-width: 0.8; stroke-linecap: round"/>
     </g>
     <g id="text_25">
      <!-- 0.0 -->
      <g style="fill: #262626" transform="translate(344.535 107.778906)scale(0.1 -0.1)">
       <use xlink:href="#ArialMT-30"/>
       <use xlink:href="#ArialMT-2e" x="55.615234"/>
       <use xlink:href="#ArialMT-30" x="83.398438"/>
      </g>
     </g>
    </g>
    <g id="ytick_13">
     <g id="line2d_27">
      <path d="M 365.435 61.842826 
L 427.68 61.842826 
" clip-path="url(#p50a6b068e5)" style="fill: none; stroke: #cccccc; stroke-width: 0.8; stroke-linecap: round"/>
     </g>
     <g id="text_26">
      <!-- 0.5 -->
      <g style="fill: #262626" transform="translate(344.535 65.421732)scale(0.1 -0.1)">
       <use xlink:href="#ArialMT-30"/>
       <use xlink:href="#ArialMT-2e" x="55.615234"/>
       <use xlink:href="#ArialMT-35" x="83.398438"/>
      </g>
     </g>
    </g>
    <g id="ytick_14">
     <g id="line2d_28">
      <path d="M 365.435 19.485652 
L 427.68 19.485652 
" clip-path="url(#p50a6b068e5)" style="fill: none; stroke: #cccccc; stroke-width: 0.8; stroke-linecap: round"/>
     </g>
     <g id="text_27">
      <!-- 1.0 -->
      <g style="fill: #262626" transform="translate(344.535 23.064558)scale(0.1 -0.1)">
       <use xlink:href="#ArialMT-31"/>
       <use xlink:href="#ArialMT-2e" x="55.615234"/>
       <use xlink:href="#ArialMT-30" x="83.398438"/>
      </g>
     </g>
    </g>
   </g>
   <g id="line2d_29">
    <path d="M 368.264318 104.185008 
L 370.254793 104.046837 
L 371.392208 103.746671 
L 372.245268 103.280301 
L 373.098329 102.484488 
L 373.95139 101.237053 
L 374.804451 99.42806 
L 375.657511 96.987452 
L 376.510572 93.915257 
L 377.93234 87.705992 
L 379.922815 78.799347 
L 380.775876 75.847144 
L 381.344583 74.376852 
L 381.91329 73.350722 
L 382.481997 72.767639 
L 383.050705 72.589088 
L 383.619412 72.743526 
L 384.472473 73.389697 
L 386.462948 75.194212 
L 387.316008 75.643534 
L 388.169069 75.8706 
L 390.443898 76.272464 
L 391.012605 76.610872 
L 391.581312 77.171825 
L 392.150019 78.012466 
L 392.718727 79.169966 
L 393.571787 81.506499 
L 394.709202 85.50516 
L 396.98403 93.800012 
L 397.837091 96.134272 
L 398.690152 97.847858 
L 399.543213 98.988116 
L 400.396273 99.687447 
L 401.533688 100.233005 
L 403.808516 101.186715 
L 407.505113 102.952523 
L 408.926881 103.339389 
L 410.633003 103.544567 
L 412.907831 103.536232 
L 416.035721 103.278517 
L 417.741842 103.268536 
L 419.447964 103.552753 
L 422.007146 104.040066 
L 423.997621 104.174233 
L 424.850682 104.190348 
L 424.850682 104.190348 
" clip-path="url(#p50a6b068e5)" style="fill: none; stroke: #ff4500; stroke-width: 1.5; stroke-linecap: round"/>
   </g>
   <g id="line2d_30">
    <path d="M 368.961496 104.189058 
L 369.715776 104.059188 
L 370.146793 103.75859 
L 370.470055 103.291135 
L 370.901072 102.161083 
L 371.332089 100.233989 
L 371.763106 97.247644 
L 372.301877 91.5844 
L 372.948403 81.800572 
L 374.241454 61.033585 
L 375.211242 47.795759 
L 375.857767 33.87391 
L 376.504293 20.90003 
L 376.827556 17.503383 
L 377.043064 16.590423 
L 377.150818 16.494176 
L 377.258573 16.606149 
L 377.474081 17.350545 
L 377.905098 20.292723 
L 378.443869 25.72091 
L 379.090395 34.701009 
L 380.060183 52.349669 
L 380.706708 62.589636 
L 382.323022 83.617038 
L 383.077301 94.51665 
L 383.508318 97.798227 
L 383.939335 99.334312 
L 384.478107 100.257402 
L 385.555649 102.023169 
L 386.309929 103.115039 
L 386.740946 103.439484 
L 387.171963 103.495607 
L 388.249505 103.433671 
L 389.003785 103.841419 
L 389.758064 104.128866 
L 390.40459 104.191079 
L 390.40459 104.191079 
" clip-path="url(#p50a6b068e5)" style="fill: none; stroke: #1e90ff; stroke-width: 1.5; stroke-linecap: round"/>
   </g>
   <g id="patch_18">
    <path d="M 365.435 104.2 
L 365.435 12.109331 
" style="fill: none; stroke: #cccccc; stroke-width: 0.8; stroke-linejoin: miter; stroke-linecap: square"/>
   </g>
   <g id="patch_19">
    <path d="M 427.68 104.2 
L 427.68 12.109331 
" style="fill: none; stroke: #cccccc; stroke-width: 0.8; stroke-linejoin: miter; stroke-linecap: square"/>
   </g>
   <g id="patch_20">
    <path d="M 365.435 104.2 
L 427.68 104.2 
" style="fill: none; stroke: #cccccc; stroke-width: 0.8; stroke-linejoin: miter; stroke-linecap: square"/>
   </g>
   <g id="patch_21">
    <path d="M 365.435 12.109331 
L 427.68 12.109331 
" style="fill: none; stroke: #cccccc; stroke-width: 0.8; stroke-linejoin: miter; stroke-linecap: square"/>
   </g>
  </g>
  <g id="axes_5">
   <g id="patch_22">
    <path d="M 472.355 104.2 
L 534.6 104.2 
L 534.6 12.109331 
L 472.355 12.109331 
z
" style="fill: #ffffff"/>
   </g>
   <g id="matplotlib.axis_9">
    <g id="xtick_9">
     <g id="line2d_31">
      <path d="M 498.616482 104.2 
L 498.616482 12.109331 
" clip-path="url(#pae1719c072)" style="fill: none; stroke: #cccccc; stroke-width: 0.8; stroke-linecap: round"/>
     </g>
     <g id="text_28">
      <!-- 0 -->
      <g style="fill: #262626" transform="translate(495.836013 118.357812)scale(0.1 -0.1)">
       <use xlink:href="#ArialMT-30"/>
      </g>
     </g>
    </g>
    <g id="xtick_10">
     <g id="line2d_32">
      <path d="M 527.920439 104.2 
L 527.920439 12.109331 
" clip-path="url(#pae1719c072)" style="fill: none; stroke: #cccccc; stroke-width: 0.8; stroke-linecap: round"/>
     </g>
     <g id="text_29">
      <!-- 5 -->
      <g style="fill: #262626" transform="translate(525.139971 118.357812)scale(0.1 -0.1)">
       <use xlink:href="#ArialMT-35"/>
      </g>
     </g>
    </g>
    <g id="text_30">
     <!-- smoothness1 -->
     <g style="fill: #262626" transform="translate(473.740781 131.503125)scale(0.1 -0.1)">
      <defs>
       <path id="ArialMT-6f" d="M 213 1659 
Q 213 2581 725 3025 
Q 1153 3394 1769 3394 
Q 2453 3394 2887 2945 
Q 3322 2497 3322 1706 
Q 3322 1066 3130 698 
Q 2938 331 2570 128 
Q 2203 -75 1769 -75 
Q 1072 -75 642 372 
Q 213 819 213 1659 
z
M 791 1659 
Q 791 1022 1069 705 
Q 1347 388 1769 388 
Q 2188 388 2466 706 
Q 2744 1025 2744 1678 
Q 2744 2294 2464 2611 
Q 2184 2928 1769 2928 
Q 1347 2928 1069 2612 
Q 791 2297 791 1659 
z
" transform="scale(0.015625)"/>
       <path id="ArialMT-68" d="M 422 0 
L 422 4581 
L 984 4581 
L 984 2938 
Q 1378 3394 1978 3394 
Q 2347 3394 2619 3248 
Q 2891 3103 3008 2847 
Q 3125 2591 3125 2103 
L 3125 0 
L 2563 0 
L 2563 2103 
Q 2563 2525 2380 2717 
Q 2197 2909 1863 2909 
Q 1613 2909 1392 2779 
Q 1172 2650 1078 2428 
Q 984 2206 984 1816 
L 984 0 
L 422 0 
z
" transform="scale(0.015625)"/>
      </defs>
      <use xlink:href="#ArialMT-73"/>
      <use xlink:href="#ArialMT-6d" x="50"/>
      <use xlink:href="#ArialMT-6f" x="133.300781"/>
      <use xlink:href="#ArialMT-6f" x="188.916016"/>
      <use xlink:href="#ArialMT-74" x="244.53125"/>
      <use xlink:href="#ArialMT-68" x="272.314453"/>
      <use xlink:href="#ArialMT-6e" x="327.929688"/>
      <use xlink:href="#ArialMT-65" x="383.544922"/>
      <use xlink:href="#ArialMT-73" x="439.160156"/>
      <use xlink:href="#ArialMT-73" x="489.160156"/>
      <use xlink:href="#ArialMT-31" x="539.160156"/>
     </g>
    </g>
   </g>
   <g id="matplotlib.axis_10">
    <g id="ytick_15">
     <g id="line2d_33">
      <path d="M 472.355 104.2 
L 534.6 104.2 
" clip-path="url(#pae1719c072)" style="fill: none; stroke: #cccccc; stroke-width: 0.8; stroke-linecap: round"/>
     </g>
     <g id="text_31">
      <!-- 0.0 -->
      <g style="fill: #262626" transform="translate(451.455 107.778906)scale(0.1 -0.1)">
       <use xlink:href="#ArialMT-30"/>
       <use xlink:href="#ArialMT-2e" x="55.615234"/>
       <use xlink:href="#ArialMT-30" x="83.398438"/>
      </g>
     </g>
    </g>
    <g id="ytick_16">
     <g id="line2d_34">
      <path d="M 472.355 63.109966 
L 534.6 63.109966 
" clip-path="url(#pae1719c072)" style="fill: none; stroke: #cccccc; stroke-width: 0.8; stroke-linecap: round"/>
     </g>
     <g id="text_32">
      <!-- 0.2 -->
      <g style="fill: #262626" transform="translate(451.455 66.688872)scale(0.1 -0.1)">
       <use xlink:href="#ArialMT-30"/>
       <use xlink:href="#ArialMT-2e" x="55.615234"/>
       <use xlink:href="#ArialMT-32" x="83.398438"/>
      </g>
     </g>
    </g>
    <g id="ytick_17">
     <g id="line2d_35">
      <path d="M 472.355 22.019932 
L 534.6 22.019932 
" clip-path="url(#pae1719c072)" style="fill: none; stroke: #cccccc; stroke-width: 0.8; stroke-linecap: round"/>
     </g>
     <g id="text_33">
      <!-- 0.4 -->
      <g style="fill: #262626" transform="translate(451.455 25.598838)scale(0.1 -0.1)">
       <use xlink:href="#ArialMT-30"/>
       <use xlink:href="#ArialMT-2e" x="55.615234"/>
       <use xlink:href="#ArialMT-34" x="83.398438"/>
      </g>
     </g>
    </g>
   </g>
   <g id="line2d_36">
    <path d="M 483.765141 104.180067 
L 485.186858 104.027929 
L 485.999268 103.744003 
L 486.811678 103.184267 
L 487.624087 102.258079 
L 488.436497 100.901686 
L 489.248907 98.984796 
L 489.858214 96.995018 
L 490.467521 94.322988 
L 491.279931 89.443055 
L 492.092341 83.066385 
L 493.310955 71.542198 
L 494.935774 53.968749 
L 496.763696 34.071425 
L 497.576106 27.23654 
L 498.388516 22.125461 
L 498.997823 19.352282 
L 499.60713 17.472049 
L 500.013335 16.750022 
L 500.41954 16.49419 
L 500.622642 16.552159 
L 501.028847 17.056051 
L 501.435052 18.084338 
L 502.044359 20.568474 
L 502.856769 25.309317 
L 506.715715 51.546464 
L 507.731227 61.139971 
L 509.762251 81.757814 
L 510.574661 87.442077 
L 511.183968 90.46824 
L 511.996378 93.27187 
L 512.808787 95.236801 
L 514.027402 97.517632 
L 515.042914 98.987844 
L 515.855324 99.733866 
L 516.667733 100.10207 
L 518.08945 100.592321 
L 518.90186 101.19546 
L 521.542191 103.620341 
L 522.354601 103.958953 
L 523.370113 104.138032 
L 524.182523 104.18312 
L 524.182523 104.18312 
" clip-path="url(#pae1719c072)" style="fill: none; stroke: #ff4500; stroke-width: 1.5; stroke-linecap: round"/>
   </g>
   <g id="line2d_37">
    <path d="M 475.184318 104.191364 
L 477.174793 104.059478 
L 478.596561 103.739003 
L 480.302683 103.35919 
L 482.008804 103.111427 
L 482.577511 102.804643 
L 483.146219 102.24714 
L 483.714926 101.377489 
L 484.283633 100.155214 
L 485.136694 97.599287 
L 485.989754 94.090637 
L 486.842815 89.50057 
L 487.695876 83.644763 
L 488.548937 76.281149 
L 489.401997 67.208727 
L 490.823765 48.870638 
L 492.245533 30.804159 
L 493.098594 23.094012 
L 493.667301 20.020776 
L 493.951655 19.168368 
L 494.236008 18.771104 
L 494.520362 18.808716 
L 494.804716 19.243746 
L 495.373423 21.072463 
L 497.363898 29.432392 
L 497.932605 30.715935 
L 499.070019 32.874052 
L 499.638727 34.651067 
L 500.207434 37.23532 
L 501.060495 42.504667 
L 502.197909 51.240904 
L 505.894505 81.669161 
L 507.03192 87.936119 
L 507.884981 91.556176 
L 508.738041 94.151593 
L 509.591102 95.913205 
L 513.287699 102.184185 
L 513.856406 102.666373 
L 514.709467 103.052695 
L 518.97477 104.082189 
L 520.680892 104.187033 
L 522.955721 104.112848 
L 524.377489 103.853463 
L 526.367964 103.42834 
L 527.221024 103.474509 
L 528.927146 103.89054 
L 530.348914 104.127565 
L 531.770682 104.191364 
L 531.770682 104.191364 
" clip-path="url(#pae1719c072)" style="fill: none; stroke: #1e90ff; stroke-width: 1.5; stroke-linecap: round"/>
   </g>
   <g id="patch_23">
    <path d="M 472.355 104.2 
L 472.355 12.109331 
" style="fill: none; stroke: #cccccc; stroke-width: 0.8; stroke-linejoin: miter; stroke-linecap: square"/>
   </g>
   <g id="patch_24">
    <path d="M 534.6 104.2 
L 534.6 12.109331 
" style="fill: none; stroke: #cccccc; stroke-width: 0.8; stroke-linejoin: miter; stroke-linecap: square"/>
   </g>
   <g id="patch_25">
    <path d="M 472.355 104.2 
L 534.6 104.2 
" style="fill: none; stroke: #cccccc; stroke-width: 0.8; stroke-linejoin: miter; stroke-linecap: square"/>
   </g>
   <g id="patch_26">
    <path d="M 472.355 12.109331 
L 534.6 12.109331 
" style="fill: none; stroke: #cccccc; stroke-width: 0.8; stroke-linejoin: miter; stroke-linecap: square"/>
   </g>
  </g>
  <g id="axes_6">
   <g id="patch_27">
    <path d="M 579.275 104.2 
L 641.52 104.2 
L 641.52 12.109331 
L 579.275 12.109331 
z
" style="fill: #ffffff"/>
   </g>
   <g id="matplotlib.axis_11">
    <g id="xtick_11">
     <g id="line2d_38">
      <path d="M 598.036399 104.2 
L 598.036399 12.109331 
" clip-path="url(#p2334f92c5c)" style="fill: none; stroke: #cccccc; stroke-width: 0.8; stroke-linecap: round"/>
     </g>
     <g id="text_34">
      <!-- 0 -->
      <g style="fill: #262626" transform="translate(595.255931 118.357812)scale(0.1 -0.1)">
       <use xlink:href="#ArialMT-30"/>
      </g>
     </g>
    </g>
    <g id="xtick_12">
     <g id="line2d_39">
      <path d="M 634.206467 104.2 
L 634.206467 12.109331 
" clip-path="url(#p2334f92c5c)" style="fill: none; stroke: #cccccc; stroke-width: 0.8; stroke-linecap: round"/>
     </g>
     <g id="text_35">
      <!-- 5 -->
      <g style="fill: #262626" transform="translate(631.425998 118.357812)scale(0.1 -0.1)">
       <use xlink:href="#ArialMT-35"/>
      </g>
     </g>
    </g>
    <g id="text_36">
     <!-- compactness1 -->
     <g style="fill: #262626" transform="translate(578.160781 131.532813)scale(0.1 -0.1)">
      <defs>
       <path id="ArialMT-63" d="M 2588 1216 
L 3141 1144 
Q 3050 572 2676 248 
Q 2303 -75 1759 -75 
Q 1078 -75 664 370 
Q 250 816 250 1647 
Q 250 2184 428 2587 
Q 606 2991 970 3192 
Q 1334 3394 1763 3394 
Q 2303 3394 2647 3120 
Q 2991 2847 3088 2344 
L 2541 2259 
Q 2463 2594 2264 2762 
Q 2066 2931 1784 2931 
Q 1359 2931 1093 2626 
Q 828 2322 828 1663 
Q 828 994 1084 691 
Q 1341 388 1753 388 
Q 2084 388 2306 591 
Q 2528 794 2588 1216 
z
" transform="scale(0.015625)"/>
      </defs>
      <use xlink:href="#ArialMT-63"/>
      <use xlink:href="#ArialMT-6f" x="50"/>
      <use xlink:href="#ArialMT-6d" x="105.615234"/>
      <use xlink:href="#ArialMT-70" x="188.916016"/>
      <use xlink:href="#ArialMT-61" x="244.53125"/>
      <use xlink:href="#ArialMT-63" x="300.146484"/>
      <use xlink:href="#ArialMT-74" x="350.146484"/>
      <use xlink:href="#ArialMT-6e" x="377.929688"/>
      <use xlink:href="#ArialMT-65" x="433.544922"/>
      <use xlink:href="#ArialMT-73" x="489.160156"/>
      <use xlink:href="#ArialMT-73" x="539.160156"/>
      <use xlink:href="#ArialMT-31" x="589.160156"/>
     </g>
    </g>
   </g>
   <g id="matplotlib.axis_12">
    <g id="ytick_18">
     <g id="line2d_40">
      <path d="M 579.275 104.2 
L 641.52 104.2 
" clip-path="url(#p2334f92c5c)" style="fill: none; stroke: #cccccc; stroke-width: 0.8; stroke-linecap: round"/>
     </g>
     <g id="text_37">
      <!-- 0.0 -->
      <g style="fill: #262626" transform="translate(558.375 107.778906)scale(0.1 -0.1)">
       <use xlink:href="#ArialMT-30"/>
       <use xlink:href="#ArialMT-2e" x="55.615234"/>
       <use xlink:href="#ArialMT-30" x="83.398438"/>
      </g>
     </g>
    </g>
    <g id="ytick_19">
     <g id="line2d_41">
      <path d="M 579.275 78.78145 
L 641.52 78.78145 
" clip-path="url(#p2334f92c5c)" style="fill: none; stroke: #cccccc; stroke-width: 0.8; stroke-linecap: round"/>
     </g>
     <g id="text_38">
      <!-- 0.2 -->
      <g style="fill: #262626" transform="translate(558.375 82.360356)scale(0.1 -0.1)">
       <use xlink:href="#ArialMT-30"/>
       <use xlink:href="#ArialMT-2e" x="55.615234"/>
       <use xlink:href="#ArialMT-32" x="83.398438"/>
      </g>
     </g>
    </g>
    <g id="ytick_20">
     <g id="line2d_42">
      <path d="M 579.275 53.362899 
L 641.52 53.362899 
" clip-path="url(#p2334f92c5c)" style="fill: none; stroke: #cccccc; stroke-width: 0.8; stroke-linecap: round"/>
     </g>
     <g id="text_39">
      <!-- 0.4 -->
      <g style="fill: #262626" transform="translate(558.375 56.941806)scale(0.1 -0.1)">
       <use xlink:href="#ArialMT-30"/>
       <use xlink:href="#ArialMT-2e" x="55.615234"/>
       <use xlink:href="#ArialMT-34" x="83.398438"/>
      </g>
     </g>
    </g>
    <g id="ytick_21">
     <g id="line2d_43">
      <path d="M 579.275 27.944349 
L 641.52 27.944349 
" clip-path="url(#p2334f92c5c)" style="fill: none; stroke: #cccccc; stroke-width: 0.8; stroke-linecap: round"/>
     </g>
     <g id="text_40">
      <!-- 0.6 -->
      <g style="fill: #262626" transform="translate(558.375 31.523255)scale(0.1 -0.1)">
       <defs>
        <path id="ArialMT-36" d="M 3184 3459 
L 2625 3416 
Q 2550 3747 2413 3897 
Q 2184 4138 1850 4138 
Q 1581 4138 1378 3988 
Q 1113 3794 959 3422 
Q 806 3050 800 2363 
Q 1003 2672 1297 2822 
Q 1591 2972 1913 2972 
Q 2475 2972 2870 2558 
Q 3266 2144 3266 1488 
Q 3266 1056 3080 686 
Q 2894 316 2569 119 
Q 2244 -78 1831 -78 
Q 1128 -78 684 439 
Q 241 956 241 2144 
Q 241 3472 731 4075 
Q 1159 4600 1884 4600 
Q 2425 4600 2770 4297 
Q 3116 3994 3184 3459 
z
M 888 1484 
Q 888 1194 1011 928 
Q 1134 663 1356 523 
Q 1578 384 1822 384 
Q 2178 384 2434 671 
Q 2691 959 2691 1453 
Q 2691 1928 2437 2201 
Q 2184 2475 1800 2475 
Q 1419 2475 1153 2201 
Q 888 1928 888 1484 
z
" transform="scale(0.015625)"/>
       </defs>
       <use xlink:href="#ArialMT-30"/>
       <use xlink:href="#ArialMT-2e" x="55.615234"/>
       <use xlink:href="#ArialMT-36" x="83.398438"/>
      </g>
     </g>
    </g>
    <g id="text_41">
     <!-- Density -->
     <g style="fill: #262626" transform="translate(552.270313 74.826541)rotate(-90)scale(0.1 -0.1)">
      <use xlink:href="#ArialMT-44"/>
      <use xlink:href="#ArialMT-65" x="72.216797"/>
      <use xlink:href="#ArialMT-6e" x="127.832031"/>
      <use xlink:href="#ArialMT-73" x="183.447266"/>
      <use xlink:href="#ArialMT-69" x="233.447266"/>
      <use xlink:href="#ArialMT-74" x="255.664062"/>
      <use xlink:href="#ArialMT-79" x="283.447266"/>
     </g>
    </g>
   </g>
   <g id="line2d_44">
    <path d="M 582.438748 104.183727 
L 584.417459 104.033729 
L 585.548151 103.700922 
L 586.39617 103.175809 
L 587.244189 102.274597 
L 588.092208 100.874248 
L 588.940228 98.901792 
L 589.788247 96.376454 
L 591.201612 91.299462 
L 594.028342 80.103955 
L 595.159034 74.901826 
L 596.289726 68.754826 
L 598.833784 54.136533 
L 599.681803 50.905305 
L 600.247149 49.641518 
L 600.529822 49.298696 
L 600.812495 49.147754 
L 601.095168 49.182418 
L 601.377841 49.392304 
L 601.943187 50.279276 
L 602.508533 51.669189 
L 603.639225 55.351524 
L 606.748629 66.891706 
L 609.575359 77.346355 
L 610.988724 81.694958 
L 612.684763 86.104377 
L 614.946147 91.287652 
L 616.642185 94.691656 
L 617.772877 96.449522 
L 618.620896 97.363674 
L 619.468915 97.922047 
L 620.599608 98.289976 
L 622.012973 98.725767 
L 622.860992 99.221435 
L 623.991684 100.17532 
L 625.970395 101.944104 
L 627.101087 102.630948 
L 628.231779 103.026363 
L 629.645145 103.246598 
L 633.037221 103.669372 
L 635.863951 104.083886 
L 638.408009 104.189464 
L 638.690682 104.192414 
L 638.690682 104.192414 
" clip-path="url(#p2334f92c5c)" style="fill: none; stroke: #ff4500; stroke-width: 1.5; stroke-linecap: round"/>
   </g>
   <g id="line2d_45">
    <path d="M 582.104318 104.187568 
L 583.392015 104.037233 
L 583.943885 103.794565 
L 584.495756 103.284016 
L 584.863669 102.696648 
L 585.231583 101.815591 
L 585.783453 99.70669 
L 586.335323 96.269929 
L 586.887193 91.086045 
L 587.439063 83.918748 
L 588.358847 68.121137 
L 590.198414 34.38555 
L 590.934241 25.050554 
L 591.486111 20.459046 
L 592.037981 17.772628 
L 592.405895 16.848661 
L 592.773808 16.49424 
L 592.957765 16.51538 
L 593.325679 16.96949 
L 593.693592 18.046508 
L 594.061505 19.863362 
L 594.613376 24.14871 
L 595.349203 32.443201 
L 596.820856 50.254763 
L 597.556683 56.285908 
L 598.476467 61.544715 
L 599.580207 67.923777 
L 603.259342 91.769485 
L 603.995169 94.440375 
L 604.730996 96.174385 
L 606.018693 98.371181 
L 607.30639 100.289153 
L 608.226173 101.283028 
L 609.329914 102.082647 
L 610.617611 102.760281 
L 611.353438 102.977691 
L 611.905308 102.975923 
L 612.641135 102.705878 
L 613.928832 102.050242 
L 614.480702 102.06899 
L 615.032572 102.354198 
L 617.240053 103.953909 
L 618.159837 104.146765 
L 618.711707 104.182539 
L 618.711707 104.182539 
" clip-path="url(#p2334f92c5c)" style="fill: none; stroke: #1e90ff; stroke-width: 1.5; stroke-linecap: round"/>
   </g>
   <g id="patch_28">
    <path d="M 579.275 104.2 
L 579.275 12.109331 
" style="fill: none; stroke: #cccccc; stroke-width: 0.8; stroke-linejoin: miter; stroke-linecap: square"/>
   </g>
   <g id="patch_29">
    <path d="M 641.52 104.2 
L 641.52 12.109331 
" style="fill: none; stroke: #cccccc; stroke-width: 0.8; stroke-linejoin: miter; stroke-linecap: square"/>
   </g>
   <g id="patch_30">
    <path d="M 579.275 104.2 
L 641.52 104.2 
" style="fill: none; stroke: #cccccc; stroke-width: 0.8; stroke-linejoin: miter; stroke-linecap: square"/>
   </g>
   <g id="patch_31">
    <path d="M 579.275 12.109331 
L 641.52 12.109331 
" style="fill: none; stroke: #cccccc; stroke-width: 0.8; stroke-linejoin: miter; stroke-linecap: square"/>
   </g>
  </g>
  <g id="axes_7">
   <g id="patch_32">
    <path d="M 686.195 104.2 
L 748.44 104.2 
L 748.44 12.109331 
L 686.195 12.109331 
z
" style="fill: #ffffff"/>
   </g>
   <g id="matplotlib.axis_13">
    <g id="xtick_13">
     <g id="line2d_46">
      <path d="M 703.441331 104.2 
L 703.441331 12.109331 
" clip-path="url(#p23f2b78fee)" style="fill: none; stroke: #cccccc; stroke-width: 0.8; stroke-linecap: round"/>
     </g>
     <g id="text_42">
      <!-- 0 -->
      <g style="fill: #262626" transform="translate(700.660862 118.357812)scale(0.1 -0.1)">
       <use xlink:href="#ArialMT-30"/>
      </g>
     </g>
    </g>
    <g id="xtick_14">
     <g id="line2d_47">
      <path d="M 743.89918 104.2 
L 743.89918 12.109331 
" clip-path="url(#p23f2b78fee)" style="fill: none; stroke: #cccccc; stroke-width: 0.8; stroke-linecap: round"/>
     </g>
     <g id="text_43">
      <!-- 5 -->
      <g style="fill: #262626" transform="translate(741.118711 118.357812)scale(0.1 -0.1)">
       <use xlink:href="#ArialMT-35"/>
      </g>
     </g>
    </g>
    <g id="text_44">
     <!-- concavity1 -->
     <g style="fill: #262626" transform="translate(693.695625 131.532813)scale(0.1 -0.1)">
      <defs>
       <path id="ArialMT-76" d="M 1344 0 
L 81 3319 
L 675 3319 
L 1388 1331 
Q 1503 1009 1600 663 
Q 1675 925 1809 1294 
L 2547 3319 
L 3125 3319 
L 1869 0 
L 1344 0 
z
" transform="scale(0.015625)"/>
      </defs>
      <use xlink:href="#ArialMT-63"/>
      <use xlink:href="#ArialMT-6f" x="50"/>
      <use xlink:href="#ArialMT-6e" x="105.615234"/>
      <use xlink:href="#ArialMT-63" x="161.230469"/>
      <use xlink:href="#ArialMT-61" x="211.230469"/>
      <use xlink:href="#ArialMT-76" x="266.845703"/>
      <use xlink:href="#ArialMT-69" x="316.845703"/>
      <use xlink:href="#ArialMT-74" x="339.0625"/>
      <use xlink:href="#ArialMT-79" x="366.845703"/>
      <use xlink:href="#ArialMT-31" x="416.845703"/>
     </g>
    </g>
   </g>
   <g id="matplotlib.axis_14">
    <g id="ytick_22">
     <g id="line2d_48">
      <path d="M 686.195 104.2 
L 748.44 104.2 
" clip-path="url(#p23f2b78fee)" style="fill: none; stroke: #cccccc; stroke-width: 0.8; stroke-linecap: round"/>
     </g>
     <g id="text_45">
      <!-- 0.0 -->
      <g style="fill: #262626" transform="translate(665.295 107.778906)scale(0.1 -0.1)">
       <use xlink:href="#ArialMT-30"/>
       <use xlink:href="#ArialMT-2e" x="55.615234"/>
       <use xlink:href="#ArialMT-30" x="83.398438"/>
      </g>
     </g>
    </g>
    <g id="ytick_23">
     <g id="line2d_49">
      <path d="M 686.195 63.005766 
L 748.44 63.005766 
" clip-path="url(#p23f2b78fee)" style="fill: none; stroke: #cccccc; stroke-width: 0.8; stroke-linecap: round"/>
     </g>
     <g id="text_46">
      <!-- 0.5 -->
      <g style="fill: #262626" transform="translate(665.295 66.584672)scale(0.1 -0.1)">
       <use xlink:href="#ArialMT-30"/>
       <use xlink:href="#ArialMT-2e" x="55.615234"/>
       <use xlink:href="#ArialMT-35" x="83.398438"/>
      </g>
     </g>
    </g>
    <g id="ytick_24">
     <g id="line2d_50">
      <path d="M 686.195 21.811531 
L 748.44 21.811531 
" clip-path="url(#p23f2b78fee)" style="fill: none; stroke: #cccccc; stroke-width: 0.8; stroke-linecap: round"/>
     </g>
     <g id="text_47">
      <!-- 1.0 -->
      <g style="fill: #262626" transform="translate(665.295 25.390437)scale(0.1 -0.1)">
       <use xlink:href="#ArialMT-31"/>
       <use xlink:href="#ArialMT-2e" x="55.615234"/>
       <use xlink:href="#ArialMT-30" x="83.398438"/>
      </g>
     </g>
    </g>
   </g>
   <g id="line2d_51">
    <path d="M 689.024318 104.181436 
L 691.014793 104.035101 
L 692.152208 103.746467 
L 693.005268 103.330774 
L 693.858329 102.675476 
L 694.71139 101.740598 
L 695.848804 100.063549 
L 697.270572 97.414669 
L 698.69234 94.249993 
L 699.829754 91.154003 
L 700.967169 87.272007 
L 702.388937 81.313337 
L 704.379412 72.908953 
L 705.232473 70.237392 
L 706.085533 68.413817 
L 706.654241 67.657143 
L 707.222948 67.22061 
L 707.791655 67.053953 
L 708.360362 67.113974 
L 708.929069 67.373121 
L 709.497776 67.820237 
L 710.350837 68.841379 
L 711.203898 70.270309 
L 712.341312 72.681649 
L 715.753555 80.90341 
L 718.028384 86.831518 
L 720.587566 93.555507 
L 721.724981 95.906544 
L 722.578041 97.243654 
L 723.431102 98.202524 
L 724.284163 98.826624 
L 725.137224 99.197753 
L 726.558992 99.526427 
L 728.265113 99.927106 
L 729.686881 100.492901 
L 731.677356 101.575895 
L 733.383478 102.45408 
L 734.520892 102.832293 
L 735.94266 103.03232 
L 738.786196 103.269872 
L 743.90456 104.139804 
L 745.610682 104.189566 
L 745.610682 104.189566 
" clip-path="url(#p23f2b78fee)" style="fill: none; stroke: #ff4500; stroke-width: 1.5; stroke-linecap: round"/>
   </g>
   <g id="line2d_52">
    <path d="M 690.333798 104.04103 
L 690.835364 103.724836 
L 691.33693 102.946605 
L 691.838497 101.273187 
L 692.340063 98.124577 
L 692.84163 92.926818 
L 693.343196 85.365488 
L 694.095546 70.099146 
L 695.851028 31.289248 
L 696.352595 23.505785 
L 696.854161 18.445197 
L 697.104944 17.067968 
L 697.355728 16.494533 
L 697.606511 16.722434 
L 697.857294 17.723222 
L 698.35886 21.80011 
L 699.11121 31.655327 
L 701.117476 60.874206 
L 702.120609 71.460764 
L 702.872958 77.238568 
L 703.876091 82.919461 
L 706.383923 95.054097 
L 707.136273 97.609996 
L 707.888623 99.25715 
L 708.640972 100.301086 
L 711.148804 102.978433 
L 711.901154 103.523834 
L 712.653504 103.753061 
L 713.656636 103.695698 
L 714.910553 103.597009 
L 718.421518 103.739168 
L 720.427783 104.135819 
L 721.932483 104.144019 
L 723.186399 103.912301 
L 725.443448 103.225623 
L 726.195797 103.29861 
L 727.449713 103.738174 
L 728.703629 104.084828 
L 730.208329 104.192176 
L 733.217727 104.146363 
L 734.471643 103.944733 
L 735.976343 103.657681 
L 736.979475 103.744998 
L 739.236524 104.1578 
L 740.239657 104.193924 
L 740.239657 104.193924 
" clip-path="url(#p23f2b78fee)" style="fill: none; stroke: #1e90ff; stroke-width: 1.5; stroke-linecap: round"/>
   </g>
   <g id="patch_33">
    <path d="M 686.195 104.2 
L 686.195 12.109331 
" style="fill: none; stroke: #cccccc; stroke-width: 0.8; stroke-linejoin: miter; stroke-linecap: square"/>
   </g>
   <g id="patch_34">
    <path d="M 748.44 104.2 
L 748.44 12.109331 
" style="fill: none; stroke: #cccccc; stroke-width: 0.8; stroke-linejoin: miter; stroke-linecap: square"/>
   </g>
   <g id="patch_35">
    <path d="M 686.195 104.2 
L 748.44 104.2 
" style="fill: none; stroke: #cccccc; stroke-width: 0.8; stroke-linejoin: miter; stroke-linecap: square"/>
   </g>
   <g id="patch_36">
    <path d="M 686.195 12.109331 
L 748.44 12.109331 
" style="fill: none; stroke: #cccccc; stroke-width: 0.8; stroke-linejoin: miter; stroke-linecap: square"/>
   </g>
  </g>
  <g id="axes_8">
   <g id="patch_37">
    <path d="M 793.115 104.2 
L 855.36 104.2 
L 855.36 12.109331 
L 793.115 12.109331 
z
" style="fill: #ffffff"/>
   </g>
   <g id="matplotlib.axis_15">
    <g id="xtick_15">
     <g id="line2d_53">
      <path d="M 810.326932 104.2 
L 810.326932 12.109331 
" clip-path="url(#pd9de9acd74)" style="fill: none; stroke: #cccccc; stroke-width: 0.8; stroke-linecap: round"/>
     </g>
     <g id="text_48">
      <!-- 0 -->
      <g style="fill: #262626" transform="translate(807.546463 118.357812)scale(0.1 -0.1)">
       <use xlink:href="#ArialMT-30"/>
      </g>
     </g>
    </g>
    <g id="xtick_16">
     <g id="line2d_54">
      <path d="M 853.933921 104.2 
L 853.933921 12.109331 
" clip-path="url(#pd9de9acd74)" style="fill: none; stroke: #cccccc; stroke-width: 0.8; stroke-linecap: round"/>
     </g>
     <g id="text_49">
      <!-- 5 -->
      <g style="fill: #262626" transform="translate(851.153453 118.357812)scale(0.1 -0.1)">
       <use xlink:href="#ArialMT-35"/>
      </g>
     </g>
    </g>
    <g id="text_50">
     <!-- concave_points1 -->
     <g style="fill: #262626" transform="translate(786.713281 131.532813)scale(0.1 -0.1)">
      <defs>
       <path id="ArialMT-5f" d="M -97 -1272 
L -97 -866 
L 3631 -866 
L 3631 -1272 
L -97 -1272 
z
" transform="scale(0.015625)"/>
      </defs>
      <use xlink:href="#ArialMT-63"/>
      <use xlink:href="#ArialMT-6f" x="50"/>
      <use xlink:href="#ArialMT-6e" x="105.615234"/>
      <use xlink:href="#ArialMT-63" x="161.230469"/>
      <use xlink:href="#ArialMT-61" x="211.230469"/>
      <use xlink:href="#ArialMT-76" x="266.845703"/>
      <use xlink:href="#ArialMT-65" x="316.845703"/>
      <use xlink:href="#ArialMT-5f" x="372.460938"/>
      <use xlink:href="#ArialMT-70" x="428.076172"/>
      <use xlink:href="#ArialMT-6f" x="483.691406"/>
      <use xlink:href="#ArialMT-69" x="539.306641"/>
      <use xlink:href="#ArialMT-6e" x="561.523438"/>
      <use xlink:href="#ArialMT-74" x="617.138672"/>
      <use xlink:href="#ArialMT-73" x="644.921875"/>
      <use xlink:href="#ArialMT-31" x="694.921875"/>
     </g>
    </g>
   </g>
   <g id="matplotlib.axis_16">
    <g id="ytick_25">
     <g id="line2d_55">
      <path d="M 793.115 104.2 
L 855.36 104.2 
" clip-path="url(#pd9de9acd74)" style="fill: none; stroke: #cccccc; stroke-width: 0.8; stroke-linecap: round"/>
     </g>
     <g id="text_51">
      <!-- 0.0 -->
      <g style="fill: #262626" transform="translate(772.215 107.778906)scale(0.1 -0.1)">
       <use xlink:href="#ArialMT-30"/>
       <use xlink:href="#ArialMT-2e" x="55.615234"/>
       <use xlink:href="#ArialMT-30" x="83.398438"/>
      </g>
     </g>
    </g>
    <g id="ytick_26">
     <g id="line2d_56">
      <path d="M 793.115 65.328113 
L 855.36 65.328113 
" clip-path="url(#pd9de9acd74)" style="fill: none; stroke: #cccccc; stroke-width: 0.8; stroke-linecap: round"/>
     </g>
     <g id="text_52">
      <!-- 0.5 -->
      <g style="fill: #262626" transform="translate(772.215 68.907019)scale(0.1 -0.1)">
       <use xlink:href="#ArialMT-30"/>
       <use xlink:href="#ArialMT-2e" x="55.615234"/>
       <use xlink:href="#ArialMT-35" x="83.398438"/>
      </g>
     </g>
    </g>
    <g id="ytick_27">
     <g id="line2d_57">
      <path d="M 793.115 26.456226 
L 855.36 26.456226 
" clip-path="url(#pd9de9acd74)" style="fill: none; stroke: #cccccc; stroke-width: 0.8; stroke-linecap: round"/>
     </g>
     <g id="text_53">
      <!-- 1.0 -->
      <g style="fill: #262626" transform="translate(772.215 30.035133)scale(0.1 -0.1)">
       <use xlink:href="#ArialMT-31"/>
       <use xlink:href="#ArialMT-2e" x="55.615234"/>
       <use xlink:href="#ArialMT-30" x="83.398438"/>
      </g>
     </g>
    </g>
   </g>
   <g id="line2d_58">
    <path d="M 795.944318 104.18827 
L 798.219147 104.057411 
L 799.356561 103.808383 
L 800.209622 103.445393 
L 801.062683 102.865054 
L 801.915743 102.026977 
L 803.053158 100.521945 
L 805.043633 97.305355 
L 807.034108 93.806753 
L 807.887169 91.904109 
L 808.74023 89.511308 
L 809.877644 85.528895 
L 812.436826 76.07936 
L 813.289887 73.751815 
L 814.427301 71.312492 
L 817.555191 65.495992 
L 818.123898 64.88551 
L 818.692605 64.701354 
L 818.976959 64.803499 
L 819.261312 65.047607 
L 819.830019 65.976666 
L 820.398727 67.477979 
L 821.251787 70.631552 
L 822.957909 78.482195 
L 824.095323 83.339332 
L 824.948384 86.289502 
L 825.801445 88.594417 
L 826.654505 90.356079 
L 827.79192 92.121083 
L 828.929334 93.468775 
L 830.066749 94.517754 
L 831.488516 95.523333 
L 833.194638 96.709545 
L 834.616406 98.019852 
L 837.175588 100.519383 
L 838.028649 101.069356 
L 838.88171 101.4164 
L 840.019124 101.644237 
L 842.293953 101.994761 
L 843.715721 102.455764 
L 847.127964 103.700879 
L 848.834085 104.023761 
L 851.108914 104.173647 
L 852.530682 104.194215 
L 852.530682 104.194215 
" clip-path="url(#pd9de9acd74)" style="fill: none; stroke: #ff4500; stroke-width: 1.5; stroke-linecap: round"/>
   </g>
   <g id="line2d_59">
    <path d="M 796.008281 104.089175 
L 796.397613 103.891543 
L 796.786945 103.435518 
L 797.176277 102.508296 
L 797.565609 100.845411 
L 797.954941 98.210032 
L 798.474051 93.049593 
L 799.382492 80.961699 
L 802.367371 37.674913 
L 803.40559 22.438924 
L 803.924699 17.84741 
L 804.184254 16.737472 
L 804.443809 16.494326 
L 804.573586 16.703055 
L 804.833141 17.778684 
L 805.222473 21.004373 
L 805.741582 28.121273 
L 806.520246 43.184165 
L 807.558465 63.213121 
L 808.207352 71.699743 
L 808.856238 77.168087 
L 809.634902 81.714854 
L 810.802898 87.193398 
L 811.71134 90.494388 
L 812.879336 93.862908 
L 814.047332 96.482901 
L 815.864215 100.003169 
L 816.772656 101.262341 
L 817.940652 102.467699 
L 819.238426 103.478087 
L 820.146867 103.947381 
L 821.055308 104.149404 
L 821.833972 104.192305 
L 821.833972 104.192305 
" clip-path="url(#pd9de9acd74)" style="fill: none; stroke: #1e90ff; stroke-width: 1.5; stroke-linecap: round"/>
   </g>
   <g id="patch_38">
    <path d="M 793.115 104.2 
L 793.115 12.109331 
" style="fill: none; stroke: #cccccc; stroke-width: 0.8; stroke-linejoin: miter; stroke-linecap: square"/>
   </g>
   <g id="patch_39">
    <path d="M 855.36 104.2 
L 855.36 12.109331 
" style="fill: none; stroke: #cccccc; stroke-width: 0.8; stroke-linejoin: miter; stroke-linecap: square"/>
   </g>
   <g id="patch_40">
    <path d="M 793.115 104.2 
L 855.36 104.2 
" style="fill: none; stroke: #cccccc; stroke-width: 0.8; stroke-linejoin: miter; stroke-linecap: square"/>
   </g>
   <g id="patch_41">
    <path d="M 793.115 12.109331 
L 855.36 12.109331 
" style="fill: none; stroke: #cccccc; stroke-width: 0.8; stroke-linejoin: miter; stroke-linecap: square"/>
   </g>
  </g>
  <g id="axes_9">
   <g id="patch_42">
    <path d="M 900.035 104.2 
L 962.28 104.2 
L 962.28 12.109331 
L 900.035 12.109331 
z
" style="fill: #ffffff"/>
   </g>
   <g id="matplotlib.axis_17">
    <g id="xtick_17">
     <g id="line2d_60">
      <path d="M 925.131854 104.2 
L 925.131854 12.109331 
" clip-path="url(#p3c70d81e7a)" style="fill: none; stroke: #cccccc; stroke-width: 0.8; stroke-linecap: round"/>
     </g>
     <g id="text_54">
      <!-- 0 -->
      <g style="fill: #262626" transform="translate(922.351385 118.357812)scale(0.1 -0.1)">
       <use xlink:href="#ArialMT-30"/>
      </g>
     </g>
    </g>
    <g id="xtick_18">
     <g id="line2d_61">
      <path d="M 956.208047 104.2 
L 956.208047 12.109331 
" clip-path="url(#p3c70d81e7a)" style="fill: none; stroke: #cccccc; stroke-width: 0.8; stroke-linecap: round"/>
     </g>
     <g id="text_55">
      <!-- 5 -->
      <g style="fill: #262626" transform="translate(953.427578 118.357812)scale(0.1 -0.1)">
       <use xlink:href="#ArialMT-35"/>
      </g>
     </g>
    </g>
    <g id="text_56">
     <!-- symmetry1 -->
     <g style="fill: #262626" transform="translate(906.712969 131.532813)scale(0.1 -0.1)">
      <use xlink:href="#ArialMT-73"/>
      <use xlink:href="#ArialMT-79" x="50"/>
      <use xlink:href="#ArialMT-6d" x="100"/>
      <use xlink:href="#ArialMT-6d" x="183.300781"/>
      <use xlink:href="#ArialMT-65" x="266.601562"/>
      <use xlink:href="#ArialMT-74" x="322.216797"/>
      <use xlink:href="#ArialMT-72" x="350"/>
      <use xlink:href="#ArialMT-79" x="383.300781"/>
      <use xlink:href="#ArialMT-31" x="433.300781"/>
     </g>
    </g>
   </g>
   <g id="matplotlib.axis_18">
    <g id="ytick_28">
     <g id="line2d_62">
      <path d="M 900.035 104.2 
L 962.28 104.2 
" clip-path="url(#p3c70d81e7a)" style="fill: none; stroke: #cccccc; stroke-width: 0.8; stroke-linecap: round"/>
     </g>
     <g id="text_57">
      <!-- 0.0 -->
      <g style="fill: #262626" transform="translate(879.135 107.778906)scale(0.1 -0.1)">
       <use xlink:href="#ArialMT-30"/>
       <use xlink:href="#ArialMT-2e" x="55.615234"/>
       <use xlink:href="#ArialMT-30" x="83.398438"/>
      </g>
     </g>
    </g>
    <g id="ytick_29">
     <g id="line2d_63">
      <path d="M 900.035 65.856166 
L 962.28 65.856166 
" clip-path="url(#p3c70d81e7a)" style="fill: none; stroke: #cccccc; stroke-width: 0.8; stroke-linecap: round"/>
     </g>
     <g id="text_58">
      <!-- 0.2 -->
      <g style="fill: #262626" transform="translate(879.135 69.435073)scale(0.1 -0.1)">
       <use xlink:href="#ArialMT-30"/>
       <use xlink:href="#ArialMT-2e" x="55.615234"/>
       <use xlink:href="#ArialMT-32" x="83.398438"/>
      </g>
     </g>
    </g>
    <g id="ytick_30">
     <g id="line2d_64">
      <path d="M 900.035 27.512333 
L 962.28 27.512333 
" clip-path="url(#p3c70d81e7a)" style="fill: none; stroke: #cccccc; stroke-width: 0.8; stroke-linecap: round"/>
     </g>
     <g id="text_59">
      <!-- 0.4 -->
      <g style="fill: #262626" transform="translate(879.135 31.091239)scale(0.1 -0.1)">
       <use xlink:href="#ArialMT-30"/>
       <use xlink:href="#ArialMT-2e" x="55.615234"/>
       <use xlink:href="#ArialMT-34" x="83.398438"/>
      </g>
     </g>
    </g>
   </g>
   <g id="line2d_65">
    <path d="M 907.258968 104.188199 
L 909.357128 104.055302 
L 910.668477 103.743607 
L 911.717557 103.242988 
L 912.504367 102.639125 
L 913.291176 101.72075 
L 914.077986 100.296226 
L 914.602526 98.93566 
L 915.389336 96.068381 
L 916.176145 92.024477 
L 916.962955 86.784773 
L 918.274305 76.236146 
L 920.110194 61.595305 
L 923.257433 37.922805 
L 924.306513 30.341256 
L 925.093323 26.29366 
L 925.617862 24.737902 
L 925.880132 24.34377 
L 926.142402 24.212429 
L 926.404672 24.342993 
L 926.666942 24.729639 
L 927.191482 26.22269 
L 927.716022 28.543797 
L 928.765101 34.718728 
L 930.076451 42.516443 
L 931.125531 47.477219 
L 932.43688 53.715711 
L 933.22369 58.612919 
L 934.53504 68.548244 
L 935.846389 78.013214 
L 936.633199 82.427061 
L 937.420009 85.841627 
L 938.469088 89.305066 
L 939.518168 92.029573 
L 940.567248 94.177033 
L 941.616327 95.782941 
L 946.337186 101.75458 
L 947.123996 102.385818 
L 947.910805 102.72002 
L 948.697615 102.804804 
L 950.271235 102.635965 
L 951.582584 102.565024 
L 952.893934 102.744377 
L 954.467553 103.255835 
L 956.565713 103.926273 
L 958.139332 104.139183 
L 959.450682 104.188344 
L 959.450682 104.188344 
" clip-path="url(#p3c70d81e7a)" style="fill: none; stroke: #ff4500; stroke-width: 1.5; stroke-linecap: round"/>
   </g>
   <g id="line2d_66">
    <path d="M 902.864318 104.191428 
L 904.818656 104.062875 
L 906.040117 103.76984 
L 907.261578 103.260284 
L 908.48304 102.517354 
L 909.460209 101.62615 
L 910.193085 100.700267 
L 910.925962 99.471538 
L 911.658839 97.740686 
L 912.391715 95.150094 
L 913.124592 91.346489 
L 913.857469 86.253504 
L 915.07893 75.76456 
L 916.788976 59.151613 
L 920.453359 21.658787 
L 920.941944 18.733221 
L 921.430528 16.983149 
L 921.67482 16.581436 
L 921.919113 16.494196 
L 922.163405 16.70788 
L 922.651989 17.935342 
L 923.384866 21.201896 
L 925.339204 30.978429 
L 927.049249 38.536517 
L 927.782126 43.112902 
L 928.515003 49.02328 
L 929.736464 61.220163 
L 931.44651 78.397172 
L 932.423679 86.043932 
L 933.400848 91.704131 
L 934.133724 94.757819 
L 934.866601 96.912121 
L 935.599478 98.269782 
L 936.088062 98.801201 
L 936.820939 99.206621 
L 940.729615 100.289813 
L 941.706784 100.519976 
L 942.43966 100.920155 
L 943.905414 102.153643 
L 944.882583 102.79404 
L 945.859752 103.138474 
L 950.257012 104.145086 
L 951.478473 104.191482 
L 951.478473 104.191482 
" clip-path="url(#p3c70d81e7a)" style="fill: none; stroke: #1e90ff; stroke-width: 1.5; stroke-linecap: round"/>
   </g>
   <g id="patch_43">
    <path d="M 900.035 104.2 
L 900.035 12.109331 
" style="fill: none; stroke: #cccccc; stroke-width: 0.8; stroke-linejoin: miter; stroke-linecap: square"/>
   </g>
   <g id="patch_44">
    <path d="M 962.28 104.2 
L 962.28 12.109331 
" style="fill: none; stroke: #cccccc; stroke-width: 0.8; stroke-linejoin: miter; stroke-linecap: square"/>
   </g>
   <g id="patch_45">
    <path d="M 900.035 104.2 
L 962.28 104.2 
" style="fill: none; stroke: #cccccc; stroke-width: 0.8; stroke-linejoin: miter; stroke-linecap: square"/>
   </g>
   <g id="patch_46">
    <path d="M 900.035 12.109331 
L 962.28 12.109331 
" style="fill: none; stroke: #cccccc; stroke-width: 0.8; stroke-linejoin: miter; stroke-linecap: square"/>
   </g>
  </g>
  <g id="axes_10">
   <g id="patch_47">
    <path d="M 1006.955 104.2 
L 1069.2 104.2 
L 1069.2 12.109331 
L 1006.955 12.109331 
z
" style="fill: #ffffff"/>
   </g>
   <g id="matplotlib.axis_19">
    <g id="xtick_19">
     <g id="line2d_67">
      <path d="M 1028.29212 104.2 
L 1028.29212 12.109331 
" clip-path="url(#p2d058fe9ff)" style="fill: none; stroke: #cccccc; stroke-width: 0.8; stroke-linecap: round"/>
     </g>
     <g id="text_60">
      <!-- 0 -->
      <g style="fill: #262626" transform="translate(1025.511652 118.357812)scale(0.1 -0.1)">
       <use xlink:href="#ArialMT-30"/>
      </g>
     </g>
    </g>
    <g id="xtick_20">
     <g id="line2d_68">
      <path d="M 1059.949212 104.2 
L 1059.949212 12.109331 
" clip-path="url(#p2d058fe9ff)" style="fill: none; stroke: #cccccc; stroke-width: 0.8; stroke-linecap: round"/>
     </g>
     <g id="text_61">
      <!-- 5 -->
      <g style="fill: #262626" transform="translate(1057.168743 118.357812)scale(0.1 -0.1)">
       <use xlink:href="#ArialMT-35"/>
      </g>
     </g>
    </g>
    <g id="text_62">
     <!-- fractal_dimension1 -->
     <g style="fill: #262626" transform="translate(996.112656 131.625)scale(0.1 -0.1)">
      <defs>
       <path id="ArialMT-66" d="M 556 0 
L 556 2881 
L 59 2881 
L 59 3319 
L 556 3319 
L 556 3672 
Q 556 4006 616 4169 
Q 697 4388 901 4523 
Q 1106 4659 1475 4659 
Q 1713 4659 2000 4603 
L 1916 4113 
Q 1741 4144 1584 4144 
Q 1328 4144 1222 4034 
Q 1116 3925 1116 3625 
L 1116 3319 
L 1763 3319 
L 1763 2881 
L 1116 2881 
L 1116 0 
L 556 0 
z
" transform="scale(0.015625)"/>
       <path id="ArialMT-6c" d="M 409 0 
L 409 4581 
L 972 4581 
L 972 0 
L 409 0 
z
" transform="scale(0.015625)"/>
      </defs>
      <use xlink:href="#ArialMT-66"/>
      <use xlink:href="#ArialMT-72" x="27.783203"/>
      <use xlink:href="#ArialMT-61" x="61.083984"/>
      <use xlink:href="#ArialMT-63" x="116.699219"/>
      <use xlink:href="#ArialMT-74" x="166.699219"/>
      <use xlink:href="#ArialMT-61" x="194.482422"/>
      <use xlink:href="#ArialMT-6c" x="250.097656"/>
      <use xlink:href="#ArialMT-5f" x="272.314453"/>
      <use xlink:href="#ArialMT-64" x="327.929688"/>
      <use xlink:href="#ArialMT-69" x="383.544922"/>
      <use xlink:href="#ArialMT-6d" x="405.761719"/>
      <use xlink:href="#ArialMT-65" x="489.0625"/>
      <use xlink:href="#ArialMT-6e" x="544.677734"/>
      <use xlink:href="#ArialMT-73" x="600.292969"/>
      <use xlink:href="#ArialMT-69" x="650.292969"/>
      <use xlink:href="#ArialMT-6f" x="672.509766"/>
      <use xlink:href="#ArialMT-6e" x="728.125"/>
      <use xlink:href="#ArialMT-31" x="783.740234"/>
     </g>
    </g>
   </g>
   <g id="matplotlib.axis_20">
    <g id="ytick_31">
     <g id="line2d_69">
      <path d="M 1006.955 104.2 
L 1069.2 104.2 
" clip-path="url(#p2d058fe9ff)" style="fill: none; stroke: #cccccc; stroke-width: 0.8; stroke-linecap: round"/>
     </g>
     <g id="text_63">
      <!-- 0.0 -->
      <g style="fill: #262626" transform="translate(986.055 107.778906)scale(0.1 -0.1)">
       <use xlink:href="#ArialMT-30"/>
       <use xlink:href="#ArialMT-2e" x="55.615234"/>
       <use xlink:href="#ArialMT-30" x="83.398438"/>
      </g>
     </g>
    </g>
    <g id="ytick_32">
     <g id="line2d_70">
      <path d="M 1006.955 69.090773 
L 1069.2 69.090773 
" clip-path="url(#p2d058fe9ff)" style="fill: none; stroke: #cccccc; stroke-width: 0.8; stroke-linecap: round"/>
     </g>
     <g id="text_64">
      <!-- 0.2 -->
      <g style="fill: #262626" transform="translate(986.055 72.66968)scale(0.1 -0.1)">
       <use xlink:href="#ArialMT-30"/>
       <use xlink:href="#ArialMT-2e" x="55.615234"/>
       <use xlink:href="#ArialMT-32" x="83.398438"/>
      </g>
     </g>
    </g>
    <g id="ytick_33">
     <g id="line2d_71">
      <path d="M 1006.955 33.981547 
L 1069.2 33.981547 
" clip-path="url(#p2d058fe9ff)" style="fill: none; stroke: #cccccc; stroke-width: 0.8; stroke-linecap: round"/>
     </g>
     <g id="text_65">
      <!-- 0.4 -->
      <g style="fill: #262626" transform="translate(986.055 37.560453)scale(0.1 -0.1)">
       <use xlink:href="#ArialMT-30"/>
       <use xlink:href="#ArialMT-2e" x="55.615234"/>
       <use xlink:href="#ArialMT-34" x="83.398438"/>
      </g>
     </g>
    </g>
   </g>
   <g id="line2d_72">
    <path d="M 1009.784318 104.158646 
L 1011.206086 103.954683 
L 1012.059147 103.59171 
L 1012.627854 103.154266 
L 1013.196561 102.487261 
L 1013.765268 101.520572 
L 1014.333976 100.183921 
L 1014.902683 98.412523 
L 1015.755743 94.821661 
L 1016.608804 89.990417 
L 1017.461865 83.860529 
L 1018.599279 73.894727 
L 1020.874108 53.222049 
L 1021.727169 47.870953 
L 1022.295876 45.3913 
L 1022.864583 43.641035 
L 1023.717644 41.85228 
L 1025.708119 38.564115 
L 1026.276826 38.062817 
L 1026.56118 38.023695 
L 1026.845533 38.164928 
L 1027.129887 38.508515 
L 1027.698594 39.847223 
L 1028.267301 42.031137 
L 1029.120362 46.526421 
L 1031.679544 61.234501 
L 1033.101312 67.572409 
L 1034.52308 72.856686 
L 1035.660495 76.179589 
L 1036.797909 78.692919 
L 1038.50403 82.201048 
L 1039.641445 85.18958 
L 1043.053688 94.912755 
L 1044.191102 97.262865 
L 1045.61287 99.643273 
L 1047.034638 101.5899 
L 1048.172052 102.770613 
L 1049.025113 103.387539 
L 1049.878174 103.785256 
L 1051.015588 104.057253 
L 1052.72171 104.166213 
L 1054.712185 104.07915 
L 1056.418306 103.80107 
L 1058.977489 103.315426 
L 1060.114903 103.344802 
L 1061.821024 103.680285 
L 1063.8115 104.052523 
L 1065.801975 104.179848 
L 1066.370682 104.190021 
L 1066.370682 104.190021 
" clip-path="url(#p2d058fe9ff)" style="fill: none; stroke: #ff4500; stroke-width: 1.5; stroke-linecap: round"/>
   </g>
   <g id="line2d_73">
    <path d="M 1012.858563 104.175782 
L 1014.130356 104.01467 
L 1014.893433 103.682692 
L 1015.40215 103.25052 
L 1015.910867 102.556255 
L 1016.419585 101.506513 
L 1016.928302 100.00464 
L 1017.43702 97.957838 
L 1018.200096 93.680153 
L 1018.963172 87.723993 
L 1019.726248 79.894833 
L 1020.743683 66.633299 
L 1023.28727 30.5592 
L 1024.050346 23.22709 
L 1024.559064 19.827323 
L 1025.067781 17.63724 
L 1025.576498 16.605114 
L 1025.830857 16.494132 
L 1026.085216 16.632796 
L 1026.339574 17.003435 
L 1026.848292 18.364146 
L 1027.357009 20.421038 
L 1028.120085 24.509493 
L 1029.13752 31.376621 
L 1030.409314 41.838253 
L 1033.20726 66.09181 
L 1034.479053 74.512609 
L 1035.750847 81.449276 
L 1037.276999 88.487186 
L 1038.294434 92.429564 
L 1039.05751 94.687134 
L 1039.820586 96.153369 
L 1040.329303 96.727414 
L 1041.09238 97.2208 
L 1042.364173 97.975456 
L 1043.381608 98.952513 
L 1045.416478 101.051139 
L 1046.433912 101.803931 
L 1047.451347 102.335658 
L 1048.468782 102.666994 
L 1049.740576 102.841003 
L 1053.301598 102.912559 
L 1054.573391 102.785716 
L 1056.86262 102.443451 
L 1057.625696 102.556503 
L 1058.643131 102.948484 
L 1060.678 103.854334 
L 1061.949794 104.110603 
L 1063.475946 104.190139 
L 1063.475946 104.190139 
" clip-path="url(#p2d058fe9ff)" style="fill: none; stroke: #1e90ff; stroke-width: 1.5; stroke-linecap: round"/>
   </g>
   <g id="patch_48">
    <path d="M 1006.955 104.2 
L 1006.955 12.109331 
" style="fill: none; stroke: #cccccc; stroke-width: 0.8; stroke-linejoin: miter; stroke-linecap: square"/>
   </g>
   <g id="patch_49">
    <path d="M 1069.2 104.2 
L 1069.2 12.109331 
" style="fill: none; stroke: #cccccc; stroke-width: 0.8; stroke-linejoin: miter; stroke-linecap: square"/>
   </g>
   <g id="patch_50">
    <path d="M 1006.955 104.2 
L 1069.2 104.2 
" style="fill: none; stroke: #cccccc; stroke-width: 0.8; stroke-linejoin: miter; stroke-linecap: square"/>
   </g>
   <g id="patch_51">
    <path d="M 1006.955 12.109331 
L 1069.2 12.109331 
" style="fill: none; stroke: #cccccc; stroke-width: 0.8; stroke-linejoin: miter; stroke-linecap: square"/>
   </g>
   <g id="legend_1">
    <g id="patch_52">
     <path d="M 1021.870312 48.399956 
L 1062.2 48.399956 
Q 1064.2 48.399956 1064.2 46.399956 
L 1064.2 19.109331 
Q 1064.2 17.109331 1062.2 17.109331 
L 1021.870312 17.109331 
Q 1019.870312 17.109331 1019.870312 19.109331 
L 1019.870312 46.399956 
Q 1019.870312 48.399956 1021.870312 48.399956 
z
" style="fill: #ffffff; opacity: 0.8; stroke: #cccccc; stroke-linejoin: miter"/>
    </g>
    <g id="line2d_74">
     <path d="M 1023.870312 24.767144 
L 1033.870312 24.767144 
L 1043.870312 24.767144 
" style="fill: none; stroke: #ff4500; stroke-width: 1.5; stroke-linecap: round"/>
    </g>
    <g id="text_66">
     <!-- M -->
     <g style="fill: #262626" transform="translate(1051.870312 28.267144)scale(0.1 -0.1)">
      <defs>
       <path id="ArialMT-4d" d="M 475 0 
L 475 4581 
L 1388 4581 
L 2472 1338 
Q 2622 884 2691 659 
Q 2769 909 2934 1394 
L 4031 4581 
L 4847 4581 
L 4847 0 
L 4263 0 
L 4263 3834 
L 2931 0 
L 2384 0 
L 1059 3900 
L 1059 0 
L 475 0 
z
" transform="scale(0.015625)"/>
      </defs>
      <use xlink:href="#ArialMT-4d"/>
     </g>
    </g>
    <g id="line2d_75">
     <path d="M 1023.870312 38.912456 
L 1033.870312 38.912456 
L 1043.870312 38.912456 
" style="fill: none; stroke: #1e90ff; stroke-width: 1.5; stroke-linecap: round"/>
    </g>
    <g id="text_67">
     <!-- B -->
     <g style="fill: #262626" transform="translate(1051.870312 42.412456)scale(0.1 -0.1)">
      <defs>
       <path id="ArialMT-42" d="M 469 0 
L 469 4581 
L 2188 4581 
Q 2713 4581 3030 4442 
Q 3347 4303 3526 4014 
Q 3706 3725 3706 3409 
Q 3706 3116 3547 2856 
Q 3388 2597 3066 2438 
Q 3481 2316 3704 2022 
Q 3928 1728 3928 1328 
Q 3928 1006 3792 729 
Q 3656 453 3456 303 
Q 3256 153 2954 76 
Q 2653 0 2216 0 
L 469 0 
z
M 1075 2656 
L 2066 2656 
Q 2469 2656 2644 2709 
Q 2875 2778 2992 2937 
Q 3109 3097 3109 3338 
Q 3109 3566 3000 3739 
Q 2891 3913 2687 3977 
Q 2484 4041 1991 4041 
L 1075 4041 
L 1075 2656 
z
M 1075 541 
L 2216 541 
Q 2509 541 2628 563 
Q 2838 600 2978 687 
Q 3119 775 3209 942 
Q 3300 1109 3300 1328 
Q 3300 1584 3169 1773 
Q 3038 1963 2805 2039 
Q 2572 2116 2134 2116 
L 1075 2116 
L 1075 541 
z
" transform="scale(0.015625)"/>
      </defs>
      <use xlink:href="#ArialMT-42"/>
     </g>
    </g>
   </g>
  </g>
 </g>
 <defs>
  <clipPath id="pd55c7fa936">
   <rect x="44.675" y="12.109331" width="62.245" height="92.090669"/>
  </clipPath>
  <clipPath id="pe2a19948e9">
   <rect x="151.595" y="12.109331" width="62.245" height="92.090669"/>
  </clipPath>
  <clipPath id="p3666b51fbc">
   <rect x="258.515" y="12.109331" width="62.245" height="92.090669"/>
  </clipPath>
  <clipPath id="p50a6b068e5">
   <rect x="365.435" y="12.109331" width="62.245" height="92.090669"/>
  </clipPath>
  <clipPath id="pae1719c072">
   <rect x="472.355" y="12.109331" width="62.245" height="92.090669"/>
  </clipPath>
  <clipPath id="p2334f92c5c">
   <rect x="579.275" y="12.109331" width="62.245" height="92.090669"/>
  </clipPath>
  <clipPath id="p23f2b78fee">
   <rect x="686.195" y="12.109331" width="62.245" height="92.090669"/>
  </clipPath>
  <clipPath id="pd9de9acd74">
   <rect x="793.115" y="12.109331" width="62.245" height="92.090669"/>
  </clipPath>
  <clipPath id="p3c70d81e7a">
   <rect x="900.035" y="12.109331" width="62.245" height="92.090669"/>
  </clipPath>
  <clipPath id="p2d058fe9ff">
   <rect x="1006.955" y="12.109331" width="62.245" height="92.090669"/>
  </clipPath>
 </defs>
</svg>
