<?xml version="1.0" encoding="utf-8" standalone="no"?>
<!DOCTYPE svg PUBLIC "-//W3C//DTD SVG 1.1//EN"
  "http://www.w3.org/Graphics/SVG/1.1/DTD/svg11.dtd">
<svg xmlns:xlink="http://www.w3.org/1999/xlink" width="1080pt" height="144pt" viewBox="0 0 1080 144" xmlns="http://www.w3.org/2000/svg" version="1.1">
 <metadata>
  <rdf:RDF xmlns:dc="http://purl.org/dc/elements/1.1/" xmlns:cc="http://creativecommons.org/ns#" xmlns:rdf="http://www.w3.org/1999/02/22-rdf-syntax-ns#">
   <cc:Work>
    <dc:type rdf:resource="http://purl.org/dc/dcmitype/StillImage"/>
    <dc:date>2024-01-24T22:37:00.642046</dc:date>
    <dc:format>image/svg+xml</dc:format>
    <dc:creator>
     <cc:Agent>
      <dc:title>Matplotlib v3.5.3, https://matplotlib.org/</dc:title>
     </cc:Agent>
    </dc:creator>
   </cc:Work>
  </rdf:RDF>
 </metadata>
 <defs>
  <style type="text/css">*{stroke-linejoin: round; stroke-linecap: butt}</style>
 </defs>
 <g id="figure_1">
  <g id="patch_1">
   <path d="M 0 144 
L 1080 144 
L 1080 0 
L 0 0 
z
" style="fill: #ffffff"/>
  </g>
  <g id="axes_1">
   <g id="patch_2">
    <path d="M 44.675 104.2 
L 113.315459 104.2 
L 113.315459 12.109331 
L 44.675 12.109331 
z
" style="fill: #ffffff"/>
   </g>
   <g id="matplotlib.axis_1">
    <g id="xtick_1">
     <g id="line2d_1">
      <path d="M 68.846145 104.2 
L 68.846145 12.109331 
" clip-path="url(#p9b5fd3dcd4)" style="fill: none; stroke: #cccccc; stroke-width: 0.8; stroke-linecap: round"/>
     </g>
     <g id="text_1">
      <!-- 0 -->
      <g style="fill: #262626" transform="translate(66.065676 118.357812)scale(0.1 -0.1)">
       <defs>
        <path id="ArialMT-30" d="M 266 2259 
Q 266 3072 433 3567 
Q 600 4063 929 4331 
Q 1259 4600 1759 4600 
Q 2128 4600 2406 4451 
Q 2684 4303 2865 4023 
Q 3047 3744 3150 3342 
Q 3253 2941 3253 2259 
Q 3253 1453 3087 958 
Q 2922 463 2592 192 
Q 2263 -78 1759 -78 
Q 1097 -78 719 397 
Q 266 969 266 2259 
z
M 844 2259 
Q 844 1131 1108 757 
Q 1372 384 1759 384 
Q 2147 384 2411 759 
Q 2675 1134 2675 2259 
Q 2675 3391 2411 3762 
Q 2147 4134 1753 4134 
Q 1366 4134 1134 3806 
Q 844 3388 844 2259 
z
" transform="scale(0.015625)"/>
       </defs>
       <use xlink:href="#ArialMT-30"/>
      </g>
     </g>
    </g>
    <g id="xtick_2">
     <g id="line2d_2">
      <path d="M 110.983914 104.2 
L 110.983914 12.109331 
" clip-path="url(#p9b5fd3dcd4)" style="fill: none; stroke: #cccccc; stroke-width: 0.8; stroke-linecap: round"/>
     </g>
     <g id="text_2">
      <!-- 5 -->
      <g style="fill: #262626" transform="translate(108.203445 118.357812)scale(0.1 -0.1)">
       <defs>
        <path id="ArialMT-35" d="M 266 1200 
L 856 1250 
Q 922 819 1161 601 
Q 1400 384 1738 384 
Q 2144 384 2425 690 
Q 2706 997 2706 1503 
Q 2706 1984 2436 2262 
Q 2166 2541 1728 2541 
Q 1456 2541 1237 2417 
Q 1019 2294 894 2097 
L 366 2166 
L 809 4519 
L 3088 4519 
L 3088 3981 
L 1259 3981 
L 1013 2750 
Q 1425 3038 1878 3038 
Q 2478 3038 2890 2622 
Q 3303 2206 3303 1553 
Q 3303 931 2941 478 
Q 2500 -78 1738 -78 
Q 1113 -78 717 272 
Q 322 622 266 1200 
z
" transform="scale(0.015625)"/>
       </defs>
       <use xlink:href="#ArialMT-35"/>
      </g>
     </g>
    </g>
    <g id="text_3">
     <!-- radius1 -->
     <g style="fill: #262626" transform="translate(62.597573 131.503125)scale(0.1 -0.1)">
      <defs>
       <path id="ArialMT-72" d="M 416 0 
L 416 3319 
L 922 3319 
L 922 2816 
Q 1116 3169 1280 3281 
Q 1444 3394 1641 3394 
Q 1925 3394 2219 3213 
L 2025 2691 
Q 1819 2813 1613 2813 
Q 1428 2813 1281 2702 
Q 1134 2591 1072 2394 
Q 978 2094 978 1738 
L 978 0 
L 416 0 
z
" transform="scale(0.015625)"/>
       <path id="ArialMT-61" d="M 2588 409 
Q 2275 144 1986 34 
Q 1697 -75 1366 -75 
Q 819 -75 525 192 
Q 231 459 231 875 
Q 231 1119 342 1320 
Q 453 1522 633 1644 
Q 813 1766 1038 1828 
Q 1203 1872 1538 1913 
Q 2219 1994 2541 2106 
Q 2544 2222 2544 2253 
Q 2544 2597 2384 2738 
Q 2169 2928 1744 2928 
Q 1347 2928 1158 2789 
Q 969 2650 878 2297 
L 328 2372 
Q 403 2725 575 2942 
Q 747 3159 1072 3276 
Q 1397 3394 1825 3394 
Q 2250 3394 2515 3294 
Q 2781 3194 2906 3042 
Q 3031 2891 3081 2659 
Q 3109 2516 3109 2141 
L 3109 1391 
Q 3109 606 3145 398 
Q 3181 191 3288 0 
L 2700 0 
Q 2613 175 2588 409 
z
M 2541 1666 
Q 2234 1541 1622 1453 
Q 1275 1403 1131 1340 
Q 988 1278 909 1158 
Q 831 1038 831 891 
Q 831 666 1001 516 
Q 1172 366 1500 366 
Q 1825 366 2078 508 
Q 2331 650 2450 897 
Q 2541 1088 2541 1459 
L 2541 1666 
z
" transform="scale(0.015625)"/>
       <path id="ArialMT-64" d="M 2575 0 
L 2575 419 
Q 2259 -75 1647 -75 
Q 1250 -75 917 144 
Q 584 363 401 755 
Q 219 1147 219 1656 
Q 219 2153 384 2558 
Q 550 2963 881 3178 
Q 1213 3394 1622 3394 
Q 1922 3394 2156 3267 
Q 2391 3141 2538 2938 
L 2538 4581 
L 3097 4581 
L 3097 0 
L 2575 0 
z
M 797 1656 
Q 797 1019 1065 703 
Q 1334 388 1700 388 
Q 2069 388 2326 689 
Q 2584 991 2584 1609 
Q 2584 2291 2321 2609 
Q 2059 2928 1675 2928 
Q 1300 2928 1048 2622 
Q 797 2316 797 1656 
z
" transform="scale(0.015625)"/>
       <path id="ArialMT-69" d="M 425 3934 
L 425 4581 
L 988 4581 
L 988 3934 
L 425 3934 
z
M 425 0 
L 425 3319 
L 988 3319 
L 988 0 
L 425 0 
z
" transform="scale(0.015625)"/>
       <path id="ArialMT-75" d="M 2597 0 
L 2597 488 
Q 2209 -75 1544 -75 
Q 1250 -75 995 37 
Q 741 150 617 320 
Q 494 491 444 738 
Q 409 903 409 1263 
L 409 3319 
L 972 3319 
L 972 1478 
Q 972 1038 1006 884 
Q 1059 663 1231 536 
Q 1403 409 1656 409 
Q 1909 409 2131 539 
Q 2353 669 2445 892 
Q 2538 1116 2538 1541 
L 2538 3319 
L 3100 3319 
L 3100 0 
L 2597 0 
z
" transform="scale(0.015625)"/>
       <path id="ArialMT-73" d="M 197 991 
L 753 1078 
Q 800 744 1014 566 
Q 1228 388 1613 388 
Q 2000 388 2187 545 
Q 2375 703 2375 916 
Q 2375 1106 2209 1216 
Q 2094 1291 1634 1406 
Q 1016 1563 777 1677 
Q 538 1791 414 1992 
Q 291 2194 291 2438 
Q 291 2659 392 2848 
Q 494 3038 669 3163 
Q 800 3259 1026 3326 
Q 1253 3394 1513 3394 
Q 1903 3394 2198 3281 
Q 2494 3169 2634 2976 
Q 2775 2784 2828 2463 
L 2278 2388 
Q 2241 2644 2061 2787 
Q 1881 2931 1553 2931 
Q 1166 2931 1000 2803 
Q 834 2675 834 2503 
Q 834 2394 903 2306 
Q 972 2216 1119 2156 
Q 1203 2125 1616 2013 
Q 2213 1853 2448 1751 
Q 2684 1650 2818 1456 
Q 2953 1263 2953 975 
Q 2953 694 2789 445 
Q 2625 197 2315 61 
Q 2006 -75 1616 -75 
Q 969 -75 630 194 
Q 291 463 197 991 
z
" transform="scale(0.015625)"/>
       <path id="ArialMT-31" d="M 2384 0 
L 1822 0 
L 1822 3584 
Q 1619 3391 1289 3197 
Q 959 3003 697 2906 
L 697 3450 
Q 1169 3672 1522 3987 
Q 1875 4303 2022 4600 
L 2384 4600 
L 2384 0 
z
" transform="scale(0.015625)"/>
      </defs>
      <use xlink:href="#ArialMT-72"/>
      <use xlink:href="#ArialMT-61" x="33.300781"/>
      <use xlink:href="#ArialMT-64" x="88.916016"/>
      <use xlink:href="#ArialMT-69" x="144.53125"/>
      <use xlink:href="#ArialMT-75" x="166.748047"/>
      <use xlink:href="#ArialMT-73" x="222.363281"/>
      <use xlink:href="#ArialMT-31" x="272.363281"/>
     </g>
    </g>
   </g>
   <g id="matplotlib.axis_2">
    <g id="ytick_1">
     <g id="line2d_3">
      <path d="M 44.675 104.2 
L 113.315459 104.2 
" clip-path="url(#p9b5fd3dcd4)" style="fill: none; stroke: #cccccc; stroke-width: 0.8; stroke-linecap: round"/>
     </g>
     <g id="text_4">
      <!-- 0.00 -->
      <g style="fill: #262626" transform="translate(18.214062 107.778906)scale(0.1 -0.1)">
       <defs>
        <path id="ArialMT-2e" d="M 581 0 
L 581 641 
L 1222 641 
L 1222 0 
L 581 0 
z
" transform="scale(0.015625)"/>
       </defs>
       <use xlink:href="#ArialMT-30"/>
       <use xlink:href="#ArialMT-2e" x="55.615234"/>
       <use xlink:href="#ArialMT-30" x="83.398438"/>
       <use xlink:href="#ArialMT-30" x="139.013672"/>
      </g>
     </g>
    </g>
    <g id="ytick_2">
     <g id="line2d_4">
      <path d="M 44.675 76.001539 
L 113.315459 76.001539 
" clip-path="url(#p9b5fd3dcd4)" style="fill: none; stroke: #cccccc; stroke-width: 0.8; stroke-linecap: round"/>
     </g>
     <g id="text_5">
      <!-- 0.25 -->
      <g style="fill: #262626" transform="translate(18.214062 79.580445)scale(0.1 -0.1)">
       <defs>
        <path id="ArialMT-32" d="M 3222 541 
L 3222 0 
L 194 0 
Q 188 203 259 391 
Q 375 700 629 1000 
Q 884 1300 1366 1694 
Q 2113 2306 2375 2664 
Q 2638 3022 2638 3341 
Q 2638 3675 2398 3904 
Q 2159 4134 1775 4134 
Q 1369 4134 1125 3890 
Q 881 3647 878 3216 
L 300 3275 
Q 359 3922 746 4261 
Q 1134 4600 1788 4600 
Q 2447 4600 2831 4234 
Q 3216 3869 3216 3328 
Q 3216 3053 3103 2787 
Q 2991 2522 2730 2228 
Q 2469 1934 1863 1422 
Q 1356 997 1212 845 
Q 1069 694 975 541 
L 3222 541 
z
" transform="scale(0.015625)"/>
       </defs>
       <use xlink:href="#ArialMT-30"/>
       <use xlink:href="#ArialMT-2e" x="55.615234"/>
       <use xlink:href="#ArialMT-32" x="83.398438"/>
       <use xlink:href="#ArialMT-35" x="139.013672"/>
      </g>
     </g>
    </g>
    <g id="ytick_3">
     <g id="line2d_5">
      <path d="M 44.675 47.803078 
L 113.315459 47.803078 
" clip-path="url(#p9b5fd3dcd4)" style="fill: none; stroke: #cccccc; stroke-width: 0.8; stroke-linecap: round"/>
     </g>
     <g id="text_6">
      <!-- 0.50 -->
      <g style="fill: #262626" transform="translate(18.214062 51.381984)scale(0.1 -0.1)">
       <use xlink:href="#ArialMT-30"/>
       <use xlink:href="#ArialMT-2e" x="55.615234"/>
       <use xlink:href="#ArialMT-35" x="83.398438"/>
       <use xlink:href="#ArialMT-30" x="139.013672"/>
      </g>
     </g>
    </g>
    <g id="ytick_4">
     <g id="line2d_6">
      <path d="M 44.675 19.604617 
L 113.315459 19.604617 
" clip-path="url(#p9b5fd3dcd4)" style="fill: none; stroke: #cccccc; stroke-width: 0.8; stroke-linecap: round"/>
     </g>
     <g id="text_7">
      <!-- 0.75 -->
      <g style="fill: #262626" transform="translate(18.214062 23.183523)scale(0.1 -0.1)">
       <defs>
        <path id="ArialMT-37" d="M 303 3981 
L 303 4522 
L 3269 4522 
L 3269 4084 
Q 2831 3619 2401 2847 
Q 1972 2075 1738 1259 
Q 1569 684 1522 0 
L 944 0 
Q 953 541 1156 1306 
Q 1359 2072 1739 2783 
Q 2119 3494 2547 3981 
L 303 3981 
z
" transform="scale(0.015625)"/>
       </defs>
       <use xlink:href="#ArialMT-30"/>
       <use xlink:href="#ArialMT-2e" x="55.615234"/>
       <use xlink:href="#ArialMT-37" x="83.398438"/>
       <use xlink:href="#ArialMT-35" x="139.013672"/>
      </g>
     </g>
    </g>
    <g id="text_8">
     <!-- Density -->
     <g style="fill: #262626" transform="translate(12.109375 74.826541)rotate(-90)scale(0.1 -0.1)">
      <defs>
       <path id="ArialMT-44" d="M 494 0 
L 494 4581 
L 2072 4581 
Q 2606 4581 2888 4516 
Q 3281 4425 3559 4188 
Q 3922 3881 4101 3404 
Q 4281 2928 4281 2316 
Q 4281 1794 4159 1391 
Q 4038 988 3847 723 
Q 3656 459 3429 307 
Q 3203 156 2883 78 
Q 2563 0 2147 0 
L 494 0 
z
M 1100 541 
L 2078 541 
Q 2531 541 2789 625 
Q 3047 709 3200 863 
Q 3416 1078 3536 1442 
Q 3656 1806 3656 2325 
Q 3656 3044 3420 3430 
Q 3184 3816 2847 3947 
Q 2603 4041 2063 4041 
L 1100 4041 
L 1100 541 
z
" transform="scale(0.015625)"/>
       <path id="ArialMT-65" d="M 2694 1069 
L 3275 997 
Q 3138 488 2766 206 
Q 2394 -75 1816 -75 
Q 1088 -75 661 373 
Q 234 822 234 1631 
Q 234 2469 665 2931 
Q 1097 3394 1784 3394 
Q 2450 3394 2872 2941 
Q 3294 2488 3294 1666 
Q 3294 1616 3291 1516 
L 816 1516 
Q 847 969 1125 678 
Q 1403 388 1819 388 
Q 2128 388 2347 550 
Q 2566 713 2694 1069 
z
M 847 1978 
L 2700 1978 
Q 2663 2397 2488 2606 
Q 2219 2931 1791 2931 
Q 1403 2931 1139 2672 
Q 875 2413 847 1978 
z
" transform="scale(0.015625)"/>
       <path id="ArialMT-6e" d="M 422 0 
L 422 3319 
L 928 3319 
L 928 2847 
Q 1294 3394 1984 3394 
Q 2284 3394 2536 3286 
Q 2788 3178 2913 3003 
Q 3038 2828 3088 2588 
Q 3119 2431 3119 2041 
L 3119 0 
L 2556 0 
L 2556 2019 
Q 2556 2363 2490 2533 
Q 2425 2703 2258 2804 
Q 2091 2906 1866 2906 
Q 1506 2906 1245 2678 
Q 984 2450 984 1813 
L 984 0 
L 422 0 
z
" transform="scale(0.015625)"/>
       <path id="ArialMT-74" d="M 1650 503 
L 1731 6 
Q 1494 -44 1306 -44 
Q 1000 -44 831 53 
Q 663 150 594 308 
Q 525 466 525 972 
L 525 2881 
L 113 2881 
L 113 3319 
L 525 3319 
L 525 4141 
L 1084 4478 
L 1084 3319 
L 1650 3319 
L 1650 2881 
L 1084 2881 
L 1084 941 
Q 1084 700 1114 631 
Q 1144 563 1211 522 
Q 1278 481 1403 481 
Q 1497 481 1650 503 
z
" transform="scale(0.015625)"/>
       <path id="ArialMT-79" d="M 397 -1278 
L 334 -750 
Q 519 -800 656 -800 
Q 844 -800 956 -737 
Q 1069 -675 1141 -563 
Q 1194 -478 1313 -144 
Q 1328 -97 1363 -6 
L 103 3319 
L 709 3319 
L 1400 1397 
Q 1534 1031 1641 628 
Q 1738 1016 1872 1384 
L 2581 3319 
L 3144 3319 
L 1881 -56 
Q 1678 -603 1566 -809 
Q 1416 -1088 1222 -1217 
Q 1028 -1347 759 -1347 
Q 597 -1347 397 -1278 
z
" transform="scale(0.015625)"/>
      </defs>
      <use xlink:href="#ArialMT-44"/>
      <use xlink:href="#ArialMT-65" x="72.216797"/>
      <use xlink:href="#ArialMT-6e" x="127.832031"/>
      <use xlink:href="#ArialMT-73" x="183.447266"/>
      <use xlink:href="#ArialMT-69" x="233.447266"/>
      <use xlink:href="#ArialMT-74" x="255.664062"/>
      <use xlink:href="#ArialMT-79" x="283.447266"/>
     </g>
    </g>
   </g>
   <g id="line2d_7">
    <path d="M 53.360101 104.183371 
L 55.359334 104.055671 
L 56.501753 103.804792 
L 57.358567 103.440481 
L 58.215381 102.85524 
L 59.072196 101.991783 
L 59.92901 100.808741 
L 60.785824 99.280589 
L 61.928243 96.668771 
L 63.070661 93.330878 
L 64.21308 89.191893 
L 65.641104 82.976529 
L 68.782756 68.535239 
L 69.63957 65.477783 
L 70.496384 63.190508 
L 71.067593 62.160953 
L 71.638803 61.54115 
L 72.210012 61.306664 
L 72.781222 61.398416 
L 73.352431 61.727755 
L 75.637269 63.359358 
L 76.208478 63.459411 
L 76.779687 63.37982 
L 77.636502 62.973 
L 80.206944 61.349469 
L 80.778153 61.38463 
L 81.349363 61.756008 
L 81.920572 62.546005 
L 82.491782 63.815285 
L 83.062991 65.590793 
L 83.919805 69.156979 
L 85.062224 75.171671 
L 87.347062 87.532938 
L 88.203876 91.061902 
L 89.06069 93.74059 
L 89.917504 95.665611 
L 90.774318 97.030665 
L 91.916737 98.325582 
L 93.344761 99.536762 
L 95.058389 100.666642 
L 96.486412 101.332995 
L 97.628831 101.651567 
L 99.056855 101.816721 
L 101.056088 102.018144 
L 102.484111 102.441802 
L 106.196972 103.846875 
L 107.624996 104.078982 
L 109.909834 104.18747 
L 110.195438 104.191015 
L 110.195438 104.191015 
" clip-path="url(#p9b5fd3dcd4)" style="fill: none; stroke: #ff4500; stroke-width: 1.5; stroke-linecap: round"/>
   </g>
   <g id="line2d_8">
    <path d="M 47.795021 104.190839 
L 49.158146 104.072385 
L 50.0101 103.788155 
L 50.691663 103.35286 
L 51.373225 102.689872 
L 52.054788 101.756447 
L 52.736351 100.483897 
L 53.417914 98.752246 
L 54.099476 96.350433 
L 54.781039 93.053539 
L 55.632993 87.646053 
L 57.166509 75.836726 
L 58.188853 68.782787 
L 59.89276 58.574493 
L 60.403932 53.368322 
L 61.085495 44.00269 
L 62.44862 24.246967 
L 62.959792 19.637977 
L 63.470964 17.178543 
L 63.811746 16.559152 
L 63.982136 16.494174 
L 64.322918 16.755222 
L 64.663699 17.440499 
L 65.174871 19.146 
L 65.686043 21.6996 
L 66.367606 26.634692 
L 67.21956 35.186923 
L 71.820108 86.680091 
L 72.501671 92.684648 
L 73.012843 95.639767 
L 73.524015 97.504801 
L 74.205578 99.066894 
L 75.568703 101.43888 
L 76.250266 102.314842 
L 76.931829 102.836358 
L 77.954173 103.243582 
L 80.680424 104.131488 
L 81.702768 104.191022 
L 81.702768 104.191022 
" clip-path="url(#p9b5fd3dcd4)" style="fill: none; stroke: #1e90ff; stroke-width: 1.5; stroke-linecap: round"/>
   </g>
   <g id="patch_3">
    <path d="M 44.675 104.2 
L 44.675 12.109331 
" style="fill: none; stroke: #cccccc; stroke-width: 0.8; stroke-linejoin: miter; stroke-linecap: square"/>
   </g>
   <g id="patch_4">
    <path d="M 113.315459 104.2 
L 113.315459 12.109331 
" style="fill: none; stroke: #cccccc; stroke-width: 0.8; stroke-linejoin: miter; stroke-linecap: square"/>
   </g>
   <g id="patch_5">
    <path d="M 44.675 104.2 
L 113.315459 104.2 
" style="fill: none; stroke: #cccccc; stroke-width: 0.8; stroke-linejoin: miter; stroke-linecap: square"/>
   </g>
   <g id="patch_6">
    <path d="M 44.675 12.109331 
L 113.315459 12.109331 
" style="fill: none; stroke: #cccccc; stroke-width: 0.8; stroke-linejoin: miter; stroke-linecap: square"/>
   </g>
  </g>
  <g id="axes_2">
   <g id="patch_7">
    <path d="M 150.884393 104.2 
L 219.524853 104.2 
L 219.524853 12.109331 
L 150.884393 12.109331 
z
" style="fill: #ffffff"/>
   </g>
   <g id="matplotlib.axis_3">
    <g id="xtick_3">
     <g id="line2d_9">
      <path d="M 176.306881 104.2 
L 176.306881 12.109331 
" clip-path="url(#p8b58ac06ef)" style="fill: none; stroke: #cccccc; stroke-width: 0.8; stroke-linecap: round"/>
     </g>
     <g id="text_9">
      <!-- 0 -->
      <g style="fill: #262626" transform="translate(173.526412 118.357812)scale(0.1 -0.1)">
       <use xlink:href="#ArialMT-30"/>
      </g>
     </g>
    </g>
    <g id="xtick_4">
     <g id="line2d_10">
      <path d="M 212.393879 104.2 
L 212.393879 12.109331 
" clip-path="url(#p8b58ac06ef)" style="fill: none; stroke: #cccccc; stroke-width: 0.8; stroke-linecap: round"/>
     </g>
     <g id="text_10">
      <!-- 5 -->
      <g style="fill: #262626" transform="translate(209.61341 118.357812)scale(0.1 -0.1)">
       <use xlink:href="#ArialMT-35"/>
      </g>
     </g>
    </g>
    <g id="text_11">
     <!-- texture1 -->
     <g style="fill: #262626" transform="translate(167.139779 131.503125)scale(0.1 -0.1)">
      <defs>
       <path id="ArialMT-78" d="M 47 0 
L 1259 1725 
L 138 3319 
L 841 3319 
L 1350 2541 
Q 1494 2319 1581 2169 
Q 1719 2375 1834 2534 
L 2394 3319 
L 3066 3319 
L 1919 1756 
L 3153 0 
L 2463 0 
L 1781 1031 
L 1600 1309 
L 728 0 
L 47 0 
z
" transform="scale(0.015625)"/>
      </defs>
      <use xlink:href="#ArialMT-74"/>
      <use xlink:href="#ArialMT-65" x="27.783203"/>
      <use xlink:href="#ArialMT-78" x="83.398438"/>
      <use xlink:href="#ArialMT-74" x="133.398438"/>
      <use xlink:href="#ArialMT-75" x="161.181641"/>
      <use xlink:href="#ArialMT-72" x="216.796875"/>
      <use xlink:href="#ArialMT-65" x="250.097656"/>
      <use xlink:href="#ArialMT-31" x="305.712891"/>
     </g>
    </g>
   </g>
   <g id="matplotlib.axis_4">
    <g id="ytick_5">
     <g id="line2d_11">
      <path d="M 150.884393 104.2 
L 219.524853 104.2 
" clip-path="url(#p8b58ac06ef)" style="fill: none; stroke: #cccccc; stroke-width: 0.8; stroke-linecap: round"/>
     </g>
     <g id="text_12">
      <!-- 0.0 -->
      <g style="fill: #262626" transform="translate(129.984393 107.778906)scale(0.1 -0.1)">
       <use xlink:href="#ArialMT-30"/>
       <use xlink:href="#ArialMT-2e" x="55.615234"/>
       <use xlink:href="#ArialMT-30" x="83.398438"/>
      </g>
     </g>
    </g>
    <g id="ytick_6">
     <g id="line2d_12">
      <path d="M 150.884393 69.433138 
L 219.524853 69.433138 
" clip-path="url(#p8b58ac06ef)" style="fill: none; stroke: #cccccc; stroke-width: 0.8; stroke-linecap: round"/>
     </g>
     <g id="text_13">
      <!-- 0.2 -->
      <g style="fill: #262626" transform="translate(129.984393 73.012044)scale(0.1 -0.1)">
       <use xlink:href="#ArialMT-30"/>
       <use xlink:href="#ArialMT-2e" x="55.615234"/>
       <use xlink:href="#ArialMT-32" x="83.398438"/>
      </g>
     </g>
    </g>
    <g id="ytick_7">
     <g id="line2d_13">
      <path d="M 150.884393 34.666275 
L 219.524853 34.666275 
" clip-path="url(#p8b58ac06ef)" style="fill: none; stroke: #cccccc; stroke-width: 0.8; stroke-linecap: round"/>
     </g>
     <g id="text_14">
      <!-- 0.4 -->
      <g style="fill: #262626" transform="translate(129.984393 38.245181)scale(0.1 -0.1)">
       <defs>
        <path id="ArialMT-34" d="M 2069 0 
L 2069 1097 
L 81 1097 
L 81 1613 
L 2172 4581 
L 2631 4581 
L 2631 1613 
L 3250 1613 
L 3250 1097 
L 2631 1097 
L 2631 0 
L 2069 0 
z
M 2069 1613 
L 2069 3678 
L 634 1613 
L 2069 1613 
z
" transform="scale(0.015625)"/>
       </defs>
       <use xlink:href="#ArialMT-30"/>
       <use xlink:href="#ArialMT-2e" x="55.615234"/>
       <use xlink:href="#ArialMT-34" x="83.398438"/>
      </g>
     </g>
    </g>
   </g>
   <g id="line2d_14">
    <path d="M 154.819384 104.187753 
L 156.985707 104.04701 
L 158.223605 103.774917 
L 159.770978 103.179427 
L 161.627826 102.448075 
L 163.175199 102.131018 
L 164.103623 101.914142 
L 164.722572 101.61004 
L 165.341521 101.064412 
L 165.96047 100.180571 
L 166.579419 98.881001 
L 167.198369 97.119564 
L 168.126793 93.594639 
L 169.055216 89.083881 
L 170.293115 81.774677 
L 171.840488 70.98941 
L 173.387861 58.601983 
L 175.244709 41.696735 
L 176.792082 27.880487 
L 177.720505 21.420755 
L 178.339455 18.440881 
L 178.958404 16.780069 
L 179.267878 16.494243 
L 179.577353 16.586973 
L 179.886828 17.060768 
L 180.196302 17.90942 
L 180.815252 20.658799 
L 181.434201 24.59808 
L 182.672099 34.604471 
L 185.147896 55.133629 
L 186.695269 66.32064 
L 187.933168 73.888435 
L 189.171066 80.158305 
L 190.718439 86.912947 
L 191.956338 91.588877 
L 192.884761 94.425446 
L 193.813185 96.57806 
L 194.741609 98.119646 
L 195.670033 99.214121 
L 196.598457 100.014067 
L 197.836355 100.794022 
L 203.716373 103.809487 
L 204.954271 103.996866 
L 206.19217 103.913871 
L 207.739543 103.528466 
L 209.286916 103.153857 
L 210.21534 103.126927 
L 211.453238 103.363866 
L 214.238509 104.054155 
L 216.095357 104.1817 
L 216.404832 104.187938 
L 216.404832 104.187938 
" clip-path="url(#p8b58ac06ef)" style="fill: none; stroke: #ff4500; stroke-width: 1.5; stroke-linecap: round"/>
   </g>
   <g id="line2d_15">
    <path d="M 154.004414 104.190828 
L 156.131169 104.046228 
L 157.194547 103.735138 
L 157.99208 103.253176 
L 158.789613 102.440516 
L 159.587146 101.183893 
L 160.384679 99.363261 
L 161.182212 96.824785 
L 161.979745 93.349048 
L 162.777278 88.680366 
L 163.574811 82.663998 
L 164.638189 72.809406 
L 167.562477 44.258594 
L 168.625854 35.929415 
L 169.689232 29.33053 
L 170.486765 25.694014 
L 171.284298 23.186879 
L 171.815987 22.116708 
L 172.347675 21.538909 
L 172.61352 21.451046 
L 172.879364 21.511722 
L 173.145208 21.734564 
L 173.676897 22.725038 
L 174.208586 24.527562 
L 174.740275 27.197285 
L 175.537808 32.731701 
L 176.86703 44.532908 
L 178.462096 58.500949 
L 179.791318 68.196493 
L 181.386384 78.409277 
L 182.449761 84.035892 
L 183.247294 87.163548 
L 184.044827 89.32322 
L 184.84236 90.818238 
L 186.969115 94.041615 
L 187.766648 94.964696 
L 188.298337 95.317996 
L 188.830026 95.432753 
L 189.627559 95.264682 
L 190.690936 94.956556 
L 191.222625 95.011427 
L 191.754314 95.29256 
L 192.286003 95.806804 
L 193.083536 96.93607 
L 196.273668 102.036234 
L 197.071201 102.776426 
L 197.868734 103.220996 
L 198.666267 103.421284 
L 199.995489 103.470397 
L 201.590555 103.572605 
L 206.109909 104.177828 
L 206.907443 104.192479 
L 206.907443 104.192479 
" clip-path="url(#p8b58ac06ef)" style="fill: none; stroke: #1e90ff; stroke-width: 1.5; stroke-linecap: round"/>
   </g>
   <g id="patch_8">
    <path d="M 150.884393 104.2 
L 150.884393 12.109331 
" style="fill: none; stroke: #cccccc; stroke-width: 0.8; stroke-linejoin: miter; stroke-linecap: square"/>
   </g>
   <g id="patch_9">
    <path d="M 219.524853 104.2 
L 219.524853 12.109331 
" style="fill: none; stroke: #cccccc; stroke-width: 0.8; stroke-linejoin: miter; stroke-linecap: square"/>
   </g>
   <g id="patch_10">
    <path d="M 150.884393 104.2 
L 219.524853 104.2 
" style="fill: none; stroke: #cccccc; stroke-width: 0.8; stroke-linejoin: miter; stroke-linecap: square"/>
   </g>
   <g id="patch_11">
    <path d="M 150.884393 12.109331 
L 219.524853 12.109331 
" style="fill: none; stroke: #cccccc; stroke-width: 0.8; stroke-linejoin: miter; stroke-linecap: square"/>
   </g>
  </g>
  <g id="axes_3">
   <g id="patch_12">
    <path d="M 257.093787 104.2 
L 325.734246 104.2 
L 325.734246 12.109331 
L 257.093787 12.109331 
z
" style="fill: #ffffff"/>
   </g>
   <g id="matplotlib.axis_5">
    <g id="xtick_5">
     <g id="line2d_16">
      <path d="M 280.924477 104.2 
L 280.924477 12.109331 
" clip-path="url(#p4af0ac2447)" style="fill: none; stroke: #cccccc; stroke-width: 0.8; stroke-linecap: round"/>
     </g>
     <g id="text_15">
      <!-- 0 -->
      <g style="fill: #262626" transform="translate(278.144008 118.357812)scale(0.1 -0.1)">
       <use xlink:href="#ArialMT-30"/>
      </g>
     </g>
    </g>
    <g id="xtick_6">
     <g id="line2d_17">
      <path d="M 323.454302 104.2 
L 323.454302 12.109331 
" clip-path="url(#p4af0ac2447)" style="fill: none; stroke: #cccccc; stroke-width: 0.8; stroke-linecap: round"/>
     </g>
     <g id="text_16">
      <!-- 5 -->
      <g style="fill: #262626" transform="translate(320.673833 118.357812)scale(0.1 -0.1)">
       <use xlink:href="#ArialMT-35"/>
      </g>
     </g>
    </g>
    <g id="text_17">
     <!-- perimeter1 -->
     <g style="fill: #262626" transform="translate(267.517141 131.532813)scale(0.1 -0.1)">
      <defs>
       <path id="ArialMT-70" d="M 422 -1272 
L 422 3319 
L 934 3319 
L 934 2888 
Q 1116 3141 1344 3267 
Q 1572 3394 1897 3394 
Q 2322 3394 2647 3175 
Q 2972 2956 3137 2557 
Q 3303 2159 3303 1684 
Q 3303 1175 3120 767 
Q 2938 359 2589 142 
Q 2241 -75 1856 -75 
Q 1575 -75 1351 44 
Q 1128 163 984 344 
L 984 -1272 
L 422 -1272 
z
M 931 1641 
Q 931 1000 1190 694 
Q 1450 388 1819 388 
Q 2194 388 2461 705 
Q 2728 1022 2728 1688 
Q 2728 2322 2467 2637 
Q 2206 2953 1844 2953 
Q 1484 2953 1207 2617 
Q 931 2281 931 1641 
z
" transform="scale(0.015625)"/>
       <path id="ArialMT-6d" d="M 422 0 
L 422 3319 
L 925 3319 
L 925 2853 
Q 1081 3097 1340 3245 
Q 1600 3394 1931 3394 
Q 2300 3394 2536 3241 
Q 2772 3088 2869 2813 
Q 3263 3394 3894 3394 
Q 4388 3394 4653 3120 
Q 4919 2847 4919 2278 
L 4919 0 
L 4359 0 
L 4359 2091 
Q 4359 2428 4304 2576 
Q 4250 2725 4106 2815 
Q 3963 2906 3769 2906 
Q 3419 2906 3187 2673 
Q 2956 2441 2956 1928 
L 2956 0 
L 2394 0 
L 2394 2156 
Q 2394 2531 2256 2718 
Q 2119 2906 1806 2906 
Q 1569 2906 1367 2781 
Q 1166 2656 1075 2415 
Q 984 2175 984 1722 
L 984 0 
L 422 0 
z
" transform="scale(0.015625)"/>
      </defs>
      <use xlink:href="#ArialMT-70"/>
      <use xlink:href="#ArialMT-65" x="55.615234"/>
      <use xlink:href="#ArialMT-72" x="111.230469"/>
      <use xlink:href="#ArialMT-69" x="144.53125"/>
      <use xlink:href="#ArialMT-6d" x="166.748047"/>
      <use xlink:href="#ArialMT-65" x="250.048828"/>
      <use xlink:href="#ArialMT-74" x="305.664062"/>
      <use xlink:href="#ArialMT-65" x="333.447266"/>
      <use xlink:href="#ArialMT-72" x="389.0625"/>
      <use xlink:href="#ArialMT-31" x="422.363281"/>
     </g>
    </g>
   </g>
   <g id="matplotlib.axis_6">
    <g id="ytick_8">
     <g id="line2d_18">
      <path d="M 257.093787 104.2 
L 325.734246 104.2 
" clip-path="url(#p4af0ac2447)" style="fill: none; stroke: #cccccc; stroke-width: 0.8; stroke-linecap: round"/>
     </g>
     <g id="text_18">
      <!-- 0.00 -->
      <g style="fill: #262626" transform="translate(230.632849 107.778906)scale(0.1 -0.1)">
       <use xlink:href="#ArialMT-30"/>
       <use xlink:href="#ArialMT-2e" x="55.615234"/>
       <use xlink:href="#ArialMT-30" x="83.398438"/>
       <use xlink:href="#ArialMT-30" x="139.013672"/>
      </g>
     </g>
    </g>
    <g id="ytick_9">
     <g id="line2d_19">
      <path d="M 257.093787 77.260907 
L 325.734246 77.260907 
" clip-path="url(#p4af0ac2447)" style="fill: none; stroke: #cccccc; stroke-width: 0.8; stroke-linecap: round"/>
     </g>
     <g id="text_19">
      <!-- 0.25 -->
      <g style="fill: #262626" transform="translate(230.632849 80.839813)scale(0.1 -0.1)">
       <use xlink:href="#ArialMT-30"/>
       <use xlink:href="#ArialMT-2e" x="55.615234"/>
       <use xlink:href="#ArialMT-32" x="83.398438"/>
       <use xlink:href="#ArialMT-35" x="139.013672"/>
      </g>
     </g>
    </g>
    <g id="ytick_10">
     <g id="line2d_20">
      <path d="M 257.093787 50.321813 
L 325.734246 50.321813 
" clip-path="url(#p4af0ac2447)" style="fill: none; stroke: #cccccc; stroke-width: 0.8; stroke-linecap: round"/>
     </g>
     <g id="text_20">
      <!-- 0.50 -->
      <g style="fill: #262626" transform="translate(230.632849 53.900719)scale(0.1 -0.1)">
       <use xlink:href="#ArialMT-30"/>
       <use xlink:href="#ArialMT-2e" x="55.615234"/>
       <use xlink:href="#ArialMT-35" x="83.398438"/>
       <use xlink:href="#ArialMT-30" x="139.013672"/>
      </g>
     </g>
    </g>
    <g id="ytick_11">
     <g id="line2d_21">
      <path d="M 257.093787 23.38272 
L 325.734246 23.38272 
" clip-path="url(#p4af0ac2447)" style="fill: none; stroke: #cccccc; stroke-width: 0.8; stroke-linecap: round"/>
     </g>
     <g id="text_21">
      <!-- 0.75 -->
      <g style="fill: #262626" transform="translate(230.632849 26.961626)scale(0.1 -0.1)">
       <use xlink:href="#ArialMT-30"/>
       <use xlink:href="#ArialMT-2e" x="55.615234"/>
       <use xlink:href="#ArialMT-37" x="83.398438"/>
       <use xlink:href="#ArialMT-35" x="139.013672"/>
      </g>
     </g>
    </g>
   </g>
   <g id="line2d_22">
    <path d="M 266.024115 104.185089 
L 268.299094 104.028736 
L 269.436584 103.744126 
L 270.289701 103.338382 
L 271.142818 102.692534 
L 271.995936 101.740808 
L 272.849053 100.427769 
L 273.70217 98.709992 
L 274.555287 96.553341 
L 275.692777 92.956355 
L 276.830267 88.552177 
L 278.536501 80.856148 
L 280.527108 71.912458 
L 281.664598 67.742976 
L 282.517715 65.31955 
L 283.370832 63.558637 
L 283.939577 62.748298 
L 284.508322 62.209159 
L 285.077067 61.912851 
L 285.645811 61.822229 
L 286.498929 61.974503 
L 287.920791 62.592595 
L 289.05828 63.020189 
L 289.911398 63.153325 
L 291.048887 63.086801 
L 292.186377 63.035395 
L 292.755122 63.204942 
L 293.323867 63.634337 
L 293.892611 64.417739 
L 294.461356 65.627267 
L 295.030101 67.297768 
L 295.883218 70.627715 
L 297.020708 76.182862 
L 299.011315 86.193525 
L 300.148805 90.705281 
L 301.001922 93.308505 
L 301.855039 95.3272 
L 302.708156 96.890218 
L 303.845646 98.455856 
L 304.983136 99.568642 
L 306.120625 100.315922 
L 307.258115 100.797259 
L 308.964349 101.266639 
L 311.239329 101.662091 
L 314.083053 102.076048 
L 315.504915 102.559615 
L 318.633011 103.779101 
L 320.054873 104.050722 
L 322.04548 104.17806 
L 322.614225 104.18854 
L 322.614225 104.18854 
" clip-path="url(#p4af0ac2447)" style="fill: none; stroke: #ff4500; stroke-width: 1.5; stroke-linecap: round"/>
   </g>
   <g id="line2d_23">
    <path d="M 260.213808 104.190688 
L 261.519145 104.069527 
L 262.33498 103.767725 
L 262.987649 103.291092 
L 263.803484 102.358062 
L 264.782487 100.835094 
L 265.598322 99.199767 
L 266.250991 97.338805 
L 266.903659 94.612049 
L 267.556328 90.801814 
L 268.372163 84.48591 
L 270.167002 69.333577 
L 271.146004 63.80563 
L 271.798673 59.477631 
L 272.288174 54.805613 
L 272.940843 46.313228 
L 274.572514 22.833469 
L 275.062015 18.743642 
L 275.388349 17.203951 
L 275.714684 16.540502 
L 275.877851 16.494176 
L 276.041018 16.609738 
L 276.367352 17.238289 
L 276.856853 18.889575 
L 277.509522 21.985179 
L 278.16219 26.241114 
L 278.814859 32.313425 
L 279.630694 42.838637 
L 280.936031 60.698845 
L 281.751867 68.489816 
L 282.894036 78.706622 
L 284.199373 91.124851 
L 284.852042 95.132591 
L 285.50471 97.549108 
L 286.320546 99.547762 
L 287.299549 101.457647 
L 287.952217 102.339244 
L 288.604885 102.88368 
L 289.910222 103.580056 
L 291.052392 104.014908 
L 292.194562 104.173762 
L 292.684063 104.191074 
L 292.684063 104.191074 
" clip-path="url(#p4af0ac2447)" style="fill: none; stroke: #1e90ff; stroke-width: 1.5; stroke-linecap: round"/>
   </g>
   <g id="patch_13">
    <path d="M 257.093787 104.2 
L 257.093787 12.109331 
" style="fill: none; stroke: #cccccc; stroke-width: 0.8; stroke-linejoin: miter; stroke-linecap: square"/>
   </g>
   <g id="patch_14">
    <path d="M 325.734246 104.2 
L 325.734246 12.109331 
" style="fill: none; stroke: #cccccc; stroke-width: 0.8; stroke-linejoin: miter; stroke-linecap: square"/>
   </g>
   <g id="patch_15">
    <path d="M 257.093787 104.2 
L 325.734246 104.2 
" style="fill: none; stroke: #cccccc; stroke-width: 0.8; stroke-linejoin: miter; stroke-linecap: square"/>
   </g>
   <g id="patch_16">
    <path d="M 257.093787 12.109331 
L 325.734246 12.109331 
" style="fill: none; stroke: #cccccc; stroke-width: 0.8; stroke-linejoin: miter; stroke-linecap: square"/>
   </g>
  </g>
  <g id="axes_4">
   <g id="patch_17">
    <path d="M 363.30318 104.2 
L 431.943639 104.2 
L 431.943639 12.109331 
L 363.30318 12.109331 
z
" style="fill: #ffffff"/>
   </g>
   <g id="matplotlib.axis_7">
    <g id="xtick_7">
     <g id="line2d_24">
      <path d="M 380.891913 104.2 
L 380.891913 12.109331 
" clip-path="url(#p211368b530)" style="fill: none; stroke: #cccccc; stroke-width: 0.8; stroke-linecap: round"/>
     </g>
     <g id="text_22">
      <!-- 0 -->
      <g style="fill: #262626" transform="translate(378.111444 118.357812)scale(0.1 -0.1)">
       <use xlink:href="#ArialMT-30"/>
      </g>
     </g>
    </g>
    <g id="xtick_8">
     <g id="line2d_25">
      <path d="M 418.776968 104.2 
L 418.776968 12.109331 
" clip-path="url(#p211368b530)" style="fill: none; stroke: #cccccc; stroke-width: 0.8; stroke-linecap: round"/>
     </g>
     <g id="text_23">
      <!-- 5 -->
      <g style="fill: #262626" transform="translate(415.996499 118.357812)scale(0.1 -0.1)">
       <use xlink:href="#ArialMT-35"/>
      </g>
     </g>
    </g>
    <g id="text_24">
     <!-- area1 -->
     <g style="fill: #262626" transform="translate(384.836691 131.503125)scale(0.1 -0.1)">
      <use xlink:href="#ArialMT-61"/>
      <use xlink:href="#ArialMT-72" x="55.615234"/>
      <use xlink:href="#ArialMT-65" x="88.916016"/>
      <use xlink:href="#ArialMT-61" x="144.53125"/>
      <use xlink:href="#ArialMT-31" x="200.146484"/>
     </g>
    </g>
   </g>
   <g id="matplotlib.axis_8">
    <g id="ytick_12">
     <g id="line2d_26">
      <path d="M 363.30318 104.2 
L 431.943639 104.2 
" clip-path="url(#p211368b530)" style="fill: none; stroke: #cccccc; stroke-width: 0.8; stroke-linecap: round"/>
     </g>
     <g id="text_25">
      <!-- 0.0 -->
      <g style="fill: #262626" transform="translate(342.40318 107.778906)scale(0.1 -0.1)">
       <use xlink:href="#ArialMT-30"/>
       <use xlink:href="#ArialMT-2e" x="55.615234"/>
       <use xlink:href="#ArialMT-30" x="83.398438"/>
      </g>
     </g>
    </g>
    <g id="ytick_13">
     <g id="line2d_27">
      <path d="M 363.30318 61.842826 
L 431.943639 61.842826 
" clip-path="url(#p211368b530)" style="fill: none; stroke: #cccccc; stroke-width: 0.8; stroke-linecap: round"/>
     </g>
     <g id="text_26">
      <!-- 0.5 -->
      <g style="fill: #262626" transform="translate(342.40318 65.421732)scale(0.1 -0.1)">
       <use xlink:href="#ArialMT-30"/>
       <use xlink:href="#ArialMT-2e" x="55.615234"/>
       <use xlink:href="#ArialMT-35" x="83.398438"/>
      </g>
     </g>
    </g>
    <g id="ytick_14">
     <g id="line2d_28">
      <path d="M 363.30318 19.485652 
L 431.943639 19.485652 
" clip-path="url(#p211368b530)" style="fill: none; stroke: #cccccc; stroke-width: 0.8; stroke-linecap: round"/>
     </g>
     <g id="text_27">
      <!-- 1.0 -->
      <g style="fill: #262626" transform="translate(342.40318 23.064558)scale(0.1 -0.1)">
       <use xlink:href="#ArialMT-31"/>
       <use xlink:href="#ArialMT-2e" x="55.615234"/>
       <use xlink:href="#ArialMT-30" x="83.398438"/>
      </g>
     </g>
    </g>
   </g>
   <g id="line2d_29">
    <path d="M 366.423201 104.185008 
L 368.618191 104.046837 
L 369.87247 103.746671 
L 370.81318 103.280301 
L 371.75389 102.484488 
L 372.6946 101.237053 
L 373.63531 99.42806 
L 374.576019 96.987452 
L 375.516729 93.915257 
L 376.771009 89.02077 
L 379.279569 78.799347 
L 380.220278 75.847144 
L 380.847418 74.376852 
L 381.474558 73.350722 
L 382.101698 72.767639 
L 382.728838 72.589088 
L 383.355978 72.743526 
L 383.983118 73.136331 
L 386.805247 75.371989 
L 387.745957 75.740346 
L 389.000237 75.943778 
L 390.568086 76.166189 
L 391.195226 76.417888 
L 391.822366 76.859625 
L 392.449506 77.554262 
L 393.076646 78.550361 
L 394.017356 80.651569 
L 394.958065 83.410334 
L 398.720905 95.424301 
L 399.661614 97.344838 
L 400.602324 98.664857 
L 401.543034 99.492945 
L 402.483744 99.994026 
L 408.128003 102.363032 
L 410.009422 103.046638 
L 411.577272 103.39196 
L 413.458692 103.556522 
L 415.967251 103.522457 
L 421.61151 103.335125 
L 424.12007 103.80386 
L 426.315059 104.098554 
L 428.823619 104.190348 
L 428.823619 104.190348 
" clip-path="url(#p211368b530)" style="fill: none; stroke: #ff4500; stroke-width: 1.5; stroke-linecap: round"/>
   </g>
   <g id="line2d_30">
    <path d="M 367.192012 104.189058 
L 368.023791 104.059188 
L 368.499093 103.75859 
L 368.85557 103.291135 
L 369.212047 102.508952 
L 369.68735 100.803977 
L 370.162652 98.10981 
L 370.637954 94.13337 
L 371.232083 87.050474 
L 374.5592 38.890783 
L 375.509805 20.90003 
L 375.866282 17.503383 
L 376.103933 16.590423 
L 376.222758 16.494176 
L 376.341584 16.606149 
L 376.579235 17.350545 
L 376.935712 19.419328 
L 377.52984 24.496471 
L 378.123968 31.385218 
L 378.955748 44.21925 
L 380.025178 61.158863 
L 380.738132 68.52038 
L 381.33226 74.943514 
L 382.995819 96.43282 
L 383.471121 98.721563 
L 383.946424 99.760724 
L 386.322936 103.115039 
L 386.798238 103.439484 
L 387.273541 103.495607 
L 388.461797 103.433671 
L 389.293576 103.841419 
L 390.125356 104.128866 
L 390.838309 104.191079 
L 390.838309 104.191079 
" clip-path="url(#p211368b530)" style="fill: none; stroke: #1e90ff; stroke-width: 1.5; stroke-linecap: round"/>
   </g>
   <g id="patch_18">
    <path d="M 363.30318 104.2 
L 363.30318 12.109331 
" style="fill: none; stroke: #cccccc; stroke-width: 0.8; stroke-linejoin: miter; stroke-linecap: square"/>
   </g>
   <g id="patch_19">
    <path d="M 431.943639 104.2 
L 431.943639 12.109331 
" style="fill: none; stroke: #cccccc; stroke-width: 0.8; stroke-linejoin: miter; stroke-linecap: square"/>
   </g>
   <g id="patch_20">
    <path d="M 363.30318 104.2 
L 431.943639 104.2 
" style="fill: none; stroke: #cccccc; stroke-width: 0.8; stroke-linejoin: miter; stroke-linecap: square"/>
   </g>
   <g id="patch_21">
    <path d="M 363.30318 12.109331 
L 431.943639 12.109331 
" style="fill: none; stroke: #cccccc; stroke-width: 0.8; stroke-linejoin: miter; stroke-linecap: square"/>
   </g>
  </g>
  <g id="axes_5">
   <g id="patch_22">
    <path d="M 469.512574 104.2 
L 538.153033 104.2 
L 538.153033 12.109331 
L 469.512574 12.109331 
z
" style="fill: #ffffff"/>
   </g>
   <g id="matplotlib.axis_9">
    <g id="xtick_9">
     <g id="line2d_31">
      <path d="M 498.472333 104.2 
L 498.472333 12.109331 
" clip-path="url(#pc4d6ddc7b6)" style="fill: none; stroke: #cccccc; stroke-width: 0.8; stroke-linecap: round"/>
     </g>
     <g id="text_28">
      <!-- 0 -->
      <g style="fill: #262626" transform="translate(495.691864 118.357812)scale(0.1 -0.1)">
       <use xlink:href="#ArialMT-30"/>
      </g>
     </g>
    </g>
    <g id="xtick_10">
     <g id="line2d_32">
      <path d="M 530.78717 104.2 
L 530.78717 12.109331 
" clip-path="url(#pc4d6ddc7b6)" style="fill: none; stroke: #cccccc; stroke-width: 0.8; stroke-linecap: round"/>
     </g>
     <g id="text_29">
      <!-- 5 -->
      <g style="fill: #262626" transform="translate(528.006702 118.357812)scale(0.1 -0.1)">
       <use xlink:href="#ArialMT-35"/>
      </g>
     </g>
    </g>
    <g id="text_30">
     <!-- smoothness1 -->
     <g style="fill: #262626" transform="translate(474.096085 131.503125)scale(0.1 -0.1)">
      <defs>
       <path id="ArialMT-6f" d="M 213 1659 
Q 213 2581 725 3025 
Q 1153 3394 1769 3394 
Q 2453 3394 2887 2945 
Q 3322 2497 3322 1706 
Q 3322 1066 3130 698 
Q 2938 331 2570 128 
Q 2203 -75 1769 -75 
Q 1072 -75 642 372 
Q 213 819 213 1659 
z
M 791 1659 
Q 791 1022 1069 705 
Q 1347 388 1769 388 
Q 2188 388 2466 706 
Q 2744 1025 2744 1678 
Q 2744 2294 2464 2611 
Q 2184 2928 1769 2928 
Q 1347 2928 1069 2612 
Q 791 2297 791 1659 
z
" transform="scale(0.015625)"/>
       <path id="ArialMT-68" d="M 422 0 
L 422 4581 
L 984 4581 
L 984 2938 
Q 1378 3394 1978 3394 
Q 2347 3394 2619 3248 
Q 2891 3103 3008 2847 
Q 3125 2591 3125 2103 
L 3125 0 
L 2563 0 
L 2563 2103 
Q 2563 2525 2380 2717 
Q 2197 2909 1863 2909 
Q 1613 2909 1392 2779 
Q 1172 2650 1078 2428 
Q 984 2206 984 1816 
L 984 0 
L 422 0 
z
" transform="scale(0.015625)"/>
      </defs>
      <use xlink:href="#ArialMT-73"/>
      <use xlink:href="#ArialMT-6d" x="50"/>
      <use xlink:href="#ArialMT-6f" x="133.300781"/>
      <use xlink:href="#ArialMT-6f" x="188.916016"/>
      <use xlink:href="#ArialMT-74" x="244.53125"/>
      <use xlink:href="#ArialMT-68" x="272.314453"/>
      <use xlink:href="#ArialMT-6e" x="327.929688"/>
      <use xlink:href="#ArialMT-65" x="383.544922"/>
      <use xlink:href="#ArialMT-73" x="439.160156"/>
      <use xlink:href="#ArialMT-73" x="489.160156"/>
      <use xlink:href="#ArialMT-31" x="539.160156"/>
     </g>
    </g>
   </g>
   <g id="matplotlib.axis_10">
    <g id="ytick_15">
     <g id="line2d_33">
      <path d="M 469.512574 104.2 
L 538.153033 104.2 
" clip-path="url(#pc4d6ddc7b6)" style="fill: none; stroke: #cccccc; stroke-width: 0.8; stroke-linecap: round"/>
     </g>
     <g id="text_31">
      <!-- 0.0 -->
      <g style="fill: #262626" transform="translate(448.612574 107.778906)scale(0.1 -0.1)">
       <use xlink:href="#ArialMT-30"/>
       <use xlink:href="#ArialMT-2e" x="55.615234"/>
       <use xlink:href="#ArialMT-30" x="83.398438"/>
      </g>
     </g>
    </g>
    <g id="ytick_16">
     <g id="line2d_34">
      <path d="M 469.512574 63.109966 
L 538.153033 63.109966 
" clip-path="url(#pc4d6ddc7b6)" style="fill: none; stroke: #cccccc; stroke-width: 0.8; stroke-linecap: round"/>
     </g>
     <g id="text_32">
      <!-- 0.2 -->
      <g style="fill: #262626" transform="translate(448.612574 66.688872)scale(0.1 -0.1)">
       <use xlink:href="#ArialMT-30"/>
       <use xlink:href="#ArialMT-2e" x="55.615234"/>
       <use xlink:href="#ArialMT-32" x="83.398438"/>
      </g>
     </g>
    </g>
    <g id="ytick_17">
     <g id="line2d_35">
      <path d="M 469.512574 22.019932 
L 538.153033 22.019932 
" clip-path="url(#pc4d6ddc7b6)" style="fill: none; stroke: #cccccc; stroke-width: 0.8; stroke-linecap: round"/>
     </g>
     <g id="text_33">
      <!-- 0.4 -->
      <g style="fill: #262626" transform="translate(448.612574 25.598838)scale(0.1 -0.1)">
       <use xlink:href="#ArialMT-30"/>
       <use xlink:href="#ArialMT-2e" x="55.615234"/>
       <use xlink:href="#ArialMT-34" x="83.398438"/>
      </g>
     </g>
    </g>
   </g>
   <g id="line2d_36">
    <path d="M 482.095068 104.180067 
L 483.662861 104.027929 
L 484.558743 103.744003 
L 485.454625 103.184267 
L 486.126537 102.527431 
L 487.022419 101.285685 
L 487.918301 99.530319 
L 488.590212 97.724389 
L 489.262124 95.300991 
L 489.934035 92.080393 
L 490.829917 86.424216 
L 491.949769 77.525375 
L 493.517563 63.029054 
L 496.87712 30.437553 
L 497.773002 24.471534 
L 498.668884 20.178858 
L 499.340796 17.996363 
L 499.788737 17.055106 
L 500.236678 16.561517 
L 500.460648 16.49419 
L 500.684619 16.552159 
L 501.13256 17.056051 
L 501.580501 18.084338 
L 502.252412 20.568474 
L 503.148294 25.309317 
L 507.403733 51.546464 
L 508.299615 59.047584 
L 510.987261 83.367542 
L 511.883143 88.558178 
L 512.555055 91.28091 
L 513.226966 93.27187 
L 514.122848 95.236801 
L 515.466671 97.517632 
L 516.586524 98.987844 
L 517.258435 99.587456 
L 517.930347 99.954704 
L 519.27417 100.329523 
L 520.170052 100.71498 
L 521.065934 101.388012 
L 523.529609 103.498415 
L 524.425491 103.89461 
L 525.545343 104.116747 
L 526.665196 104.18312 
L 526.665196 104.18312 
" clip-path="url(#pc4d6ddc7b6)" style="fill: none; stroke: #ff4500; stroke-width: 1.5; stroke-linecap: round"/>
   </g>
   <g id="line2d_37">
    <path d="M 472.632595 104.191364 
L 474.827584 104.059478 
L 476.395434 103.739003 
L 478.276853 103.35919 
L 480.158273 103.111427 
L 480.785413 102.804643 
L 481.412553 102.24714 
L 482.039693 101.377489 
L 482.666833 100.155214 
L 483.293972 98.551971 
L 484.234682 95.37305 
L 485.175392 91.160753 
L 486.116102 85.751501 
L 487.056812 78.918694 
L 487.997521 70.426352 
L 489.251801 56.536633 
L 491.446791 30.804159 
L 492.073931 25.282936 
L 492.701071 21.33261 
L 493.32821 19.168368 
L 493.64178 18.771104 
L 493.95535 18.808716 
L 494.26892 19.243746 
L 494.89606 21.072463 
L 497.09105 29.432392 
L 497.71819 30.715935 
L 498.972469 32.874052 
L 499.599609 34.651067 
L 500.226749 37.23532 
L 501.167459 42.504667 
L 502.421739 51.240904 
L 504.616728 68.778013 
L 505.871008 77.868398 
L 506.811718 83.391108 
L 507.752428 87.936119 
L 508.693137 91.556176 
L 509.633847 94.151593 
L 510.574557 95.913205 
L 514.650966 102.184185 
L 515.278106 102.666373 
L 516.218816 103.052695 
L 520.922365 104.082189 
L 522.803784 104.187033 
L 525.312344 104.112848 
L 526.880194 103.853463 
L 529.075183 103.42834 
L 530.015893 103.474509 
L 531.897313 103.89054 
L 533.465162 104.127565 
L 535.033012 104.191364 
L 535.033012 104.191364 
" clip-path="url(#pc4d6ddc7b6)" style="fill: none; stroke: #1e90ff; stroke-width: 1.5; stroke-linecap: round"/>
   </g>
   <g id="patch_23">
    <path d="M 469.512574 104.2 
L 469.512574 12.109331 
" style="fill: none; stroke: #cccccc; stroke-width: 0.8; stroke-linejoin: miter; stroke-linecap: square"/>
   </g>
   <g id="patch_24">
    <path d="M 538.153033 104.2 
L 538.153033 12.109331 
" style="fill: none; stroke: #cccccc; stroke-width: 0.8; stroke-linejoin: miter; stroke-linecap: square"/>
   </g>
   <g id="patch_25">
    <path d="M 469.512574 104.2 
L 538.153033 104.2 
" style="fill: none; stroke: #cccccc; stroke-width: 0.8; stroke-linejoin: miter; stroke-linecap: square"/>
   </g>
   <g id="patch_26">
    <path d="M 469.512574 12.109331 
L 538.153033 12.109331 
" style="fill: none; stroke: #cccccc; stroke-width: 0.8; stroke-linejoin: miter; stroke-linecap: square"/>
   </g>
  </g>
  <g id="axes_6">
   <g id="patch_27">
    <path d="M 575.721967 104.2 
L 644.362426 104.2 
L 644.362426 12.109331 
L 575.721967 12.109331 
z
" style="fill: #ffffff"/>
   </g>
   <g id="matplotlib.axis_11">
    <g id="xtick_11">
     <g id="line2d_38">
      <path d="M 596.411036 104.2 
L 596.411036 12.109331 
" clip-path="url(#p3bfbe6ff5a)" style="fill: none; stroke: #cccccc; stroke-width: 0.8; stroke-linecap: round"/>
     </g>
     <g id="text_34">
      <!-- 0 -->
      <g style="fill: #262626" transform="translate(593.630567 118.357812)scale(0.1 -0.1)">
       <use xlink:href="#ArialMT-30"/>
      </g>
     </g>
    </g>
    <g id="xtick_12">
     <g id="line2d_39">
      <path d="M 636.297453 104.2 
L 636.297453 12.109331 
" clip-path="url(#p3bfbe6ff5a)" style="fill: none; stroke: #cccccc; stroke-width: 0.8; stroke-linecap: round"/>
     </g>
     <g id="text_35">
      <!-- 5 -->
      <g style="fill: #262626" transform="translate(633.516984 118.357812)scale(0.1 -0.1)">
       <use xlink:href="#ArialMT-35"/>
      </g>
     </g>
    </g>
    <g id="text_36">
     <!-- compactness1 -->
     <g style="fill: #262626" transform="translate(577.805478 131.532813)scale(0.1 -0.1)">
      <defs>
       <path id="ArialMT-63" d="M 2588 1216 
L 3141 1144 
Q 3050 572 2676 248 
Q 2303 -75 1759 -75 
Q 1078 -75 664 370 
Q 250 816 250 1647 
Q 250 2184 428 2587 
Q 606 2991 970 3192 
Q 1334 3394 1763 3394 
Q 2303 3394 2647 3120 
Q 2991 2847 3088 2344 
L 2541 2259 
Q 2463 2594 2264 2762 
Q 2066 2931 1784 2931 
Q 1359 2931 1093 2626 
Q 828 2322 828 1663 
Q 828 994 1084 691 
Q 1341 388 1753 388 
Q 2084 388 2306 591 
Q 2528 794 2588 1216 
z
" transform="scale(0.015625)"/>
      </defs>
      <use xlink:href="#ArialMT-63"/>
      <use xlink:href="#ArialMT-6f" x="50"/>
      <use xlink:href="#ArialMT-6d" x="105.615234"/>
      <use xlink:href="#ArialMT-70" x="188.916016"/>
      <use xlink:href="#ArialMT-61" x="244.53125"/>
      <use xlink:href="#ArialMT-63" x="300.146484"/>
      <use xlink:href="#ArialMT-74" x="350.146484"/>
      <use xlink:href="#ArialMT-6e" x="377.929688"/>
      <use xlink:href="#ArialMT-65" x="433.544922"/>
      <use xlink:href="#ArialMT-73" x="489.160156"/>
      <use xlink:href="#ArialMT-73" x="539.160156"/>
      <use xlink:href="#ArialMT-31" x="589.160156"/>
     </g>
    </g>
   </g>
   <g id="matplotlib.axis_12">
    <g id="ytick_18">
     <g id="line2d_40">
      <path d="M 575.721967 104.2 
L 644.362426 104.2 
" clip-path="url(#p3bfbe6ff5a)" style="fill: none; stroke: #cccccc; stroke-width: 0.8; stroke-linecap: round"/>
     </g>
     <g id="text_37">
      <!-- 0.0 -->
      <g style="fill: #262626" transform="translate(554.821967 107.778906)scale(0.1 -0.1)">
       <use xlink:href="#ArialMT-30"/>
       <use xlink:href="#ArialMT-2e" x="55.615234"/>
       <use xlink:href="#ArialMT-30" x="83.398438"/>
      </g>
     </g>
    </g>
    <g id="ytick_19">
     <g id="line2d_41">
      <path d="M 575.721967 78.78145 
L 644.362426 78.78145 
" clip-path="url(#p3bfbe6ff5a)" style="fill: none; stroke: #cccccc; stroke-width: 0.8; stroke-linecap: round"/>
     </g>
     <g id="text_38">
      <!-- 0.2 -->
      <g style="fill: #262626" transform="translate(554.821967 82.360356)scale(0.1 -0.1)">
       <use xlink:href="#ArialMT-30"/>
       <use xlink:href="#ArialMT-2e" x="55.615234"/>
       <use xlink:href="#ArialMT-32" x="83.398438"/>
      </g>
     </g>
    </g>
    <g id="ytick_20">
     <g id="line2d_42">
      <path d="M 575.721967 53.362899 
L 644.362426 53.362899 
" clip-path="url(#p3bfbe6ff5a)" style="fill: none; stroke: #cccccc; stroke-width: 0.8; stroke-linecap: round"/>
     </g>
     <g id="text_39">
      <!-- 0.4 -->
      <g style="fill: #262626" transform="translate(554.821967 56.941806)scale(0.1 -0.1)">
       <use xlink:href="#ArialMT-30"/>
       <use xlink:href="#ArialMT-2e" x="55.615234"/>
       <use xlink:href="#ArialMT-34" x="83.398438"/>
      </g>
     </g>
    </g>
    <g id="ytick_21">
     <g id="line2d_43">
      <path d="M 575.721967 27.944349 
L 644.362426 27.944349 
" clip-path="url(#p3bfbe6ff5a)" style="fill: none; stroke: #cccccc; stroke-width: 0.8; stroke-linecap: round"/>
     </g>
     <g id="text_40">
      <!-- 0.6 -->
      <g style="fill: #262626" transform="translate(554.821967 31.523255)scale(0.1 -0.1)">
       <defs>
        <path id="ArialMT-36" d="M 3184 3459 
L 2625 3416 
Q 2550 3747 2413 3897 
Q 2184 4138 1850 4138 
Q 1581 4138 1378 3988 
Q 1113 3794 959 3422 
Q 806 3050 800 2363 
Q 1003 2672 1297 2822 
Q 1591 2972 1913 2972 
Q 2475 2972 2870 2558 
Q 3266 2144 3266 1488 
Q 3266 1056 3080 686 
Q 2894 316 2569 119 
Q 2244 -78 1831 -78 
Q 1128 -78 684 439 
Q 241 956 241 2144 
Q 241 3472 731 4075 
Q 1159 4600 1884 4600 
Q 2425 4600 2770 4297 
Q 3116 3994 3184 3459 
z
M 888 1484 
Q 888 1194 1011 928 
Q 1134 663 1356 523 
Q 1578 384 1822 384 
Q 2178 384 2434 671 
Q 2691 959 2691 1453 
Q 2691 1928 2437 2201 
Q 2184 2475 1800 2475 
Q 1419 2475 1153 2201 
Q 888 1928 888 1484 
z
" transform="scale(0.015625)"/>
       </defs>
       <use xlink:href="#ArialMT-30"/>
       <use xlink:href="#ArialMT-2e" x="55.615234"/>
       <use xlink:href="#ArialMT-36" x="83.398438"/>
      </g>
     </g>
    </g>
   </g>
   <g id="line2d_44">
    <path d="M 579.210779 104.183727 
L 581.392796 104.033729 
L 582.639663 103.700922 
L 583.574813 103.175809 
L 584.198246 102.624941 
L 584.82168 101.868381 
L 585.75683 100.281571 
L 586.69198 98.117381 
L 587.938847 94.442516 
L 590.120864 86.919905 
L 592.302881 78.87926 
L 593.549748 73.456723 
L 595.108331 65.380216 
L 596.978632 55.511959 
L 597.913782 51.815973 
L 598.537215 50.178006 
L 599.160649 49.298696 
L 599.472366 49.147754 
L 599.784082 49.182418 
L 600.095799 49.392304 
L 600.719232 50.279276 
L 601.342666 51.669189 
L 602.277816 54.361204 
L 604.77155 62.623162 
L 609.759017 79.175492 
L 611.317601 83.242598 
L 613.187901 87.453519 
L 615.681635 92.489521 
L 617.240218 95.181522 
L 618.175368 96.449522 
L 619.110519 97.363674 
L 620.045669 97.922047 
L 621.292536 98.289976 
L 622.851119 98.725767 
L 623.786269 99.221435 
L 625.033136 100.17532 
L 627.215153 101.944104 
L 628.46202 102.630948 
L 629.708887 103.026363 
L 631.267471 103.246598 
L 635.008071 103.669372 
L 638.125238 104.083886 
L 640.930689 104.189464 
L 641.242405 104.192414 
L 641.242405 104.192414 
" clip-path="url(#p3bfbe6ff5a)" style="fill: none; stroke: #ff4500; stroke-width: 1.5; stroke-linecap: round"/>
   </g>
   <g id="line2d_45">
    <path d="M 578.841988 104.187568 
L 580.261991 104.037233 
L 580.870564 103.794565 
L 581.479137 103.284016 
L 581.884853 102.696648 
L 582.290568 101.815591 
L 582.696283 100.535052 
L 583.304856 97.590703 
L 583.913429 93.028793 
L 584.522002 86.529083 
L 585.333433 74.900694 
L 588.17344 29.270018 
L 588.782013 23.290786 
L 589.390586 19.369165 
L 589.796301 17.772628 
L 590.202016 16.848661 
L 590.607731 16.49424 
L 590.810589 16.51538 
L 591.013447 16.671058 
L 591.419162 17.423013 
L 591.824877 18.855389 
L 592.230593 21.080207 
L 592.839166 25.985207 
L 593.650596 34.800294 
L 595.0706 50.254763 
L 595.88203 56.285908 
L 596.693461 60.577402 
L 597.910607 66.745771 
L 599.127753 74.334939 
L 601.156329 86.869003 
L 602.170617 91.769485 
L 602.982048 94.440375 
L 603.793479 96.174385 
L 605.010624 98.073744 
L 606.633486 100.289153 
L 607.647774 101.283028 
L 608.86492 102.082647 
L 610.284923 102.760281 
L 611.096354 102.977691 
L 611.704927 102.975923 
L 612.516357 102.705878 
L 613.936361 102.050242 
L 614.544934 102.06899 
L 615.153507 102.354198 
L 617.587799 103.953909 
L 618.602087 104.146765 
L 619.21066 104.182539 
L 619.21066 104.182539 
" clip-path="url(#p3bfbe6ff5a)" style="fill: none; stroke: #1e90ff; stroke-width: 1.5; stroke-linecap: round"/>
   </g>
   <g id="patch_28">
    <path d="M 575.721967 104.2 
L 575.721967 12.109331 
" style="fill: none; stroke: #cccccc; stroke-width: 0.8; stroke-linejoin: miter; stroke-linecap: square"/>
   </g>
   <g id="patch_29">
    <path d="M 644.362426 104.2 
L 644.362426 12.109331 
" style="fill: none; stroke: #cccccc; stroke-width: 0.8; stroke-linejoin: miter; stroke-linecap: square"/>
   </g>
   <g id="patch_30">
    <path d="M 575.721967 104.2 
L 644.362426 104.2 
" style="fill: none; stroke: #cccccc; stroke-width: 0.8; stroke-linejoin: miter; stroke-linecap: square"/>
   </g>
   <g id="patch_31">
    <path d="M 575.721967 12.109331 
L 644.362426 12.109331 
" style="fill: none; stroke: #cccccc; stroke-width: 0.8; stroke-linejoin: miter; stroke-linecap: square"/>
   </g>
  </g>
  <g id="axes_7">
   <g id="patch_32">
    <path d="M 681.931361 104.2 
L 750.57182 104.2 
L 750.57182 12.109331 
L 681.931361 12.109331 
z
" style="fill: #ffffff"/>
   </g>
   <g id="matplotlib.axis_13">
    <g id="xtick_13">
     <g id="line2d_46">
      <path d="M 700.949692 104.2 
L 700.949692 12.109331 
" clip-path="url(#p984bb017fe)" style="fill: none; stroke: #cccccc; stroke-width: 0.8; stroke-linecap: round"/>
     </g>
     <g id="text_41">
      <!-- 0 -->
      <g style="fill: #262626" transform="translate(698.169224 118.357812)scale(0.1 -0.1)">
       <use xlink:href="#ArialMT-30"/>
      </g>
     </g>
    </g>
    <g id="xtick_14">
     <g id="line2d_47">
      <path d="M 745.564446 104.2 
L 745.564446 12.109331 
" clip-path="url(#p984bb017fe)" style="fill: none; stroke: #cccccc; stroke-width: 0.8; stroke-linecap: round"/>
     </g>
     <g id="text_42">
      <!-- 5 -->
      <g style="fill: #262626" transform="translate(742.783978 118.357812)scale(0.1 -0.1)">
       <use xlink:href="#ArialMT-35"/>
      </g>
     </g>
    </g>
    <g id="text_43">
     <!-- concavity1 -->
     <g style="fill: #262626" transform="translate(692.629715 131.532813)scale(0.1 -0.1)">
      <defs>
       <path id="ArialMT-76" d="M 1344 0 
L 81 3319 
L 675 3319 
L 1388 1331 
Q 1503 1009 1600 663 
Q 1675 925 1809 1294 
L 2547 3319 
L 3125 3319 
L 1869 0 
L 1344 0 
z
" transform="scale(0.015625)"/>
      </defs>
      <use xlink:href="#ArialMT-63"/>
      <use xlink:href="#ArialMT-6f" x="50"/>
      <use xlink:href="#ArialMT-6e" x="105.615234"/>
      <use xlink:href="#ArialMT-63" x="161.230469"/>
      <use xlink:href="#ArialMT-61" x="211.230469"/>
      <use xlink:href="#ArialMT-76" x="266.845703"/>
      <use xlink:href="#ArialMT-69" x="316.845703"/>
      <use xlink:href="#ArialMT-74" x="339.0625"/>
      <use xlink:href="#ArialMT-79" x="366.845703"/>
      <use xlink:href="#ArialMT-31" x="416.845703"/>
     </g>
    </g>
   </g>
   <g id="matplotlib.axis_14">
    <g id="ytick_22">
     <g id="line2d_48">
      <path d="M 681.931361 104.2 
L 750.57182 104.2 
" clip-path="url(#p984bb017fe)" style="fill: none; stroke: #cccccc; stroke-width: 0.8; stroke-linecap: round"/>
     </g>
     <g id="text_44">
      <!-- 0.0 -->
      <g style="fill: #262626" transform="translate(661.031361 107.778906)scale(0.1 -0.1)">
       <use xlink:href="#ArialMT-30"/>
       <use xlink:href="#ArialMT-2e" x="55.615234"/>
       <use xlink:href="#ArialMT-30" x="83.398438"/>
      </g>
     </g>
    </g>
    <g id="ytick_23">
     <g id="line2d_49">
      <path d="M 681.931361 63.005766 
L 750.57182 63.005766 
" clip-path="url(#p984bb017fe)" style="fill: none; stroke: #cccccc; stroke-width: 0.8; stroke-linecap: round"/>
     </g>
     <g id="text_45">
      <!-- 0.5 -->
      <g style="fill: #262626" transform="translate(661.031361 66.584672)scale(0.1 -0.1)">
       <use xlink:href="#ArialMT-30"/>
       <use xlink:href="#ArialMT-2e" x="55.615234"/>
       <use xlink:href="#ArialMT-35" x="83.398438"/>
      </g>
     </g>
    </g>
    <g id="ytick_24">
     <g id="line2d_50">
      <path d="M 681.931361 21.811531 
L 750.57182 21.811531 
" clip-path="url(#p984bb017fe)" style="fill: none; stroke: #cccccc; stroke-width: 0.8; stroke-linecap: round"/>
     </g>
     <g id="text_46">
      <!-- 1.0 -->
      <g style="fill: #262626" transform="translate(661.031361 25.390437)scale(0.1 -0.1)">
       <use xlink:href="#ArialMT-31"/>
       <use xlink:href="#ArialMT-2e" x="55.615234"/>
       <use xlink:href="#ArialMT-30" x="83.398438"/>
      </g>
     </g>
    </g>
   </g>
   <g id="line2d_51">
    <path d="M 685.051381 104.181436 
L 687.246371 104.035101 
L 688.500651 103.746467 
L 689.441361 103.330774 
L 690.38207 102.675476 
L 691.32278 101.740598 
L 692.26349 100.525247 
L 693.51777 98.535701 
L 695.085619 95.586668 
L 696.339899 92.784964 
L 697.594179 89.32274 
L 698.848459 85.008859 
L 702.611298 71.03694 
L 703.552008 68.926384 
L 704.179148 67.992413 
L 704.806287 67.402017 
L 705.433427 67.10655 
L 706.060567 67.057766 
L 706.687707 67.219693 
L 707.314847 67.573376 
L 708.255557 68.454277 
L 709.196267 69.751481 
L 710.450546 72.03813 
L 712.645536 76.767426 
L 716.094805 84.529633 
L 720.171214 94.198464 
L 721.425494 96.394934 
L 722.366204 97.604125 
L 723.306914 98.444335 
L 724.247624 98.973654 
L 725.501903 99.354153 
L 728.951173 100.125129 
L 730.519022 100.779212 
L 734.595431 102.669448 
L 735.849711 102.943436 
L 737.731131 103.073408 
L 739.92612 103.269872 
L 745.570379 104.139804 
L 747.451799 104.189566 
L 747.451799 104.189566 
" clip-path="url(#p984bb017fe)" style="fill: none; stroke: #ff4500; stroke-width: 1.5; stroke-linecap: round"/>
   </g>
   <g id="line2d_52">
    <path d="M 686.495405 104.04103 
L 687.048506 103.724836 
L 687.601607 102.946605 
L 688.154707 101.273187 
L 688.707808 98.124577 
L 689.260908 92.926818 
L 689.814009 85.365488 
L 690.64366 70.099146 
L 692.579512 31.289248 
L 693.132613 23.505785 
L 693.685714 18.445197 
L 693.962264 17.067968 
L 694.238814 16.494533 
L 694.515365 16.722434 
L 694.791915 17.723222 
L 695.345016 21.80011 
L 696.174667 31.655327 
L 698.387069 60.874206 
L 699.21672 69.13116 
L 700.046371 75.500927 
L 700.876022 80.269864 
L 702.535324 87.928352 
L 704.194626 95.054097 
L 705.024277 97.609996 
L 705.853928 99.25715 
L 706.683579 100.301086 
L 709.172532 102.740014 
L 710.002183 103.375251 
L 710.831834 103.711318 
L 711.661485 103.755383 
L 714.150438 103.612086 
L 717.745592 103.797988 
L 719.681444 104.135819 
L 721.340746 104.144019 
L 722.723498 103.912301 
L 725.212451 103.225623 
L 726.042102 103.29861 
L 727.424853 103.738174 
L 728.807605 104.084828 
L 730.466907 104.192176 
L 733.785511 104.146363 
L 735.168263 103.944733 
L 736.827564 103.657681 
L 737.933766 103.744998 
L 740.422719 104.1578 
L 741.52892 104.193924 
L 741.52892 104.193924 
" clip-path="url(#p984bb017fe)" style="fill: none; stroke: #1e90ff; stroke-width: 1.5; stroke-linecap: round"/>
   </g>
   <g id="patch_33">
    <path d="M 681.931361 104.2 
L 681.931361 12.109331 
" style="fill: none; stroke: #cccccc; stroke-width: 0.8; stroke-linejoin: miter; stroke-linecap: square"/>
   </g>
   <g id="patch_34">
    <path d="M 750.57182 104.2 
L 750.57182 12.109331 
" style="fill: none; stroke: #cccccc; stroke-width: 0.8; stroke-linejoin: miter; stroke-linecap: square"/>
   </g>
   <g id="patch_35">
    <path d="M 681.931361 104.2 
L 750.57182 104.2 
" style="fill: none; stroke: #cccccc; stroke-width: 0.8; stroke-linejoin: miter; stroke-linecap: square"/>
   </g>
   <g id="patch_36">
    <path d="M 681.931361 12.109331 
L 750.57182 12.109331 
" style="fill: none; stroke: #cccccc; stroke-width: 0.8; stroke-linejoin: miter; stroke-linecap: square"/>
   </g>
  </g>
  <g id="axes_8">
   <g id="patch_37">
    <path d="M 788.140754 104.2 
L 856.781213 104.2 
L 856.781213 12.109331 
L 788.140754 12.109331 
z
" style="fill: #ffffff"/>
   </g>
   <g id="matplotlib.axis_15">
    <g id="xtick_15">
     <g id="line2d_53">
      <path d="M 807.121153 104.2 
L 807.121153 12.109331 
" clip-path="url(#pcc7fcb0873)" style="fill: none; stroke: #cccccc; stroke-width: 0.8; stroke-linecap: round"/>
     </g>
     <g id="text_47">
      <!-- 0 -->
      <g style="fill: #262626" transform="translate(804.340684 118.357812)scale(0.1 -0.1)">
       <use xlink:href="#ArialMT-30"/>
      </g>
     </g>
    </g>
    <g id="xtick_16">
     <g id="line2d_54">
      <path d="M 855.20861 104.2 
L 855.20861 12.109331 
" clip-path="url(#pcc7fcb0873)" style="fill: none; stroke: #cccccc; stroke-width: 0.8; stroke-linecap: round"/>
     </g>
     <g id="text_48">
      <!-- 5 -->
      <g style="fill: #262626" transform="translate(852.428141 118.357812)scale(0.1 -0.1)">
       <use xlink:href="#ArialMT-35"/>
      </g>
     </g>
    </g>
    <g id="text_49">
     <!-- concave_points1 -->
     <g style="fill: #262626" transform="translate(784.936765 131.532813)scale(0.1 -0.1)">
      <defs>
       <path id="ArialMT-5f" d="M -97 -1272 
L -97 -866 
L 3631 -866 
L 3631 -1272 
L -97 -1272 
z
" transform="scale(0.015625)"/>
      </defs>
      <use xlink:href="#ArialMT-63"/>
      <use xlink:href="#ArialMT-6f" x="50"/>
      <use xlink:href="#ArialMT-6e" x="105.615234"/>
      <use xlink:href="#ArialMT-63" x="161.230469"/>
      <use xlink:href="#ArialMT-61" x="211.230469"/>
      <use xlink:href="#ArialMT-76" x="266.845703"/>
      <use xlink:href="#ArialMT-65" x="316.845703"/>
      <use xlink:href="#ArialMT-5f" x="372.460938"/>
      <use xlink:href="#ArialMT-70" x="428.076172"/>
      <use xlink:href="#ArialMT-6f" x="483.691406"/>
      <use xlink:href="#ArialMT-69" x="539.306641"/>
      <use xlink:href="#ArialMT-6e" x="561.523438"/>
      <use xlink:href="#ArialMT-74" x="617.138672"/>
      <use xlink:href="#ArialMT-73" x="644.921875"/>
      <use xlink:href="#ArialMT-31" x="694.921875"/>
     </g>
    </g>
   </g>
   <g id="matplotlib.axis_16">
    <g id="ytick_25">
     <g id="line2d_55">
      <path d="M 788.140754 104.2 
L 856.781213 104.2 
" clip-path="url(#pcc7fcb0873)" style="fill: none; stroke: #cccccc; stroke-width: 0.8; stroke-linecap: round"/>
     </g>
     <g id="text_50">
      <!-- 0.0 -->
      <g style="fill: #262626" transform="translate(767.240754 107.778906)scale(0.1 -0.1)">
       <use xlink:href="#ArialMT-30"/>
       <use xlink:href="#ArialMT-2e" x="55.615234"/>
       <use xlink:href="#ArialMT-30" x="83.398438"/>
      </g>
     </g>
    </g>
    <g id="ytick_26">
     <g id="line2d_56">
      <path d="M 788.140754 65.328113 
L 856.781213 65.328113 
" clip-path="url(#pcc7fcb0873)" style="fill: none; stroke: #cccccc; stroke-width: 0.8; stroke-linecap: round"/>
     </g>
     <g id="text_51">
      <!-- 0.5 -->
      <g style="fill: #262626" transform="translate(767.240754 68.907019)scale(0.1 -0.1)">
       <use xlink:href="#ArialMT-30"/>
       <use xlink:href="#ArialMT-2e" x="55.615234"/>
       <use xlink:href="#ArialMT-35" x="83.398438"/>
      </g>
     </g>
    </g>
    <g id="ytick_27">
     <g id="line2d_57">
      <path d="M 788.140754 26.456226 
L 856.781213 26.456226 
" clip-path="url(#pcc7fcb0873)" style="fill: none; stroke: #cccccc; stroke-width: 0.8; stroke-linecap: round"/>
     </g>
     <g id="text_52">
      <!-- 1.0 -->
      <g style="fill: #262626" transform="translate(767.240754 30.035133)scale(0.1 -0.1)">
       <use xlink:href="#ArialMT-31"/>
       <use xlink:href="#ArialMT-2e" x="55.615234"/>
       <use xlink:href="#ArialMT-30" x="83.398438"/>
      </g>
     </g>
    </g>
   </g>
   <g id="line2d_58">
    <path d="M 791.260775 104.18827 
L 793.769334 104.057411 
L 795.023614 103.808383 
L 795.964324 103.445393 
L 796.905034 102.865054 
L 797.845743 102.026977 
L 799.100023 100.521945 
L 800.981443 97.7785 
L 803.490002 93.806753 
L 804.430712 91.904109 
L 805.371422 89.511308 
L 806.625702 85.528895 
L 809.134261 76.97646 
L 810.074971 74.469002 
L 811.329251 71.876165 
L 814.46495 66.399327 
L 815.40566 65.145432 
L 816.0328 64.732641 
L 816.34637 64.701354 
L 816.65994 64.803499 
L 816.97351 65.047607 
L 817.60065 65.976666 
L 818.227789 67.477979 
L 819.168499 70.631552 
L 820.736349 77.156982 
L 822.304199 83.339332 
L 823.244908 86.289502 
L 824.185618 88.594417 
L 825.126328 90.356079 
L 826.380608 92.121083 
L 827.634888 93.468775 
L 828.889167 94.517754 
L 830.457017 95.523333 
L 832.338437 96.709545 
L 833.906286 98.019852 
L 836.728416 100.519383 
L 837.669125 101.069356 
L 838.609835 101.4164 
L 839.864115 101.644237 
L 842.372675 101.994761 
L 843.940524 102.455764 
L 847.703363 103.700879 
L 849.584783 104.023761 
L 852.093343 104.173647 
L 853.661192 104.194215 
L 853.661192 104.194215 
" clip-path="url(#pcc7fcb0873)" style="fill: none; stroke: #ff4500; stroke-width: 1.5; stroke-linecap: round"/>
   </g>
   <g id="line2d_59">
    <path d="M 791.33131 104.089175 
L 791.760645 103.891543 
L 792.189979 103.435518 
L 792.619314 102.508296 
L 793.048648 100.845411 
L 793.477983 98.210032 
L 794.050429 93.049593 
L 794.909098 82.788317 
L 798.343774 37.674913 
L 799.345555 24.006642 
L 799.918001 18.714275 
L 800.347336 16.737472 
L 800.490447 16.506047 
L 800.633559 16.494326 
L 800.77667 16.703055 
L 801.062893 17.778684 
L 801.492228 21.004373 
L 802.064674 28.121273 
L 802.780231 40.469892 
L 804.068235 63.213121 
L 804.783793 71.699743 
L 805.49935 77.168087 
L 806.358019 81.714854 
L 807.502911 86.65126 
L 808.504692 90.068047 
L 809.649584 93.18545 
L 810.794476 95.664999 
L 812.941149 99.564677 
L 813.94293 100.941679 
L 815.087822 102.101189 
L 816.375825 103.111259 
L 817.520718 103.778986 
L 818.379387 104.063362 
L 819.524279 104.184792 
L 819.810502 104.192305 
L 819.810502 104.192305 
" clip-path="url(#pcc7fcb0873)" style="fill: none; stroke: #1e90ff; stroke-width: 1.5; stroke-linecap: round"/>
   </g>
   <g id="patch_38">
    <path d="M 788.140754 104.2 
L 788.140754 12.109331 
" style="fill: none; stroke: #cccccc; stroke-width: 0.8; stroke-linejoin: miter; stroke-linecap: square"/>
   </g>
   <g id="patch_39">
    <path d="M 856.781213 104.2 
L 856.781213 12.109331 
" style="fill: none; stroke: #cccccc; stroke-width: 0.8; stroke-linejoin: miter; stroke-linecap: square"/>
   </g>
   <g id="patch_40">
    <path d="M 788.140754 104.2 
L 856.781213 104.2 
" style="fill: none; stroke: #cccccc; stroke-width: 0.8; stroke-linejoin: miter; stroke-linecap: square"/>
   </g>
   <g id="patch_41">
    <path d="M 788.140754 12.109331 
L 856.781213 12.109331 
" style="fill: none; stroke: #cccccc; stroke-width: 0.8; stroke-linejoin: miter; stroke-linecap: square"/>
   </g>
  </g>
  <g id="axes_9">
   <g id="patch_42">
    <path d="M 894.350147 104.2 
L 962.990607 104.2 
L 962.990607 12.109331 
L 894.350147 12.109331 
z
" style="fill: #ffffff"/>
   </g>
   <g id="matplotlib.axis_17">
    <g id="xtick_17">
     <g id="line2d_60">
      <path d="M 922.025616 104.2 
L 922.025616 12.109331 
" clip-path="url(#p79d0f7c726)" style="fill: none; stroke: #cccccc; stroke-width: 0.8; stroke-linecap: round"/>
     </g>
     <g id="text_53">
      <!-- 0 -->
      <g style="fill: #262626" transform="translate(919.245148 118.357812)scale(0.1 -0.1)">
       <use xlink:href="#ArialMT-30"/>
      </g>
     </g>
    </g>
    <g id="xtick_18">
     <g id="line2d_61">
      <path d="M 956.294781 104.2 
L 956.294781 12.109331 
" clip-path="url(#p79d0f7c726)" style="fill: none; stroke: #cccccc; stroke-width: 0.8; stroke-linecap: round"/>
     </g>
     <g id="text_54">
      <!-- 5 -->
      <g style="fill: #262626" transform="translate(953.514312 118.357812)scale(0.1 -0.1)">
       <use xlink:href="#ArialMT-35"/>
      </g>
     </g>
    </g>
    <g id="text_55">
     <!-- symmetry1 -->
     <g style="fill: #262626" transform="translate(904.225846 131.532813)scale(0.1 -0.1)">
      <use xlink:href="#ArialMT-73"/>
      <use xlink:href="#ArialMT-79" x="50"/>
      <use xlink:href="#ArialMT-6d" x="100"/>
      <use xlink:href="#ArialMT-6d" x="183.300781"/>
      <use xlink:href="#ArialMT-65" x="266.601562"/>
      <use xlink:href="#ArialMT-74" x="322.216797"/>
      <use xlink:href="#ArialMT-72" x="350"/>
      <use xlink:href="#ArialMT-79" x="383.300781"/>
      <use xlink:href="#ArialMT-31" x="433.300781"/>
     </g>
    </g>
   </g>
   <g id="matplotlib.axis_18">
    <g id="ytick_28">
     <g id="line2d_62">
      <path d="M 894.350147 104.2 
L 962.990607 104.2 
" clip-path="url(#p79d0f7c726)" style="fill: none; stroke: #cccccc; stroke-width: 0.8; stroke-linecap: round"/>
     </g>
     <g id="text_56">
      <!-- 0.0 -->
      <g style="fill: #262626" transform="translate(873.450147 107.778906)scale(0.1 -0.1)">
       <use xlink:href="#ArialMT-30"/>
       <use xlink:href="#ArialMT-2e" x="55.615234"/>
       <use xlink:href="#ArialMT-30" x="83.398438"/>
      </g>
     </g>
    </g>
    <g id="ytick_29">
     <g id="line2d_63">
      <path d="M 894.350147 65.856166 
L 962.990607 65.856166 
" clip-path="url(#p79d0f7c726)" style="fill: none; stroke: #cccccc; stroke-width: 0.8; stroke-linecap: round"/>
     </g>
     <g id="text_57">
      <!-- 0.2 -->
      <g style="fill: #262626" transform="translate(873.450147 69.435073)scale(0.1 -0.1)">
       <use xlink:href="#ArialMT-30"/>
       <use xlink:href="#ArialMT-2e" x="55.615234"/>
       <use xlink:href="#ArialMT-32" x="83.398438"/>
      </g>
     </g>
    </g>
    <g id="ytick_30">
     <g id="line2d_64">
      <path d="M 894.350147 27.512333 
L 962.990607 27.512333 
" clip-path="url(#p79d0f7c726)" style="fill: none; stroke: #cccccc; stroke-width: 0.8; stroke-linecap: round"/>
     </g>
     <g id="text_58">
      <!-- 0.4 -->
      <g style="fill: #262626" transform="translate(873.450147 31.091239)scale(0.1 -0.1)">
       <use xlink:href="#ArialMT-30"/>
       <use xlink:href="#ArialMT-2e" x="55.615234"/>
       <use xlink:href="#ArialMT-34" x="83.398438"/>
      </g>
     </g>
    </g>
   </g>
   <g id="line2d_65">
    <path d="M 902.316353 104.188199 
L 904.630091 104.055302 
L 906.076178 103.743607 
L 907.233047 103.242988 
L 908.100698 102.639125 
L 908.96835 101.72075 
L 909.546785 100.842622 
L 910.125219 99.664209 
L 910.703654 98.099899 
L 911.282088 96.068381 
L 912.14974 92.024477 
L 913.017392 86.784773 
L 914.463478 76.236146 
L 916.487999 61.595305 
L 919.669388 40.004697 
L 921.115475 30.341256 
L 921.693909 27.432705 
L 922.272343 25.390823 
L 922.850778 24.34377 
L 923.139995 24.212429 
L 923.429212 24.342993 
L 923.71843 24.729639 
L 924.296864 26.22269 
L 924.875299 28.543797 
L 925.74295 33.071615 
L 927.478254 42.516443 
L 928.635123 47.477219 
L 929.791992 52.317593 
L 930.659644 56.861306 
L 931.816513 64.435978 
L 933.841033 78.013214 
L 934.708685 82.427061 
L 935.576337 85.841627 
L 936.733206 89.305066 
L 937.890075 92.029573 
L 939.046944 94.177033 
L 940.203813 95.782941 
L 945.409723 101.75458 
L 946.277375 102.385818 
L 947.145027 102.72002 
L 948.012679 102.804804 
L 949.747982 102.635965 
L 951.194068 102.565024 
L 952.640155 102.744377 
L 954.375458 103.255835 
L 956.399979 103.865253 
L 958.135282 104.118998 
L 959.870586 104.188344 
L 959.870586 104.188344 
" clip-path="url(#p79d0f7c726)" style="fill: none; stroke: #ff4500; stroke-width: 1.5; stroke-linecap: round"/>
   </g>
   <g id="line2d_66">
    <path d="M 897.470168 104.191428 
L 899.625308 104.062875 
L 900.97227 103.76984 
L 902.319232 103.260284 
L 903.666194 102.517354 
L 904.743764 101.62615 
L 905.551941 100.700267 
L 906.360118 99.471538 
L 907.168295 97.740686 
L 907.70708 96.13416 
L 908.515257 92.76199 
L 909.323435 88.08261 
L 910.401004 80.163118 
L 912.286751 64.096929 
L 914.172498 46.025068 
L 916.058245 27.797815 
L 916.866422 21.658787 
L 917.405207 18.733221 
L 917.943992 16.983149 
L 918.213385 16.581436 
L 918.482777 16.494196 
L 918.752169 16.70788 
L 919.021562 17.199022 
L 919.560347 18.877546 
L 920.368524 22.493214 
L 921.984878 29.922907 
L 924.140018 38.536517 
L 924.948195 43.112902 
L 925.756372 49.02328 
L 926.833942 58.640988 
L 928.989081 78.397172 
L 930.066651 86.043932 
L 930.874828 90.467595 
L 931.683006 93.844987 
L 932.491183 96.287794 
L 933.29936 97.898405 
L 933.838145 98.568108 
L 934.37693 98.978282 
L 935.185107 99.280063 
L 937.340246 99.863342 
L 938.687209 100.213261 
L 940.303563 100.519976 
L 941.11174 100.920155 
L 942.458702 101.948263 
L 943.536272 102.665454 
L 944.613842 103.070818 
L 948.924121 104.067247 
L 950.809867 104.187137 
L 951.07926 104.191482 
L 951.07926 104.191482 
" clip-path="url(#p79d0f7c726)" style="fill: none; stroke: #1e90ff; stroke-width: 1.5; stroke-linecap: round"/>
   </g>
   <g id="patch_43">
    <path d="M 894.350147 104.2 
L 894.350147 12.109331 
" style="fill: none; stroke: #cccccc; stroke-width: 0.8; stroke-linejoin: miter; stroke-linecap: square"/>
   </g>
   <g id="patch_44">
    <path d="M 962.990607 104.2 
L 962.990607 12.109331 
" style="fill: none; stroke: #cccccc; stroke-width: 0.8; stroke-linejoin: miter; stroke-linecap: square"/>
   </g>
   <g id="patch_45">
    <path d="M 894.350147 104.2 
L 962.990607 104.2 
" style="fill: none; stroke: #cccccc; stroke-width: 0.8; stroke-linejoin: miter; stroke-linecap: square"/>
   </g>
   <g id="patch_46">
    <path d="M 894.350147 12.109331 
L 962.990607 12.109331 
" style="fill: none; stroke: #cccccc; stroke-width: 0.8; stroke-linejoin: miter; stroke-linecap: square"/>
   </g>
  </g>
  <g id="axes_10">
   <g id="patch_47">
    <path d="M 1000.559541 104.2 
L 1069.2 104.2 
L 1069.2 12.109331 
L 1000.559541 12.109331 
z
" style="fill: #ffffff"/>
   </g>
   <g id="matplotlib.axis_19">
    <g id="xtick_19">
     <g id="line2d_67">
      <path d="M 1024.088977 104.2 
L 1024.088977 12.109331 
" clip-path="url(#p8fa023873b)" style="fill: none; stroke: #cccccc; stroke-width: 0.8; stroke-linecap: round"/>
     </g>
     <g id="text_59">
      <!-- 0 -->
      <g style="fill: #262626" transform="translate(1021.308508 118.357812)scale(0.1 -0.1)">
       <use xlink:href="#ArialMT-30"/>
      </g>
     </g>
    </g>
    <g id="xtick_20">
     <g id="line2d_68">
      <path d="M 1058.998726 104.2 
L 1058.998726 12.109331 
" clip-path="url(#p8fa023873b)" style="fill: none; stroke: #cccccc; stroke-width: 0.8; stroke-linecap: round"/>
     </g>
     <g id="text_60">
      <!-- 5 -->
      <g style="fill: #262626" transform="translate(1056.218257 118.357812)scale(0.1 -0.1)">
       <use xlink:href="#ArialMT-35"/>
      </g>
     </g>
    </g>
    <g id="text_61">
     <!-- fractal_dimension1 -->
     <g style="fill: #262626" transform="translate(992.914927 131.625)scale(0.1 -0.1)">
      <defs>
       <path id="ArialMT-66" d="M 556 0 
L 556 2881 
L 59 2881 
L 59 3319 
L 556 3319 
L 556 3672 
Q 556 4006 616 4169 
Q 697 4388 901 4523 
Q 1106 4659 1475 4659 
Q 1713 4659 2000 4603 
L 1916 4113 
Q 1741 4144 1584 4144 
Q 1328 4144 1222 4034 
Q 1116 3925 1116 3625 
L 1116 3319 
L 1763 3319 
L 1763 2881 
L 1116 2881 
L 1116 0 
L 556 0 
z
" transform="scale(0.015625)"/>
       <path id="ArialMT-6c" d="M 409 0 
L 409 4581 
L 972 4581 
L 972 0 
L 409 0 
z
" transform="scale(0.015625)"/>
      </defs>
      <use xlink:href="#ArialMT-66"/>
      <use xlink:href="#ArialMT-72" x="27.783203"/>
      <use xlink:href="#ArialMT-61" x="61.083984"/>
      <use xlink:href="#ArialMT-63" x="116.699219"/>
      <use xlink:href="#ArialMT-74" x="166.699219"/>
      <use xlink:href="#ArialMT-61" x="194.482422"/>
      <use xlink:href="#ArialMT-6c" x="250.097656"/>
      <use xlink:href="#ArialMT-5f" x="272.314453"/>
      <use xlink:href="#ArialMT-64" x="327.929688"/>
      <use xlink:href="#ArialMT-69" x="383.544922"/>
      <use xlink:href="#ArialMT-6d" x="405.761719"/>
      <use xlink:href="#ArialMT-65" x="489.0625"/>
      <use xlink:href="#ArialMT-6e" x="544.677734"/>
      <use xlink:href="#ArialMT-73" x="600.292969"/>
      <use xlink:href="#ArialMT-69" x="650.292969"/>
      <use xlink:href="#ArialMT-6f" x="672.509766"/>
      <use xlink:href="#ArialMT-6e" x="728.125"/>
      <use xlink:href="#ArialMT-31" x="783.740234"/>
     </g>
    </g>
   </g>
   <g id="matplotlib.axis_20">
    <g id="ytick_31">
     <g id="line2d_69">
      <path d="M 1000.559541 104.2 
L 1069.2 104.2 
" clip-path="url(#p8fa023873b)" style="fill: none; stroke: #cccccc; stroke-width: 0.8; stroke-linecap: round"/>
     </g>
     <g id="text_62">
      <!-- 0.0 -->
      <g style="fill: #262626" transform="translate(979.659541 107.778906)scale(0.1 -0.1)">
       <use xlink:href="#ArialMT-30"/>
       <use xlink:href="#ArialMT-2e" x="55.615234"/>
       <use xlink:href="#ArialMT-30" x="83.398438"/>
      </g>
     </g>
    </g>
    <g id="ytick_32">
     <g id="line2d_70">
      <path d="M 1000.559541 69.090773 
L 1069.2 69.090773 
" clip-path="url(#p8fa023873b)" style="fill: none; stroke: #cccccc; stroke-width: 0.8; stroke-linecap: round"/>
     </g>
     <g id="text_63">
      <!-- 0.2 -->
      <g style="fill: #262626" transform="translate(979.659541 72.66968)scale(0.1 -0.1)">
       <use xlink:href="#ArialMT-30"/>
       <use xlink:href="#ArialMT-2e" x="55.615234"/>
       <use xlink:href="#ArialMT-32" x="83.398438"/>
      </g>
     </g>
    </g>
    <g id="ytick_33">
     <g id="line2d_71">
      <path d="M 1000.559541 33.981547 
L 1069.2 33.981547 
" clip-path="url(#p8fa023873b)" style="fill: none; stroke: #cccccc; stroke-width: 0.8; stroke-linecap: round"/>
     </g>
     <g id="text_64">
      <!-- 0.4 -->
      <g style="fill: #262626" transform="translate(979.659541 37.560453)scale(0.1 -0.1)">
       <use xlink:href="#ArialMT-30"/>
       <use xlink:href="#ArialMT-2e" x="55.615234"/>
       <use xlink:href="#ArialMT-34" x="83.398438"/>
      </g>
     </g>
    </g>
   </g>
   <g id="line2d_72">
    <path d="M 1003.679562 104.158646 
L 1005.247411 103.954683 
L 1006.188121 103.59171 
L 1006.815261 103.154266 
L 1007.442401 102.487261 
L 1008.069541 101.520572 
L 1008.696681 100.183921 
L 1009.323821 98.412523 
L 1010.26453 94.821661 
L 1011.20524 89.990417 
L 1012.14595 83.860529 
L 1013.40023 73.894727 
L 1015.595219 55.426638 
L 1016.535929 49.433302 
L 1017.163069 46.528127 
L 1017.790209 44.438464 
L 1018.417349 42.966381 
L 1019.358059 41.354004 
L 1021.239478 38.564115 
L 1021.866618 38.062817 
L 1022.180188 38.023695 
L 1022.493758 38.164928 
L 1022.807328 38.508515 
L 1023.434468 39.847223 
L 1024.061608 42.031137 
L 1025.002317 46.526421 
L 1027.824447 61.234501 
L 1029.078727 66.395233 
L 1030.646576 71.888558 
L 1031.900856 75.434369 
L 1032.841566 77.514331 
L 1036.290835 84.384281 
L 1038.172255 89.502628 
L 1039.740104 93.532927 
L 1040.994384 96.150442 
L 1042.248664 98.273453 
L 1043.816514 100.47425 
L 1045.070793 101.921124 
L 1046.325073 103.0023 
L 1047.265783 103.542662 
L 1048.520063 103.950966 
L 1050.087912 104.140248 
L 1052.282902 104.142531 
L 1054.164322 103.965915 
L 1058.867871 103.318041 
L 1060.43572 103.548713 
L 1063.25785 104.052523 
L 1065.452839 104.179848 
L 1066.079979 104.190021 
L 1066.079979 104.190021 
" clip-path="url(#p8fa023873b)" style="fill: none; stroke: #ff4500; stroke-width: 1.5; stroke-linecap: round"/>
   </g>
   <g id="line2d_73">
    <path d="M 1007.069674 104.175782 
L 1008.47214 104.01467 
L 1009.31362 103.682692 
L 1009.874606 103.25052 
L 1010.435593 102.556255 
L 1010.996579 101.506513 
L 1011.557565 100.00464 
L 1012.118552 97.957838 
L 1012.679538 95.280369 
L 1013.521018 89.910265 
L 1014.362497 82.718378 
L 1015.203977 73.628225 
L 1016.606443 55.264661 
L 1018.289402 33.552017 
L 1019.130882 25.381095 
L 1019.691868 21.37489 
L 1020.252854 18.583087 
L 1020.813841 16.981604 
L 1021.094334 16.605114 
L 1021.374827 16.494132 
L 1021.65532 16.632796 
L 1021.935813 17.003435 
L 1022.4968 18.364146 
L 1023.057786 20.421038 
L 1023.899266 24.509493 
L 1025.021239 31.376621 
L 1026.143211 39.603114 
L 1029.789623 67.923398 
L 1031.192089 76.000831 
L 1032.594555 82.704324 
L 1034.277514 89.545105 
L 1035.399487 93.263674 
L 1036.240966 95.265367 
L 1036.801953 96.153369 
L 1037.362939 96.727414 
L 1038.204418 97.2208 
L 1039.606884 97.975456 
L 1040.728857 98.952513 
L 1042.972803 101.051139 
L 1044.094775 101.803931 
L 1045.216748 102.335658 
L 1046.338721 102.666994 
L 1047.741187 102.841003 
L 1051.668092 102.912559 
L 1053.070558 102.785716 
L 1055.594996 102.443451 
L 1056.436476 102.556503 
L 1057.558449 102.948484 
L 1059.802394 103.854334 
L 1061.20486 104.110603 
L 1062.887819 104.190139 
L 1062.887819 104.190139 
" clip-path="url(#p8fa023873b)" style="fill: none; stroke: #1e90ff; stroke-width: 1.5; stroke-linecap: round"/>
   </g>
   <g id="patch_48">
    <path d="M 1000.559541 104.2 
L 1000.559541 12.109331 
" style="fill: none; stroke: #cccccc; stroke-width: 0.8; stroke-linejoin: miter; stroke-linecap: square"/>
   </g>
   <g id="patch_49">
    <path d="M 1069.2 104.2 
L 1069.2 12.109331 
" style="fill: none; stroke: #cccccc; stroke-width: 0.8; stroke-linejoin: miter; stroke-linecap: square"/>
   </g>
   <g id="patch_50">
    <path d="M 1000.559541 104.2 
L 1069.2 104.2 
" style="fill: none; stroke: #cccccc; stroke-width: 0.8; stroke-linejoin: miter; stroke-linecap: square"/>
   </g>
   <g id="patch_51">
    <path d="M 1000.559541 12.109331 
L 1069.2 12.109331 
" style="fill: none; stroke: #cccccc; stroke-width: 0.8; stroke-linejoin: miter; stroke-linecap: square"/>
   </g>
   <g id="legend_1">
    <g id="patch_52">
     <path d="M 1021.870312 73.799978 
L 1062.2 73.799978 
Q 1064.2 73.799978 1064.2 71.799978 
L 1064.2 44.509353 
Q 1064.2 42.509353 1062.2 42.509353 
L 1021.870312 42.509353 
Q 1019.870312 42.509353 1019.870312 44.509353 
L 1019.870312 71.799978 
Q 1019.870312 73.799978 1021.870312 73.799978 
z
" style="fill: #ffffff; opacity: 0.8; stroke: #cccccc; stroke-linejoin: miter"/>
    </g>
    <g id="line2d_74">
     <path d="M 1023.870312 50.167166 
L 1033.870312 50.167166 
L 1043.870312 50.167166 
" style="fill: none; stroke: #ff4500; stroke-width: 1.5; stroke-linecap: round"/>
    </g>
    <g id="text_65">
     <!-- M -->
     <g style="fill: #262626" transform="translate(1051.870312 53.667166)scale(0.1 -0.1)">
      <defs>
       <path id="ArialMT-4d" d="M 475 0 
L 475 4581 
L 1388 4581 
L 2472 1338 
Q 2622 884 2691 659 
Q 2769 909 2934 1394 
L 4031 4581 
L 4847 4581 
L 4847 0 
L 4263 0 
L 4263 3834 
L 2931 0 
L 2384 0 
L 1059 3900 
L 1059 0 
L 475 0 
z
" transform="scale(0.015625)"/>
      </defs>
      <use xlink:href="#ArialMT-4d"/>
     </g>
    </g>
    <g id="line2d_75">
     <path d="M 1023.870312 64.312478 
L 1033.870312 64.312478 
L 1043.870312 64.312478 
" style="fill: none; stroke: #1e90ff; stroke-width: 1.5; stroke-linecap: round"/>
    </g>
    <g id="text_66">
     <!-- B -->
     <g style="fill: #262626" transform="translate(1051.870312 67.812478)scale(0.1 -0.1)">
      <defs>
       <path id="ArialMT-42" d="M 469 0 
L 469 4581 
L 2188 4581 
Q 2713 4581 3030 4442 
Q 3347 4303 3526 4014 
Q 3706 3725 3706 3409 
Q 3706 3116 3547 2856 
Q 3388 2597 3066 2438 
Q 3481 2316 3704 2022 
Q 3928 1728 3928 1328 
Q 3928 1006 3792 729 
Q 3656 453 3456 303 
Q 3256 153 2954 76 
Q 2653 0 2216 0 
L 469 0 
z
M 1075 2656 
L 2066 2656 
Q 2469 2656 2644 2709 
Q 2875 2778 2992 2937 
Q 3109 3097 3109 3338 
Q 3109 3566 3000 3739 
Q 2891 3913 2687 3977 
Q 2484 4041 1991 4041 
L 1075 4041 
L 1075 2656 
z
M 1075 541 
L 2216 541 
Q 2509 541 2628 563 
Q 2838 600 2978 687 
Q 3119 775 3209 942 
Q 3300 1109 3300 1328 
Q 3300 1584 3169 1773 
Q 3038 1963 2805 2039 
Q 2572 2116 2134 2116 
L 1075 2116 
L 1075 541 
z
" transform="scale(0.015625)"/>
      </defs>
      <use xlink:href="#ArialMT-42"/>
     </g>
    </g>
   </g>
  </g>
 </g>
 <defs>
  <clipPath id="p9b5fd3dcd4">
   <rect x="44.675" y="12.109331" width="68.640459" height="92.090669"/>
  </clipPath>
  <clipPath id="p8b58ac06ef">
   <rect x="150.884393" y="12.109331" width="68.640459" height="92.090669"/>
  </clipPath>
  <clipPath id="p4af0ac2447">
   <rect x="257.093787" y="12.109331" width="68.640459" height="92.090669"/>
  </clipPath>
  <clipPath id="p211368b530">
   <rect x="363.30318" y="12.109331" width="68.640459" height="92.090669"/>
  </clipPath>
  <clipPath id="pc4d6ddc7b6">
   <rect x="469.512574" y="12.109331" width="68.640459" height="92.090669"/>
  </clipPath>
  <clipPath id="p3bfbe6ff5a">
   <rect x="575.721967" y="12.109331" width="68.640459" height="92.090669"/>
  </clipPath>
  <clipPath id="p984bb017fe">
   <rect x="681.931361" y="12.109331" width="68.640459" height="92.090669"/>
  </clipPath>
  <clipPath id="pcc7fcb0873">
   <rect x="788.140754" y="12.109331" width="68.640459" height="92.090669"/>
  </clipPath>
  <clipPath id="p79d0f7c726">
   <rect x="894.350147" y="12.109331" width="68.640459" height="92.090669"/>
  </clipPath>
  <clipPath id="p8fa023873b">
   <rect x="1000.559541" y="12.109331" width="68.640459" height="92.090669"/>
  </clipPath>
 </defs>
</svg>
