<?xml version="1.0" encoding="utf-8" standalone="no"?>
<!DOCTYPE svg PUBLIC "-//W3C//DTD SVG 1.1//EN"
  "http://www.w3.org/Graphics/SVG/1.1/DTD/svg11.dtd">
<svg xmlns:xlink="http://www.w3.org/1999/xlink" width="1071.764375pt" height="351.20125pt" viewBox="0 0 1071.764375 351.20125" xmlns="http://www.w3.org/2000/svg" version="1.1">
 <metadata>
  <rdf:RDF xmlns:dc="http://purl.org/dc/elements/1.1/" xmlns:cc="http://creativecommons.org/ns#" xmlns:rdf="http://www.w3.org/1999/02/22-rdf-syntax-ns#">
   <cc:Work>
    <dc:type rdf:resource="http://purl.org/dc/dcmitype/StillImage"/>
    <dc:date>2024-01-24T22:36:00.734139</dc:date>
    <dc:format>image/svg+xml</dc:format>
    <dc:creator>
     <cc:Agent>
      <dc:title>Matplotlib v3.5.3, https://matplotlib.org/</dc:title>
     </cc:Agent>
    </dc:creator>
   </cc:Work>
  </rdf:RDF>
 </metadata>
 <defs>
  <style type="text/css">*{stroke-linejoin: round; stroke-linecap: butt}</style>
 </defs>
 <g id="figure_1">
  <g id="patch_1">
   <path d="M 0 351.20125 
L 1071.764375 351.20125 
L 1071.764375 0 
L 0 0 
z
" style="fill: #ffffff"/>
  </g>
  <g id="axes_1">
   <g id="patch_2">
    <path d="M 42.289375 311.0525 
L 351.764375 311.0525 
L 351.764375 24.6525 
L 42.289375 24.6525 
z
" style="fill: #ffffff"/>
   </g>
   <g id="matplotlib.axis_1">
    <g id="xtick_1">
     <g id="line2d_1">
      <path d="M 55.666183 311.0525 
L 55.666183 24.6525 
" clip-path="url(#p7d732438b8)" style="fill: none; stroke: #cccccc; stroke-width: 0.8; stroke-linecap: round"/>
     </g>
     <g id="text_1">
      <!-- −4 -->
      <g style="fill: #262626" transform="translate(49.965402 325.210312)scale(0.1 -0.1)">
       <defs>
        <path id="ArialMT-2212" d="M 3381 1997 
L 356 1997 
L 356 2522 
L 3381 2522 
L 3381 1997 
z
" transform="scale(0.015625)"/>
        <path id="ArialMT-34" d="M 2069 0 
L 2069 1097 
L 81 1097 
L 81 1613 
L 2172 4581 
L 2631 4581 
L 2631 1613 
L 3250 1613 
L 3250 1097 
L 2631 1097 
L 2631 0 
L 2069 0 
z
M 2069 1613 
L 2069 3678 
L 634 1613 
L 2069 1613 
z
" transform="scale(0.015625)"/>
       </defs>
       <use xlink:href="#ArialMT-2212"/>
       <use xlink:href="#ArialMT-34" x="58.398438"/>
      </g>
     </g>
    </g>
    <g id="xtick_2">
     <g id="line2d_2">
      <path d="M 112.272712 311.0525 
L 112.272712 24.6525 
" clip-path="url(#p7d732438b8)" style="fill: none; stroke: #cccccc; stroke-width: 0.8; stroke-linecap: round"/>
     </g>
     <g id="text_2">
      <!-- −2 -->
      <g style="fill: #262626" transform="translate(106.571931 325.210312)scale(0.1 -0.1)">
       <defs>
        <path id="ArialMT-32" d="M 3222 541 
L 3222 0 
L 194 0 
Q 188 203 259 391 
Q 375 700 629 1000 
Q 884 1300 1366 1694 
Q 2113 2306 2375 2664 
Q 2638 3022 2638 3341 
Q 2638 3675 2398 3904 
Q 2159 4134 1775 4134 
Q 1369 4134 1125 3890 
Q 881 3647 878 3216 
L 300 3275 
Q 359 3922 746 4261 
Q 1134 4600 1788 4600 
Q 2447 4600 2831 4234 
Q 3216 3869 3216 3328 
Q 3216 3053 3103 2787 
Q 2991 2522 2730 2228 
Q 2469 1934 1863 1422 
Q 1356 997 1212 845 
Q 1069 694 975 541 
L 3222 541 
z
" transform="scale(0.015625)"/>
       </defs>
       <use xlink:href="#ArialMT-2212"/>
       <use xlink:href="#ArialMT-32" x="58.398438"/>
      </g>
     </g>
    </g>
    <g id="xtick_3">
     <g id="line2d_3">
      <path d="M 168.879241 311.0525 
L 168.879241 24.6525 
" clip-path="url(#p7d732438b8)" style="fill: none; stroke: #cccccc; stroke-width: 0.8; stroke-linecap: round"/>
     </g>
     <g id="text_3">
      <!-- 0 -->
      <g style="fill: #262626" transform="translate(166.098772 325.210312)scale(0.1 -0.1)">
       <defs>
        <path id="ArialMT-30" d="M 266 2259 
Q 266 3072 433 3567 
Q 600 4063 929 4331 
Q 1259 4600 1759 4600 
Q 2128 4600 2406 4451 
Q 2684 4303 2865 4023 
Q 3047 3744 3150 3342 
Q 3253 2941 3253 2259 
Q 3253 1453 3087 958 
Q 2922 463 2592 192 
Q 2263 -78 1759 -78 
Q 1097 -78 719 397 
Q 266 969 266 2259 
z
M 844 2259 
Q 844 1131 1108 757 
Q 1372 384 1759 384 
Q 2147 384 2411 759 
Q 2675 1134 2675 2259 
Q 2675 3391 2411 3762 
Q 2147 4134 1753 4134 
Q 1366 4134 1134 3806 
Q 844 3388 844 2259 
z
" transform="scale(0.015625)"/>
       </defs>
       <use xlink:href="#ArialMT-30"/>
      </g>
     </g>
    </g>
    <g id="xtick_4">
     <g id="line2d_4">
      <path d="M 225.485769 311.0525 
L 225.485769 24.6525 
" clip-path="url(#p7d732438b8)" style="fill: none; stroke: #cccccc; stroke-width: 0.8; stroke-linecap: round"/>
     </g>
     <g id="text_4">
      <!-- 2 -->
      <g style="fill: #262626" transform="translate(222.705301 325.210312)scale(0.1 -0.1)">
       <use xlink:href="#ArialMT-32"/>
      </g>
     </g>
    </g>
    <g id="xtick_5">
     <g id="line2d_5">
      <path d="M 282.092298 311.0525 
L 282.092298 24.6525 
" clip-path="url(#p7d732438b8)" style="fill: none; stroke: #cccccc; stroke-width: 0.8; stroke-linecap: round"/>
     </g>
     <g id="text_5">
      <!-- 4 -->
      <g style="fill: #262626" transform="translate(279.311829 325.210312)scale(0.1 -0.1)">
       <use xlink:href="#ArialMT-34"/>
      </g>
     </g>
    </g>
    <g id="xtick_6">
     <g id="line2d_6">
      <path d="M 338.698827 311.0525 
L 338.698827 24.6525 
" clip-path="url(#p7d732438b8)" style="fill: none; stroke: #cccccc; stroke-width: 0.8; stroke-linecap: round"/>
     </g>
     <g id="text_6">
      <!-- 6 -->
      <g style="fill: #262626" transform="translate(335.918358 325.210312)scale(0.1 -0.1)">
       <defs>
        <path id="ArialMT-36" d="M 3184 3459 
L 2625 3416 
Q 2550 3747 2413 3897 
Q 2184 4138 1850 4138 
Q 1581 4138 1378 3988 
Q 1113 3794 959 3422 
Q 806 3050 800 2363 
Q 1003 2672 1297 2822 
Q 1591 2972 1913 2972 
Q 2475 2972 2870 2558 
Q 3266 2144 3266 1488 
Q 3266 1056 3080 686 
Q 2894 316 2569 119 
Q 2244 -78 1831 -78 
Q 1128 -78 684 439 
Q 241 956 241 2144 
Q 241 3472 731 4075 
Q 1159 4600 1884 4600 
Q 2425 4600 2770 4297 
Q 3116 3994 3184 3459 
z
M 888 1484 
Q 888 1194 1011 928 
Q 1134 663 1356 523 
Q 1578 384 1822 384 
Q 2178 384 2434 671 
Q 2691 959 2691 1453 
Q 2691 1928 2437 2201 
Q 2184 2475 1800 2475 
Q 1419 2475 1153 2201 
Q 888 1928 888 1484 
z
" transform="scale(0.015625)"/>
       </defs>
       <use xlink:href="#ArialMT-36"/>
      </g>
     </g>
    </g>
    <g id="text_7">
     <!-- One-Dimensional Data -->
     <g style="fill: #262626" transform="translate(126.220781 341.21875)scale(0.14 -0.14)">
      <defs>
       <path id="ArialMT-4f" d="M 309 2231 
Q 309 3372 921 4017 
Q 1534 4663 2503 4663 
Q 3138 4663 3647 4359 
Q 4156 4056 4423 3514 
Q 4691 2972 4691 2284 
Q 4691 1588 4409 1038 
Q 4128 488 3612 205 
Q 3097 -78 2500 -78 
Q 1853 -78 1343 234 
Q 834 547 571 1087 
Q 309 1628 309 2231 
z
M 934 2222 
Q 934 1394 1379 917 
Q 1825 441 2497 441 
Q 3181 441 3623 922 
Q 4066 1403 4066 2288 
Q 4066 2847 3877 3264 
Q 3688 3681 3323 3911 
Q 2959 4141 2506 4141 
Q 1863 4141 1398 3698 
Q 934 3256 934 2222 
z
" transform="scale(0.015625)"/>
       <path id="ArialMT-6e" d="M 422 0 
L 422 3319 
L 928 3319 
L 928 2847 
Q 1294 3394 1984 3394 
Q 2284 3394 2536 3286 
Q 2788 3178 2913 3003 
Q 3038 2828 3088 2588 
Q 3119 2431 3119 2041 
L 3119 0 
L 2556 0 
L 2556 2019 
Q 2556 2363 2490 2533 
Q 2425 2703 2258 2804 
Q 2091 2906 1866 2906 
Q 1506 2906 1245 2678 
Q 984 2450 984 1813 
L 984 0 
L 422 0 
z
" transform="scale(0.015625)"/>
       <path id="ArialMT-65" d="M 2694 1069 
L 3275 997 
Q 3138 488 2766 206 
Q 2394 -75 1816 -75 
Q 1088 -75 661 373 
Q 234 822 234 1631 
Q 234 2469 665 2931 
Q 1097 3394 1784 3394 
Q 2450 3394 2872 2941 
Q 3294 2488 3294 1666 
Q 3294 1616 3291 1516 
L 816 1516 
Q 847 969 1125 678 
Q 1403 388 1819 388 
Q 2128 388 2347 550 
Q 2566 713 2694 1069 
z
M 847 1978 
L 2700 1978 
Q 2663 2397 2488 2606 
Q 2219 2931 1791 2931 
Q 1403 2931 1139 2672 
Q 875 2413 847 1978 
z
" transform="scale(0.015625)"/>
       <path id="ArialMT-2d" d="M 203 1375 
L 203 1941 
L 1931 1941 
L 1931 1375 
L 203 1375 
z
" transform="scale(0.015625)"/>
       <path id="ArialMT-44" d="M 494 0 
L 494 4581 
L 2072 4581 
Q 2606 4581 2888 4516 
Q 3281 4425 3559 4188 
Q 3922 3881 4101 3404 
Q 4281 2928 4281 2316 
Q 4281 1794 4159 1391 
Q 4038 988 3847 723 
Q 3656 459 3429 307 
Q 3203 156 2883 78 
Q 2563 0 2147 0 
L 494 0 
z
M 1100 541 
L 2078 541 
Q 2531 541 2789 625 
Q 3047 709 3200 863 
Q 3416 1078 3536 1442 
Q 3656 1806 3656 2325 
Q 3656 3044 3420 3430 
Q 3184 3816 2847 3947 
Q 2603 4041 2063 4041 
L 1100 4041 
L 1100 541 
z
" transform="scale(0.015625)"/>
       <path id="ArialMT-69" d="M 425 3934 
L 425 4581 
L 988 4581 
L 988 3934 
L 425 3934 
z
M 425 0 
L 425 3319 
L 988 3319 
L 988 0 
L 425 0 
z
" transform="scale(0.015625)"/>
       <path id="ArialMT-6d" d="M 422 0 
L 422 3319 
L 925 3319 
L 925 2853 
Q 1081 3097 1340 3245 
Q 1600 3394 1931 3394 
Q 2300 3394 2536 3241 
Q 2772 3088 2869 2813 
Q 3263 3394 3894 3394 
Q 4388 3394 4653 3120 
Q 4919 2847 4919 2278 
L 4919 0 
L 4359 0 
L 4359 2091 
Q 4359 2428 4304 2576 
Q 4250 2725 4106 2815 
Q 3963 2906 3769 2906 
Q 3419 2906 3187 2673 
Q 2956 2441 2956 1928 
L 2956 0 
L 2394 0 
L 2394 2156 
Q 2394 2531 2256 2718 
Q 2119 2906 1806 2906 
Q 1569 2906 1367 2781 
Q 1166 2656 1075 2415 
Q 984 2175 984 1722 
L 984 0 
L 422 0 
z
" transform="scale(0.015625)"/>
       <path id="ArialMT-73" d="M 197 991 
L 753 1078 
Q 800 744 1014 566 
Q 1228 388 1613 388 
Q 2000 388 2187 545 
Q 2375 703 2375 916 
Q 2375 1106 2209 1216 
Q 2094 1291 1634 1406 
Q 1016 1563 777 1677 
Q 538 1791 414 1992 
Q 291 2194 291 2438 
Q 291 2659 392 2848 
Q 494 3038 669 3163 
Q 800 3259 1026 3326 
Q 1253 3394 1513 3394 
Q 1903 3394 2198 3281 
Q 2494 3169 2634 2976 
Q 2775 2784 2828 2463 
L 2278 2388 
Q 2241 2644 2061 2787 
Q 1881 2931 1553 2931 
Q 1166 2931 1000 2803 
Q 834 2675 834 2503 
Q 834 2394 903 2306 
Q 972 2216 1119 2156 
Q 1203 2125 1616 2013 
Q 2213 1853 2448 1751 
Q 2684 1650 2818 1456 
Q 2953 1263 2953 975 
Q 2953 694 2789 445 
Q 2625 197 2315 61 
Q 2006 -75 1616 -75 
Q 969 -75 630 194 
Q 291 463 197 991 
z
" transform="scale(0.015625)"/>
       <path id="ArialMT-6f" d="M 213 1659 
Q 213 2581 725 3025 
Q 1153 3394 1769 3394 
Q 2453 3394 2887 2945 
Q 3322 2497 3322 1706 
Q 3322 1066 3130 698 
Q 2938 331 2570 128 
Q 2203 -75 1769 -75 
Q 1072 -75 642 372 
Q 213 819 213 1659 
z
M 791 1659 
Q 791 1022 1069 705 
Q 1347 388 1769 388 
Q 2188 388 2466 706 
Q 2744 1025 2744 1678 
Q 2744 2294 2464 2611 
Q 2184 2928 1769 2928 
Q 1347 2928 1069 2612 
Q 791 2297 791 1659 
z
" transform="scale(0.015625)"/>
       <path id="ArialMT-61" d="M 2588 409 
Q 2275 144 1986 34 
Q 1697 -75 1366 -75 
Q 819 -75 525 192 
Q 231 459 231 875 
Q 231 1119 342 1320 
Q 453 1522 633 1644 
Q 813 1766 1038 1828 
Q 1203 1872 1538 1913 
Q 2219 1994 2541 2106 
Q 2544 2222 2544 2253 
Q 2544 2597 2384 2738 
Q 2169 2928 1744 2928 
Q 1347 2928 1158 2789 
Q 969 2650 878 2297 
L 328 2372 
Q 403 2725 575 2942 
Q 747 3159 1072 3276 
Q 1397 3394 1825 3394 
Q 2250 3394 2515 3294 
Q 2781 3194 2906 3042 
Q 3031 2891 3081 2659 
Q 3109 2516 3109 2141 
L 3109 1391 
Q 3109 606 3145 398 
Q 3181 191 3288 0 
L 2700 0 
Q 2613 175 2588 409 
z
M 2541 1666 
Q 2234 1541 1622 1453 
Q 1275 1403 1131 1340 
Q 988 1278 909 1158 
Q 831 1038 831 891 
Q 831 666 1001 516 
Q 1172 366 1500 366 
Q 1825 366 2078 508 
Q 2331 650 2450 897 
Q 2541 1088 2541 1459 
L 2541 1666 
z
" transform="scale(0.015625)"/>
       <path id="ArialMT-6c" d="M 409 0 
L 409 4581 
L 972 4581 
L 972 0 
L 409 0 
z
" transform="scale(0.015625)"/>
       <path id="ArialMT-20" transform="scale(0.015625)"/>
       <path id="ArialMT-74" d="M 1650 503 
L 1731 6 
Q 1494 -44 1306 -44 
Q 1000 -44 831 53 
Q 663 150 594 308 
Q 525 466 525 972 
L 525 2881 
L 113 2881 
L 113 3319 
L 525 3319 
L 525 4141 
L 1084 4478 
L 1084 3319 
L 1650 3319 
L 1650 2881 
L 1084 2881 
L 1084 941 
Q 1084 700 1114 631 
Q 1144 563 1211 522 
Q 1278 481 1403 481 
Q 1497 481 1650 503 
z
" transform="scale(0.015625)"/>
      </defs>
      <use xlink:href="#ArialMT-4f"/>
      <use xlink:href="#ArialMT-6e" x="77.783203"/>
      <use xlink:href="#ArialMT-65" x="133.398438"/>
      <use xlink:href="#ArialMT-2d" x="189.013672"/>
      <use xlink:href="#ArialMT-44" x="222.314453"/>
      <use xlink:href="#ArialMT-69" x="294.53125"/>
      <use xlink:href="#ArialMT-6d" x="316.748047"/>
      <use xlink:href="#ArialMT-65" x="400.048828"/>
      <use xlink:href="#ArialMT-6e" x="455.664062"/>
      <use xlink:href="#ArialMT-73" x="511.279297"/>
      <use xlink:href="#ArialMT-69" x="561.279297"/>
      <use xlink:href="#ArialMT-6f" x="583.496094"/>
      <use xlink:href="#ArialMT-6e" x="639.111328"/>
      <use xlink:href="#ArialMT-61" x="694.726562"/>
      <use xlink:href="#ArialMT-6c" x="750.341797"/>
      <use xlink:href="#ArialMT-20" x="772.558594"/>
      <use xlink:href="#ArialMT-44" x="800.341797"/>
      <use xlink:href="#ArialMT-61" x="872.558594"/>
      <use xlink:href="#ArialMT-74" x="928.173828"/>
      <use xlink:href="#ArialMT-61" x="955.957031"/>
     </g>
    </g>
   </g>
   <g id="matplotlib.axis_2">
    <g id="ytick_1">
     <g id="line2d_7">
      <path d="M 42.289375 311.0525 
L 351.764375 311.0525 
" clip-path="url(#p7d732438b8)" style="fill: none; stroke: #cccccc; stroke-width: 0.8; stroke-linecap: round"/>
     </g>
     <g id="text_8">
      <!-- 0 -->
      <g style="fill: #262626" transform="translate(29.728438 314.631406)scale(0.1 -0.1)">
       <use xlink:href="#ArialMT-30"/>
      </g>
     </g>
    </g>
    <g id="ytick_2">
     <g id="line2d_8">
      <path d="M 42.289375 272.086514 
L 351.764375 272.086514 
" clip-path="url(#p7d732438b8)" style="fill: none; stroke: #cccccc; stroke-width: 0.8; stroke-linecap: round"/>
     </g>
     <g id="text_9">
      <!-- 5 -->
      <g style="fill: #262626" transform="translate(29.728438 275.66542)scale(0.1 -0.1)">
       <defs>
        <path id="ArialMT-35" d="M 266 1200 
L 856 1250 
Q 922 819 1161 601 
Q 1400 384 1738 384 
Q 2144 384 2425 690 
Q 2706 997 2706 1503 
Q 2706 1984 2436 2262 
Q 2166 2541 1728 2541 
Q 1456 2541 1237 2417 
Q 1019 2294 894 2097 
L 366 2166 
L 809 4519 
L 3088 4519 
L 3088 3981 
L 1259 3981 
L 1013 2750 
Q 1425 3038 1878 3038 
Q 2478 3038 2890 2622 
Q 3303 2206 3303 1553 
Q 3303 931 2941 478 
Q 2500 -78 1738 -78 
Q 1113 -78 717 272 
Q 322 622 266 1200 
z
" transform="scale(0.015625)"/>
       </defs>
       <use xlink:href="#ArialMT-35"/>
      </g>
     </g>
    </g>
    <g id="ytick_3">
     <g id="line2d_9">
      <path d="M 42.289375 233.120527 
L 351.764375 233.120527 
" clip-path="url(#p7d732438b8)" style="fill: none; stroke: #cccccc; stroke-width: 0.8; stroke-linecap: round"/>
     </g>
     <g id="text_10">
      <!-- 10 -->
      <g style="fill: #262626" transform="translate(24.1675 236.699433)scale(0.1 -0.1)">
       <defs>
        <path id="ArialMT-31" d="M 2384 0 
L 1822 0 
L 1822 3584 
Q 1619 3391 1289 3197 
Q 959 3003 697 2906 
L 697 3450 
Q 1169 3672 1522 3987 
Q 1875 4303 2022 4600 
L 2384 4600 
L 2384 0 
z
" transform="scale(0.015625)"/>
       </defs>
       <use xlink:href="#ArialMT-31"/>
       <use xlink:href="#ArialMT-30" x="55.615234"/>
      </g>
     </g>
    </g>
    <g id="ytick_4">
     <g id="line2d_10">
      <path d="M 42.289375 194.154541 
L 351.764375 194.154541 
" clip-path="url(#p7d732438b8)" style="fill: none; stroke: #cccccc; stroke-width: 0.8; stroke-linecap: round"/>
     </g>
     <g id="text_11">
      <!-- 15 -->
      <g style="fill: #262626" transform="translate(24.1675 197.733447)scale(0.1 -0.1)">
       <use xlink:href="#ArialMT-31"/>
       <use xlink:href="#ArialMT-35" x="55.615234"/>
      </g>
     </g>
    </g>
    <g id="ytick_5">
     <g id="line2d_11">
      <path d="M 42.289375 155.188554 
L 351.764375 155.188554 
" clip-path="url(#p7d732438b8)" style="fill: none; stroke: #cccccc; stroke-width: 0.8; stroke-linecap: round"/>
     </g>
     <g id="text_12">
      <!-- 20 -->
      <g style="fill: #262626" transform="translate(24.1675 158.767461)scale(0.1 -0.1)">
       <use xlink:href="#ArialMT-32"/>
       <use xlink:href="#ArialMT-30" x="55.615234"/>
      </g>
     </g>
    </g>
    <g id="ytick_6">
     <g id="line2d_12">
      <path d="M 42.289375 116.222568 
L 351.764375 116.222568 
" clip-path="url(#p7d732438b8)" style="fill: none; stroke: #cccccc; stroke-width: 0.8; stroke-linecap: round"/>
     </g>
     <g id="text_13">
      <!-- 25 -->
      <g style="fill: #262626" transform="translate(24.1675 119.801474)scale(0.1 -0.1)">
       <use xlink:href="#ArialMT-32"/>
       <use xlink:href="#ArialMT-35" x="55.615234"/>
      </g>
     </g>
    </g>
    <g id="ytick_7">
     <g id="line2d_13">
      <path d="M 42.289375 77.256582 
L 351.764375 77.256582 
" clip-path="url(#p7d732438b8)" style="fill: none; stroke: #cccccc; stroke-width: 0.8; stroke-linecap: round"/>
     </g>
     <g id="text_14">
      <!-- 30 -->
      <g style="fill: #262626" transform="translate(24.1675 80.835488)scale(0.1 -0.1)">
       <defs>
        <path id="ArialMT-33" d="M 269 1209 
L 831 1284 
Q 928 806 1161 595 
Q 1394 384 1728 384 
Q 2125 384 2398 659 
Q 2672 934 2672 1341 
Q 2672 1728 2419 1979 
Q 2166 2231 1775 2231 
Q 1616 2231 1378 2169 
L 1441 2663 
Q 1497 2656 1531 2656 
Q 1891 2656 2178 2843 
Q 2466 3031 2466 3422 
Q 2466 3731 2256 3934 
Q 2047 4138 1716 4138 
Q 1388 4138 1169 3931 
Q 950 3725 888 3313 
L 325 3413 
Q 428 3978 793 4289 
Q 1159 4600 1703 4600 
Q 2078 4600 2393 4439 
Q 2709 4278 2876 4000 
Q 3044 3722 3044 3409 
Q 3044 3113 2884 2869 
Q 2725 2625 2413 2481 
Q 2819 2388 3044 2092 
Q 3269 1797 3269 1353 
Q 3269 753 2831 336 
Q 2394 -81 1725 -81 
Q 1122 -81 723 278 
Q 325 638 269 1209 
z
" transform="scale(0.015625)"/>
       </defs>
       <use xlink:href="#ArialMT-33"/>
       <use xlink:href="#ArialMT-30" x="55.615234"/>
      </g>
     </g>
    </g>
    <g id="ytick_8">
     <g id="line2d_14">
      <path d="M 42.289375 38.290595 
L 351.764375 38.290595 
" clip-path="url(#p7d732438b8)" style="fill: none; stroke: #cccccc; stroke-width: 0.8; stroke-linecap: round"/>
     </g>
     <g id="text_15">
      <!-- 35 -->
      <g style="fill: #262626" transform="translate(24.1675 41.869501)scale(0.1 -0.1)">
       <use xlink:href="#ArialMT-33"/>
       <use xlink:href="#ArialMT-35" x="55.615234"/>
      </g>
     </g>
    </g>
    <g id="text_16">
     <!-- Frequency -->
     <g style="fill: #262626" transform="translate(17.220938 200.922031)rotate(-90)scale(0.14 -0.14)">
      <defs>
       <path id="ArialMT-46" d="M 525 0 
L 525 4581 
L 3616 4581 
L 3616 4041 
L 1131 4041 
L 1131 2622 
L 3281 2622 
L 3281 2081 
L 1131 2081 
L 1131 0 
L 525 0 
z
" transform="scale(0.015625)"/>
       <path id="ArialMT-72" d="M 416 0 
L 416 3319 
L 922 3319 
L 922 2816 
Q 1116 3169 1280 3281 
Q 1444 3394 1641 3394 
Q 1925 3394 2219 3213 
L 2025 2691 
Q 1819 2813 1613 2813 
Q 1428 2813 1281 2702 
Q 1134 2591 1072 2394 
Q 978 2094 978 1738 
L 978 0 
L 416 0 
z
" transform="scale(0.015625)"/>
       <path id="ArialMT-71" d="M 2538 -1272 
L 2538 353 
Q 2406 169 2170 47 
Q 1934 -75 1669 -75 
Q 1078 -75 651 397 
Q 225 869 225 1691 
Q 225 2191 398 2587 
Q 572 2984 901 3189 
Q 1231 3394 1625 3394 
Q 2241 3394 2594 2875 
L 2594 3319 
L 3100 3319 
L 3100 -1272 
L 2538 -1272 
z
M 803 1669 
Q 803 1028 1072 708 
Q 1341 388 1716 388 
Q 2075 388 2334 692 
Q 2594 997 2594 1619 
Q 2594 2281 2320 2615 
Q 2047 2950 1678 2950 
Q 1313 2950 1058 2639 
Q 803 2328 803 1669 
z
" transform="scale(0.015625)"/>
       <path id="ArialMT-75" d="M 2597 0 
L 2597 488 
Q 2209 -75 1544 -75 
Q 1250 -75 995 37 
Q 741 150 617 320 
Q 494 491 444 738 
Q 409 903 409 1263 
L 409 3319 
L 972 3319 
L 972 1478 
Q 972 1038 1006 884 
Q 1059 663 1231 536 
Q 1403 409 1656 409 
Q 1909 409 2131 539 
Q 2353 669 2445 892 
Q 2538 1116 2538 1541 
L 2538 3319 
L 3100 3319 
L 3100 0 
L 2597 0 
z
" transform="scale(0.015625)"/>
       <path id="ArialMT-63" d="M 2588 1216 
L 3141 1144 
Q 3050 572 2676 248 
Q 2303 -75 1759 -75 
Q 1078 -75 664 370 
Q 250 816 250 1647 
Q 250 2184 428 2587 
Q 606 2991 970 3192 
Q 1334 3394 1763 3394 
Q 2303 3394 2647 3120 
Q 2991 2847 3088 2344 
L 2541 2259 
Q 2463 2594 2264 2762 
Q 2066 2931 1784 2931 
Q 1359 2931 1093 2626 
Q 828 2322 828 1663 
Q 828 994 1084 691 
Q 1341 388 1753 388 
Q 2084 388 2306 591 
Q 2528 794 2588 1216 
z
" transform="scale(0.015625)"/>
       <path id="ArialMT-79" d="M 397 -1278 
L 334 -750 
Q 519 -800 656 -800 
Q 844 -800 956 -737 
Q 1069 -675 1141 -563 
Q 1194 -478 1313 -144 
Q 1328 -97 1363 -6 
L 103 3319 
L 709 3319 
L 1400 1397 
Q 1534 1031 1641 628 
Q 1738 1016 1872 1384 
L 2581 3319 
L 3144 3319 
L 1881 -56 
Q 1678 -603 1566 -809 
Q 1416 -1088 1222 -1217 
Q 1028 -1347 759 -1347 
Q 597 -1347 397 -1278 
z
" transform="scale(0.015625)"/>
      </defs>
      <use xlink:href="#ArialMT-46"/>
      <use xlink:href="#ArialMT-72" x="61.083984"/>
      <use xlink:href="#ArialMT-65" x="94.384766"/>
      <use xlink:href="#ArialMT-71" x="150"/>
      <use xlink:href="#ArialMT-75" x="205.615234"/>
      <use xlink:href="#ArialMT-65" x="261.230469"/>
      <use xlink:href="#ArialMT-6e" x="316.845703"/>
      <use xlink:href="#ArialMT-63" x="372.460938"/>
      <use xlink:href="#ArialMT-79" x="422.460938"/>
     </g>
    </g>
   </g>
   <g id="patch_3">
    <path d="M 162.085874 311.0525 
L 170.866446 311.0525 
L 170.866446 287.672908 
L 162.085874 287.672908 
z
" clip-path="url(#p7d732438b8)" style="fill: #ff4500; opacity: 0.8; stroke: #ffffff; stroke-linejoin: miter"/>
   </g>
   <g id="patch_4">
    <path d="M 170.866446 311.0525 
L 179.647019 311.0525 
L 179.647019 248.706922 
L 170.866446 248.706922 
z
" clip-path="url(#p7d732438b8)" style="fill: #ff4500; opacity: 0.8; stroke: #ffffff; stroke-linejoin: miter"/>
   </g>
   <g id="patch_5">
    <path d="M 179.647019 311.0525 
L 188.427592 311.0525 
L 188.427592 264.293316 
L 179.647019 264.293316 
z
" clip-path="url(#p7d732438b8)" style="fill: #ff4500; opacity: 0.8; stroke: #ffffff; stroke-linejoin: miter"/>
   </g>
   <g id="patch_6">
    <path d="M 188.427592 311.0525 
L 197.208165 311.0525 
L 197.208165 272.086514 
L 188.427592 272.086514 
z
" clip-path="url(#p7d732438b8)" style="fill: #ff4500; opacity: 0.8; stroke: #ffffff; stroke-linejoin: miter"/>
   </g>
   <g id="patch_7">
    <path d="M 197.208165 311.0525 
L 205.988738 311.0525 
L 205.988738 240.913724 
L 197.208165 240.913724 
z
" clip-path="url(#p7d732438b8)" style="fill: #ff4500; opacity: 0.8; stroke: #ffffff; stroke-linejoin: miter"/>
   </g>
   <g id="patch_8">
    <path d="M 205.988738 311.0525 
L 214.76931 311.0525 
L 214.76931 233.120527 
L 205.988738 233.120527 
z
" clip-path="url(#p7d732438b8)" style="fill: #ff4500; opacity: 0.8; stroke: #ffffff; stroke-linejoin: miter"/>
   </g>
   <g id="patch_9">
    <path d="M 214.76931 311.0525 
L 223.549883 311.0525 
L 223.549883 201.947738 
L 214.76931 201.947738 
z
" clip-path="url(#p7d732438b8)" style="fill: #ff4500; opacity: 0.8; stroke: #ffffff; stroke-linejoin: miter"/>
   </g>
   <g id="patch_10">
    <path d="M 223.549883 311.0525 
L 232.330456 311.0525 
L 232.330456 256.500119 
L 223.549883 256.500119 
z
" clip-path="url(#p7d732438b8)" style="fill: #ff4500; opacity: 0.8; stroke: #ffffff; stroke-linejoin: miter"/>
   </g>
   <g id="patch_11">
    <path d="M 232.330456 311.0525 
L 241.111029 311.0525 
L 241.111029 201.947738 
L 232.330456 201.947738 
z
" clip-path="url(#p7d732438b8)" style="fill: #ff4500; opacity: 0.8; stroke: #ffffff; stroke-linejoin: miter"/>
   </g>
   <g id="patch_12">
    <path d="M 241.111029 311.0525 
L 249.891602 311.0525 
L 249.891602 201.947738 
L 241.111029 201.947738 
z
" clip-path="url(#p7d732438b8)" style="fill: #ff4500; opacity: 0.8; stroke: #ffffff; stroke-linejoin: miter"/>
   </g>
   <g id="patch_13">
    <path d="M 249.891602 311.0525 
L 258.672174 311.0525 
L 258.672174 209.740935 
L 249.891602 209.740935 
z
" clip-path="url(#p7d732438b8)" style="fill: #ff4500; opacity: 0.8; stroke: #ffffff; stroke-linejoin: miter"/>
   </g>
   <g id="patch_14">
    <path d="M 258.672174 311.0525 
L 267.452747 311.0525 
L 267.452747 178.568146 
L 258.672174 178.568146 
z
" clip-path="url(#p7d732438b8)" style="fill: #ff4500; opacity: 0.8; stroke: #ffffff; stroke-linejoin: miter"/>
   </g>
   <g id="patch_15">
    <path d="M 267.452747 311.0525 
L 276.23332 311.0525 
L 276.23332 217.534133 
L 267.452747 217.534133 
z
" clip-path="url(#p7d732438b8)" style="fill: #ff4500; opacity: 0.8; stroke: #ffffff; stroke-linejoin: miter"/>
   </g>
   <g id="patch_16">
    <path d="M 276.23332 311.0525 
L 285.013893 311.0525 
L 285.013893 248.706922 
L 276.23332 248.706922 
z
" clip-path="url(#p7d732438b8)" style="fill: #ff4500; opacity: 0.8; stroke: #ffffff; stroke-linejoin: miter"/>
   </g>
   <g id="patch_17">
    <path d="M 285.013893 311.0525 
L 293.794466 311.0525 
L 293.794466 295.466105 
L 285.013893 295.466105 
z
" clip-path="url(#p7d732438b8)" style="fill: #ff4500; opacity: 0.8; stroke: #ffffff; stroke-linejoin: miter"/>
   </g>
   <g id="patch_18">
    <path d="M 293.794466 311.0525 
L 302.575038 311.0525 
L 302.575038 303.259303 
L 293.794466 303.259303 
z
" clip-path="url(#p7d732438b8)" style="fill: #ff4500; opacity: 0.8; stroke: #ffffff; stroke-linejoin: miter"/>
   </g>
   <g id="patch_19">
    <path d="M 302.575038 311.0525 
L 311.355611 311.0525 
L 311.355611 295.466105 
L 302.575038 295.466105 
z
" clip-path="url(#p7d732438b8)" style="fill: #ff4500; opacity: 0.8; stroke: #ffffff; stroke-linejoin: miter"/>
   </g>
   <g id="patch_20">
    <path d="M 311.355611 311.0525 
L 320.136184 311.0525 
L 320.136184 303.259303 
L 311.355611 303.259303 
z
" clip-path="url(#p7d732438b8)" style="fill: #ff4500; opacity: 0.8; stroke: #ffffff; stroke-linejoin: miter"/>
   </g>
   <g id="patch_21">
    <path d="M 320.136184 311.0525 
L 328.916757 311.0525 
L 328.916757 303.259303 
L 320.136184 303.259303 
z
" clip-path="url(#p7d732438b8)" style="fill: #ff4500; opacity: 0.8; stroke: #ffffff; stroke-linejoin: miter"/>
   </g>
   <g id="patch_22">
    <path d="M 328.916757 311.0525 
L 337.69733 311.0525 
L 337.69733 303.259303 
L 328.916757 303.259303 
z
" clip-path="url(#p7d732438b8)" style="fill: #ff4500; opacity: 0.8; stroke: #ffffff; stroke-linejoin: miter"/>
   </g>
   <g id="patch_23">
    <path d="M 56.35642 311.0525 
L 63.1072 311.0525 
L 63.1072 303.259303 
L 56.35642 303.259303 
z
" clip-path="url(#p7d732438b8)" style="fill: #1e90ff; opacity: 0.8; stroke: #ffffff; stroke-linejoin: miter"/>
   </g>
   <g id="patch_24">
    <path d="M 63.1072 311.0525 
L 69.857981 311.0525 
L 69.857981 303.259303 
L 63.1072 303.259303 
z
" clip-path="url(#p7d732438b8)" style="fill: #1e90ff; opacity: 0.8; stroke: #ffffff; stroke-linejoin: miter"/>
   </g>
   <g id="patch_25">
    <path d="M 69.857981 311.0525 
L 76.608761 311.0525 
L 76.608761 287.672908 
L 69.857981 287.672908 
z
" clip-path="url(#p7d732438b8)" style="fill: #1e90ff; opacity: 0.8; stroke: #ffffff; stroke-linejoin: miter"/>
   </g>
   <g id="patch_26">
    <path d="M 76.608761 311.0525 
L 83.359541 311.0525 
L 83.359541 287.672908 
L 76.608761 287.672908 
z
" clip-path="url(#p7d732438b8)" style="fill: #1e90ff; opacity: 0.8; stroke: #ffffff; stroke-linejoin: miter"/>
   </g>
   <g id="patch_27">
    <path d="M 83.359541 311.0525 
L 90.110321 311.0525 
L 90.110321 272.086514 
L 83.359541 272.086514 
z
" clip-path="url(#p7d732438b8)" style="fill: #1e90ff; opacity: 0.8; stroke: #ffffff; stroke-linejoin: miter"/>
   </g>
   <g id="patch_28">
    <path d="M 90.110321 311.0525 
L 96.861101 311.0525 
L 96.861101 217.534133 
L 90.110321 217.534133 
z
" clip-path="url(#p7d732438b8)" style="fill: #1e90ff; opacity: 0.8; stroke: #ffffff; stroke-linejoin: miter"/>
   </g>
   <g id="patch_29">
    <path d="M 96.861101 311.0525 
L 103.611881 311.0525 
L 103.611881 201.947738 
L 96.861101 201.947738 
z
" clip-path="url(#p7d732438b8)" style="fill: #1e90ff; opacity: 0.8; stroke: #ffffff; stroke-linejoin: miter"/>
   </g>
   <g id="patch_30">
    <path d="M 103.611881 311.0525 
L 110.362661 311.0525 
L 110.362661 170.774949 
L 103.611881 170.774949 
z
" clip-path="url(#p7d732438b8)" style="fill: #1e90ff; opacity: 0.8; stroke: #ffffff; stroke-linejoin: miter"/>
   </g>
   <g id="patch_31">
    <path d="M 110.362661 311.0525 
L 117.113441 311.0525 
L 117.113441 178.568146 
L 110.362661 178.568146 
z
" clip-path="url(#p7d732438b8)" style="fill: #1e90ff; opacity: 0.8; stroke: #ffffff; stroke-linejoin: miter"/>
   </g>
   <g id="patch_32">
    <path d="M 117.113441 311.0525 
L 123.864221 311.0525 
L 123.864221 155.188554 
L 117.113441 155.188554 
z
" clip-path="url(#p7d732438b8)" style="fill: #1e90ff; opacity: 0.8; stroke: #ffffff; stroke-linejoin: miter"/>
   </g>
   <g id="patch_33">
    <path d="M 123.864221 311.0525 
L 130.615001 311.0525 
L 130.615001 38.290595 
L 123.864221 38.290595 
z
" clip-path="url(#p7d732438b8)" style="fill: #1e90ff; opacity: 0.8; stroke: #ffffff; stroke-linejoin: miter"/>
   </g>
   <g id="patch_34">
    <path d="M 130.615001 311.0525 
L 137.365781 311.0525 
L 137.365781 77.256582 
L 130.615001 77.256582 
z
" clip-path="url(#p7d732438b8)" style="fill: #1e90ff; opacity: 0.8; stroke: #ffffff; stroke-linejoin: miter"/>
   </g>
   <g id="patch_35">
    <path d="M 137.365781 311.0525 
L 144.116561 311.0525 
L 144.116561 85.049779 
L 137.365781 85.049779 
z
" clip-path="url(#p7d732438b8)" style="fill: #1e90ff; opacity: 0.8; stroke: #ffffff; stroke-linejoin: miter"/>
   </g>
   <g id="patch_36">
    <path d="M 144.116561 311.0525 
L 150.867341 311.0525 
L 150.867341 162.981752 
L 144.116561 162.981752 
z
" clip-path="url(#p7d732438b8)" style="fill: #1e90ff; opacity: 0.8; stroke: #ffffff; stroke-linejoin: miter"/>
   </g>
   <g id="patch_37">
    <path d="M 150.867341 311.0525 
L 157.618121 311.0525 
L 157.618121 170.774949 
L 150.867341 170.774949 
z
" clip-path="url(#p7d732438b8)" style="fill: #1e90ff; opacity: 0.8; stroke: #ffffff; stroke-linejoin: miter"/>
   </g>
   <g id="patch_38">
    <path d="M 157.618121 311.0525 
L 164.368901 311.0525 
L 164.368901 217.534133 
L 157.618121 217.534133 
z
" clip-path="url(#p7d732438b8)" style="fill: #1e90ff; opacity: 0.8; stroke: #ffffff; stroke-linejoin: miter"/>
   </g>
   <g id="patch_39">
    <path d="M 164.368901 311.0525 
L 171.119681 311.0525 
L 171.119681 256.500119 
L 164.368901 256.500119 
z
" clip-path="url(#p7d732438b8)" style="fill: #1e90ff; opacity: 0.8; stroke: #ffffff; stroke-linejoin: miter"/>
   </g>
   <g id="patch_40">
    <path d="M 171.119681 311.0525 
L 177.870461 311.0525 
L 177.870461 287.672908 
L 171.119681 287.672908 
z
" clip-path="url(#p7d732438b8)" style="fill: #1e90ff; opacity: 0.8; stroke: #ffffff; stroke-linejoin: miter"/>
   </g>
   <g id="patch_41">
    <path d="M 177.870461 311.0525 
L 184.621241 311.0525 
L 184.621241 295.466105 
L 177.870461 295.466105 
z
" clip-path="url(#p7d732438b8)" style="fill: #1e90ff; opacity: 0.8; stroke: #ffffff; stroke-linejoin: miter"/>
   </g>
   <g id="patch_42">
    <path d="M 184.621241 311.0525 
L 191.372021 311.0525 
L 191.372021 303.259303 
L 184.621241 303.259303 
z
" clip-path="url(#p7d732438b8)" style="fill: #1e90ff; opacity: 0.8; stroke: #ffffff; stroke-linejoin: miter"/>
   </g>
   <g id="patch_43">
    <path d="M 42.289375 311.0525 
L 42.289375 24.6525 
" style="fill: none; stroke: #cccccc; stroke-width: 0.8; stroke-linejoin: miter; stroke-linecap: square"/>
   </g>
   <g id="patch_44">
    <path d="M 351.764375 311.0525 
L 351.764375 24.6525 
" style="fill: none; stroke: #cccccc; stroke-width: 0.8; stroke-linejoin: miter; stroke-linecap: square"/>
   </g>
   <g id="patch_45">
    <path d="M 42.289375 311.0525 
L 351.764375 311.0525 
" style="fill: none; stroke: #cccccc; stroke-width: 0.8; stroke-linejoin: miter; stroke-linecap: square"/>
   </g>
   <g id="patch_46">
    <path d="M 42.289375 24.6525 
L 351.764375 24.6525 
" style="fill: none; stroke: #cccccc; stroke-width: 0.8; stroke-linejoin: miter; stroke-linecap: square"/>
   </g>
   <g id="text_17">
    <!-- LDA -->
    <g style="fill: #262626" transform="translate(181.464375 18.6525)scale(0.16 -0.16)">
     <defs>
      <path id="ArialMT-4c" d="M 469 0 
L 469 4581 
L 1075 4581 
L 1075 541 
L 3331 541 
L 3331 0 
L 469 0 
z
" transform="scale(0.015625)"/>
      <path id="ArialMT-41" d="M -9 0 
L 1750 4581 
L 2403 4581 
L 4278 0 
L 3588 0 
L 3053 1388 
L 1138 1388 
L 634 0 
L -9 0 
z
M 1313 1881 
L 2866 1881 
L 2388 3150 
Q 2169 3728 2063 4100 
Q 1975 3659 1816 3225 
L 1313 1881 
z
" transform="scale(0.015625)"/>
     </defs>
     <use xlink:href="#ArialMT-4c"/>
     <use xlink:href="#ArialMT-44" x="55.615234"/>
     <use xlink:href="#ArialMT-41" x="127.832031"/>
    </g>
   </g>
   <g id="legend_1">
    <g id="patch_47">
     <path d="M 304.434687 60.943125 
L 344.764375 60.943125 
Q 346.764375 60.943125 346.764375 58.943125 
L 346.764375 31.6525 
Q 346.764375 29.6525 344.764375 29.6525 
L 304.434687 29.6525 
Q 302.434687 29.6525 302.434687 31.6525 
L 302.434687 58.943125 
Q 302.434687 60.943125 304.434687 60.943125 
z
" style="fill: #ffffff; opacity: 0.8; stroke: #cccccc; stroke-linejoin: miter"/>
    </g>
    <g id="patch_48">
     <path d="M 306.434687 40.810312 
L 326.434687 40.810312 
L 326.434687 33.810312 
L 306.434687 33.810312 
z
" style="fill: #ff4500; opacity: 0.8; stroke: #ffffff; stroke-linejoin: miter"/>
    </g>
    <g id="text_18">
     <!-- M -->
     <g style="fill: #262626" transform="translate(334.434687 40.810312)scale(0.1 -0.1)">
      <defs>
       <path id="ArialMT-4d" d="M 475 0 
L 475 4581 
L 1388 4581 
L 2472 1338 
Q 2622 884 2691 659 
Q 2769 909 2934 1394 
L 4031 4581 
L 4847 4581 
L 4847 0 
L 4263 0 
L 4263 3834 
L 2931 0 
L 2384 0 
L 1059 3900 
L 1059 0 
L 475 0 
z
" transform="scale(0.015625)"/>
      </defs>
      <use xlink:href="#ArialMT-4d"/>
     </g>
    </g>
    <g id="patch_49">
     <path d="M 306.434687 54.955625 
L 326.434687 54.955625 
L 326.434687 47.955625 
L 306.434687 47.955625 
z
" style="fill: #1e90ff; opacity: 0.8; stroke: #ffffff; stroke-linejoin: miter"/>
    </g>
    <g id="text_19">
     <!-- B -->
     <g style="fill: #262626" transform="translate(334.434687 54.955625)scale(0.1 -0.1)">
      <defs>
       <path id="ArialMT-42" d="M 469 0 
L 469 4581 
L 2188 4581 
Q 2713 4581 3030 4442 
Q 3347 4303 3526 4014 
Q 3706 3725 3706 3409 
Q 3706 3116 3547 2856 
Q 3388 2597 3066 2438 
Q 3481 2316 3704 2022 
Q 3928 1728 3928 1328 
Q 3928 1006 3792 729 
Q 3656 453 3456 303 
Q 3256 153 2954 76 
Q 2653 0 2216 0 
L 469 0 
z
M 1075 2656 
L 2066 2656 
Q 2469 2656 2644 2709 
Q 2875 2778 2992 2937 
Q 3109 3097 3109 3338 
Q 3109 3566 3000 3739 
Q 2891 3913 2687 3977 
Q 2484 4041 1991 4041 
L 1075 4041 
L 1075 2656 
z
M 1075 541 
L 2216 541 
Q 2509 541 2628 563 
Q 2838 600 2978 687 
Q 3119 775 3209 942 
Q 3300 1109 3300 1328 
Q 3300 1584 3169 1773 
Q 3038 1963 2805 2039 
Q 2572 2116 2134 2116 
L 1075 2116 
L 1075 541 
z
" transform="scale(0.015625)"/>
      </defs>
      <use xlink:href="#ArialMT-42"/>
     </g>
    </g>
   </g>
  </g>
  <g id="axes_2">
   <g id="patch_50">
    <path d="M 398.689375 311.0525 
L 708.164375 311.0525 
L 708.164375 24.6525 
L 398.689375 24.6525 
z
" style="fill: #ffffff"/>
   </g>
   <g id="matplotlib.axis_3">
    <g id="xtick_7">
     <g id="line2d_15">
      <path d="M 420.666882 311.0525 
L 420.666882 24.6525 
" clip-path="url(#p9ff47afbf9)" style="fill: none; stroke: #cccccc; stroke-width: 0.8; stroke-linecap: round"/>
     </g>
     <g id="text_20">
      <!-- −5 -->
      <g style="fill: #262626" transform="translate(414.966101 325.210312)scale(0.1 -0.1)">
       <use xlink:href="#ArialMT-2212"/>
       <use xlink:href="#ArialMT-35" x="58.398438"/>
      </g>
     </g>
    </g>
    <g id="xtick_8">
     <g id="line2d_16">
      <path d="M 484.381399 311.0525 
L 484.381399 24.6525 
" clip-path="url(#p9ff47afbf9)" style="fill: none; stroke: #cccccc; stroke-width: 0.8; stroke-linecap: round"/>
     </g>
     <g id="text_21">
      <!-- 0 -->
      <g style="fill: #262626" transform="translate(481.600931 325.210312)scale(0.1 -0.1)">
       <use xlink:href="#ArialMT-30"/>
      </g>
     </g>
    </g>
    <g id="xtick_9">
     <g id="line2d_17">
      <path d="M 548.095917 311.0525 
L 548.095917 24.6525 
" clip-path="url(#p9ff47afbf9)" style="fill: none; stroke: #cccccc; stroke-width: 0.8; stroke-linecap: round"/>
     </g>
     <g id="text_22">
      <!-- 5 -->
      <g style="fill: #262626" transform="translate(545.315448 325.210312)scale(0.1 -0.1)">
       <use xlink:href="#ArialMT-35"/>
      </g>
     </g>
    </g>
    <g id="xtick_10">
     <g id="line2d_18">
      <path d="M 611.810434 311.0525 
L 611.810434 24.6525 
" clip-path="url(#p9ff47afbf9)" style="fill: none; stroke: #cccccc; stroke-width: 0.8; stroke-linecap: round"/>
     </g>
     <g id="text_23">
      <!-- 10 -->
      <g style="fill: #262626" transform="translate(606.249497 325.210312)scale(0.1 -0.1)">
       <use xlink:href="#ArialMT-31"/>
       <use xlink:href="#ArialMT-30" x="55.615234"/>
      </g>
     </g>
    </g>
    <g id="xtick_11">
     <g id="line2d_19">
      <path d="M 675.524952 311.0525 
L 675.524952 24.6525 
" clip-path="url(#p9ff47afbf9)" style="fill: none; stroke: #cccccc; stroke-width: 0.8; stroke-linecap: round"/>
     </g>
     <g id="text_24">
      <!-- 15 -->
      <g style="fill: #262626" transform="translate(669.964014 325.210312)scale(0.1 -0.1)">
       <use xlink:href="#ArialMT-31"/>
       <use xlink:href="#ArialMT-35" x="55.615234"/>
      </g>
     </g>
    </g>
    <g id="text_25">
     <!-- One-Dimensional Data -->
     <g style="fill: #262626" transform="translate(482.620781 341.21875)scale(0.14 -0.14)">
      <use xlink:href="#ArialMT-4f"/>
      <use xlink:href="#ArialMT-6e" x="77.783203"/>
      <use xlink:href="#ArialMT-65" x="133.398438"/>
      <use xlink:href="#ArialMT-2d" x="189.013672"/>
      <use xlink:href="#ArialMT-44" x="222.314453"/>
      <use xlink:href="#ArialMT-69" x="294.53125"/>
      <use xlink:href="#ArialMT-6d" x="316.748047"/>
      <use xlink:href="#ArialMT-65" x="400.048828"/>
      <use xlink:href="#ArialMT-6e" x="455.664062"/>
      <use xlink:href="#ArialMT-73" x="511.279297"/>
      <use xlink:href="#ArialMT-69" x="561.279297"/>
      <use xlink:href="#ArialMT-6f" x="583.496094"/>
      <use xlink:href="#ArialMT-6e" x="639.111328"/>
      <use xlink:href="#ArialMT-61" x="694.726562"/>
      <use xlink:href="#ArialMT-6c" x="750.341797"/>
      <use xlink:href="#ArialMT-20" x="772.558594"/>
      <use xlink:href="#ArialMT-44" x="800.341797"/>
      <use xlink:href="#ArialMT-61" x="872.558594"/>
      <use xlink:href="#ArialMT-74" x="928.173828"/>
      <use xlink:href="#ArialMT-61" x="955.957031"/>
     </g>
    </g>
   </g>
   <g id="matplotlib.axis_4">
    <g id="ytick_9">
     <g id="line2d_20">
      <path d="M 398.689375 311.0525 
L 708.164375 311.0525 
" clip-path="url(#p9ff47afbf9)" style="fill: none; stroke: #cccccc; stroke-width: 0.8; stroke-linecap: round"/>
     </g>
     <g id="text_26">
      <!-- 0 -->
      <g style="fill: #262626" transform="translate(386.128437 314.631406)scale(0.1 -0.1)">
       <use xlink:href="#ArialMT-30"/>
      </g>
     </g>
    </g>
    <g id="ytick_10">
     <g id="line2d_21">
      <path d="M 398.689375 253.018052 
L 708.164375 253.018052 
" clip-path="url(#p9ff47afbf9)" style="fill: none; stroke: #cccccc; stroke-width: 0.8; stroke-linecap: round"/>
     </g>
     <g id="text_27">
      <!-- 10 -->
      <g style="fill: #262626" transform="translate(380.5675 256.596958)scale(0.1 -0.1)">
       <use xlink:href="#ArialMT-31"/>
       <use xlink:href="#ArialMT-30" x="55.615234"/>
      </g>
     </g>
    </g>
    <g id="ytick_11">
     <g id="line2d_22">
      <path d="M 398.689375 194.983604 
L 708.164375 194.983604 
" clip-path="url(#p9ff47afbf9)" style="fill: none; stroke: #cccccc; stroke-width: 0.8; stroke-linecap: round"/>
     </g>
     <g id="text_28">
      <!-- 20 -->
      <g style="fill: #262626" transform="translate(380.5675 198.562511)scale(0.1 -0.1)">
       <use xlink:href="#ArialMT-32"/>
       <use xlink:href="#ArialMT-30" x="55.615234"/>
      </g>
     </g>
    </g>
    <g id="ytick_12">
     <g id="line2d_23">
      <path d="M 398.689375 136.949157 
L 708.164375 136.949157 
" clip-path="url(#p9ff47afbf9)" style="fill: none; stroke: #cccccc; stroke-width: 0.8; stroke-linecap: round"/>
     </g>
     <g id="text_29">
      <!-- 30 -->
      <g style="fill: #262626" transform="translate(380.5675 140.528063)scale(0.1 -0.1)">
       <use xlink:href="#ArialMT-33"/>
       <use xlink:href="#ArialMT-30" x="55.615234"/>
      </g>
     </g>
    </g>
    <g id="ytick_13">
     <g id="line2d_24">
      <path d="M 398.689375 78.914709 
L 708.164375 78.914709 
" clip-path="url(#p9ff47afbf9)" style="fill: none; stroke: #cccccc; stroke-width: 0.8; stroke-linecap: round"/>
     </g>
     <g id="text_30">
      <!-- 40 -->
      <g style="fill: #262626" transform="translate(380.5675 82.493615)scale(0.1 -0.1)">
       <use xlink:href="#ArialMT-34"/>
       <use xlink:href="#ArialMT-30" x="55.615234"/>
      </g>
     </g>
    </g>
    <g id="text_31">
     <!-- Frequency -->
     <g style="fill: #262626" transform="translate(373.620937 200.922031)rotate(-90)scale(0.14 -0.14)">
      <use xlink:href="#ArialMT-46"/>
      <use xlink:href="#ArialMT-72" x="61.083984"/>
      <use xlink:href="#ArialMT-65" x="94.384766"/>
      <use xlink:href="#ArialMT-71" x="150"/>
      <use xlink:href="#ArialMT-75" x="205.615234"/>
      <use xlink:href="#ArialMT-65" x="261.230469"/>
      <use xlink:href="#ArialMT-6e" x="316.845703"/>
      <use xlink:href="#ArialMT-63" x="372.460938"/>
      <use xlink:href="#ArialMT-79" x="422.460938"/>
     </g>
    </g>
   </g>
   <g id="patch_51">
    <path d="M 457.677022 311.0525 
L 469.498038 311.0525 
L 469.498038 299.44561 
L 457.677022 299.44561 
z
" clip-path="url(#p9ff47afbf9)" style="fill: #ff4500; opacity: 0.8; stroke: #ffffff; stroke-linejoin: miter"/>
   </g>
   <g id="patch_52">
    <path d="M 469.498038 311.0525 
L 481.319053 311.0525 
L 481.319053 258.821497 
L 469.498038 258.821497 
z
" clip-path="url(#p9ff47afbf9)" style="fill: #ff4500; opacity: 0.8; stroke: #ffffff; stroke-linejoin: miter"/>
   </g>
   <g id="patch_53">
    <path d="M 481.319053 311.0525 
L 493.140068 311.0525 
L 493.140068 253.018052 
L 481.319053 253.018052 
z
" clip-path="url(#p9ff47afbf9)" style="fill: #ff4500; opacity: 0.8; stroke: #ffffff; stroke-linejoin: miter"/>
   </g>
   <g id="patch_54">
    <path d="M 493.140068 311.0525 
L 504.961084 311.0525 
L 504.961084 235.607718 
L 493.140068 235.607718 
z
" clip-path="url(#p9ff47afbf9)" style="fill: #ff4500; opacity: 0.8; stroke: #ffffff; stroke-linejoin: miter"/>
   </g>
   <g id="patch_55">
    <path d="M 504.961084 311.0525 
L 516.782099 311.0525 
L 516.782099 206.590494 
L 504.961084 206.590494 
z
" clip-path="url(#p9ff47afbf9)" style="fill: #ff4500; opacity: 0.8; stroke: #ffffff; stroke-linejoin: miter"/>
   </g>
   <g id="patch_56">
    <path d="M 516.782099 311.0525 
L 528.603115 311.0525 
L 528.603115 160.162936 
L 516.782099 160.162936 
z
" clip-path="url(#p9ff47afbf9)" style="fill: #ff4500; opacity: 0.8; stroke: #ffffff; stroke-linejoin: miter"/>
   </g>
   <g id="patch_57">
    <path d="M 528.603115 311.0525 
L 540.42413 311.0525 
L 540.42413 189.18016 
L 528.603115 189.18016 
z
" clip-path="url(#p9ff47afbf9)" style="fill: #ff4500; opacity: 0.8; stroke: #ffffff; stroke-linejoin: miter"/>
   </g>
   <g id="patch_58">
    <path d="M 540.42413 311.0525 
L 552.245145 311.0525 
L 552.245145 218.197383 
L 540.42413 218.197383 
z
" clip-path="url(#p9ff47afbf9)" style="fill: #ff4500; opacity: 0.8; stroke: #ffffff; stroke-linejoin: miter"/>
   </g>
   <g id="patch_59">
    <path d="M 552.245145 311.0525 
L 564.066161 311.0525 
L 564.066161 264.624942 
L 552.245145 264.624942 
z
" clip-path="url(#p9ff47afbf9)" style="fill: #ff4500; opacity: 0.8; stroke: #ffffff; stroke-linejoin: miter"/>
   </g>
   <g id="patch_60">
    <path d="M 564.066161 311.0525 
L 575.887176 311.0525 
L 575.887176 276.231831 
L 564.066161 276.231831 
z
" clip-path="url(#p9ff47afbf9)" style="fill: #ff4500; opacity: 0.8; stroke: #ffffff; stroke-linejoin: miter"/>
   </g>
   <g id="patch_61">
    <path d="M 575.887176 311.0525 
L 587.708191 311.0525 
L 587.708191 276.231831 
L 575.887176 276.231831 
z
" clip-path="url(#p9ff47afbf9)" style="fill: #ff4500; opacity: 0.8; stroke: #ffffff; stroke-linejoin: miter"/>
   </g>
   <g id="patch_62">
    <path d="M 587.708191 311.0525 
L 599.529207 311.0525 
L 599.529207 282.035276 
L 587.708191 282.035276 
z
" clip-path="url(#p9ff47afbf9)" style="fill: #ff4500; opacity: 0.8; stroke: #ffffff; stroke-linejoin: miter"/>
   </g>
   <g id="patch_63">
    <path d="M 599.529207 311.0525 
L 611.350222 311.0525 
L 611.350222 293.642166 
L 599.529207 293.642166 
z
" clip-path="url(#p9ff47afbf9)" style="fill: #ff4500; opacity: 0.8; stroke: #ffffff; stroke-linejoin: miter"/>
   </g>
   <g id="patch_64">
    <path d="M 611.350222 311.0525 
L 623.171237 311.0525 
L 623.171237 299.44561 
L 611.350222 299.44561 
z
" clip-path="url(#p9ff47afbf9)" style="fill: #ff4500; opacity: 0.8; stroke: #ffffff; stroke-linejoin: miter"/>
   </g>
   <g id="patch_65">
    <path d="M 623.171237 311.0525 
L 634.992253 311.0525 
L 634.992253 311.0525 
L 623.171237 311.0525 
z
" clip-path="url(#p9ff47afbf9)" style="fill: #ff4500; opacity: 0.8; stroke: #ffffff; stroke-linejoin: miter"/>
   </g>
   <g id="patch_66">
    <path d="M 634.992253 311.0525 
L 646.813268 311.0525 
L 646.813268 305.249055 
L 634.992253 305.249055 
z
" clip-path="url(#p9ff47afbf9)" style="fill: #ff4500; opacity: 0.8; stroke: #ffffff; stroke-linejoin: miter"/>
   </g>
   <g id="patch_67">
    <path d="M 646.813268 311.0525 
L 658.634283 311.0525 
L 658.634283 305.249055 
L 646.813268 305.249055 
z
" clip-path="url(#p9ff47afbf9)" style="fill: #ff4500; opacity: 0.8; stroke: #ffffff; stroke-linejoin: miter"/>
   </g>
   <g id="patch_68">
    <path d="M 658.634283 311.0525 
L 670.455299 311.0525 
L 670.455299 311.0525 
L 658.634283 311.0525 
z
" clip-path="url(#p9ff47afbf9)" style="fill: #ff4500; opacity: 0.8; stroke: #ffffff; stroke-linejoin: miter"/>
   </g>
   <g id="patch_69">
    <path d="M 670.455299 311.0525 
L 682.276314 311.0525 
L 682.276314 311.0525 
L 670.455299 311.0525 
z
" clip-path="url(#p9ff47afbf9)" style="fill: #ff4500; opacity: 0.8; stroke: #ffffff; stroke-linejoin: miter"/>
   </g>
   <g id="patch_70">
    <path d="M 682.276314 311.0525 
L 694.09733 311.0525 
L 694.09733 305.249055 
L 682.276314 305.249055 
z
" clip-path="url(#p9ff47afbf9)" style="fill: #ff4500; opacity: 0.8; stroke: #ffffff; stroke-linejoin: miter"/>
   </g>
   <g id="patch_71">
    <path d="M 412.75642 311.0525 
L 420.903843 311.0525 
L 420.903843 282.035276 
L 412.75642 282.035276 
z
" clip-path="url(#p9ff47afbf9)" style="fill: #1e90ff; opacity: 0.8; stroke: #ffffff; stroke-linejoin: miter"/>
   </g>
   <g id="patch_72">
    <path d="M 420.903843 311.0525 
L 429.051265 311.0525 
L 429.051265 218.197383 
L 420.903843 218.197383 
z
" clip-path="url(#p9ff47afbf9)" style="fill: #1e90ff; opacity: 0.8; stroke: #ffffff; stroke-linejoin: miter"/>
   </g>
   <g id="patch_73">
    <path d="M 429.051265 311.0525 
L 437.198687 311.0525 
L 437.198687 160.162936 
L 429.051265 160.162936 
z
" clip-path="url(#p9ff47afbf9)" style="fill: #1e90ff; opacity: 0.8; stroke: #ffffff; stroke-linejoin: miter"/>
   </g>
   <g id="patch_74">
    <path d="M 437.198687 311.0525 
L 445.346109 311.0525 
L 445.346109 119.538822 
L 437.198687 119.538822 
z
" clip-path="url(#p9ff47afbf9)" style="fill: #1e90ff; opacity: 0.8; stroke: #ffffff; stroke-linejoin: miter"/>
   </g>
   <g id="patch_75">
    <path d="M 445.346109 311.0525 
L 453.493531 311.0525 
L 453.493531 38.290595 
L 445.346109 38.290595 
z
" clip-path="url(#p9ff47afbf9)" style="fill: #1e90ff; opacity: 0.8; stroke: #ffffff; stroke-linejoin: miter"/>
   </g>
   <g id="patch_76">
    <path d="M 453.493531 311.0525 
L 461.640953 311.0525 
L 461.640953 78.914709 
L 453.493531 78.914709 
z
" clip-path="url(#p9ff47afbf9)" style="fill: #1e90ff; opacity: 0.8; stroke: #ffffff; stroke-linejoin: miter"/>
   </g>
   <g id="patch_77">
    <path d="M 461.640953 311.0525 
L 469.788375 311.0525 
L 469.788375 148.556046 
L 461.640953 148.556046 
z
" clip-path="url(#p9ff47afbf9)" style="fill: #1e90ff; opacity: 0.8; stroke: #ffffff; stroke-linejoin: miter"/>
   </g>
   <g id="patch_78">
    <path d="M 469.788375 311.0525 
L 477.935797 311.0525 
L 477.935797 200.787049 
L 469.788375 200.787049 
z
" clip-path="url(#p9ff47afbf9)" style="fill: #1e90ff; opacity: 0.8; stroke: #ffffff; stroke-linejoin: miter"/>
   </g>
   <g id="patch_79">
    <path d="M 477.935797 311.0525 
L 486.083219 311.0525 
L 486.083219 229.804273 
L 477.935797 229.804273 
z
" clip-path="url(#p9ff47afbf9)" style="fill: #1e90ff; opacity: 0.8; stroke: #ffffff; stroke-linejoin: miter"/>
   </g>
   <g id="patch_80">
    <path d="M 486.083219 311.0525 
L 494.230641 311.0525 
L 494.230641 258.821497 
L 486.083219 258.821497 
z
" clip-path="url(#p9ff47afbf9)" style="fill: #1e90ff; opacity: 0.8; stroke: #ffffff; stroke-linejoin: miter"/>
   </g>
   <g id="patch_81">
    <path d="M 494.230641 311.0525 
L 502.378063 311.0525 
L 502.378063 287.838721 
L 494.230641 287.838721 
z
" clip-path="url(#p9ff47afbf9)" style="fill: #1e90ff; opacity: 0.8; stroke: #ffffff; stroke-linejoin: miter"/>
   </g>
   <g id="patch_82">
    <path d="M 502.378063 311.0525 
L 510.525485 311.0525 
L 510.525485 287.838721 
L 502.378063 287.838721 
z
" clip-path="url(#p9ff47afbf9)" style="fill: #1e90ff; opacity: 0.8; stroke: #ffffff; stroke-linejoin: miter"/>
   </g>
   <g id="patch_83">
    <path d="M 510.525485 311.0525 
L 518.672907 311.0525 
L 518.672907 299.44561 
L 510.525485 299.44561 
z
" clip-path="url(#p9ff47afbf9)" style="fill: #1e90ff; opacity: 0.8; stroke: #ffffff; stroke-linejoin: miter"/>
   </g>
   <g id="patch_84">
    <path d="M 518.672907 311.0525 
L 526.820329 311.0525 
L 526.820329 311.0525 
L 518.672907 311.0525 
z
" clip-path="url(#p9ff47afbf9)" style="fill: #1e90ff; opacity: 0.8; stroke: #ffffff; stroke-linejoin: miter"/>
   </g>
   <g id="patch_85">
    <path d="M 526.820329 311.0525 
L 534.967751 311.0525 
L 534.967751 305.249055 
L 526.820329 305.249055 
z
" clip-path="url(#p9ff47afbf9)" style="fill: #1e90ff; opacity: 0.8; stroke: #ffffff; stroke-linejoin: miter"/>
   </g>
   <g id="patch_86">
    <path d="M 534.967751 311.0525 
L 543.115173 311.0525 
L 543.115173 305.249055 
L 534.967751 305.249055 
z
" clip-path="url(#p9ff47afbf9)" style="fill: #1e90ff; opacity: 0.8; stroke: #ffffff; stroke-linejoin: miter"/>
   </g>
   <g id="patch_87">
    <path d="M 543.115173 311.0525 
L 551.262595 311.0525 
L 551.262595 311.0525 
L 543.115173 311.0525 
z
" clip-path="url(#p9ff47afbf9)" style="fill: #1e90ff; opacity: 0.8; stroke: #ffffff; stroke-linejoin: miter"/>
   </g>
   <g id="patch_88">
    <path d="M 551.262595 311.0525 
L 559.410017 311.0525 
L 559.410017 311.0525 
L 551.262595 311.0525 
z
" clip-path="url(#p9ff47afbf9)" style="fill: #1e90ff; opacity: 0.8; stroke: #ffffff; stroke-linejoin: miter"/>
   </g>
   <g id="patch_89">
    <path d="M 559.410017 311.0525 
L 567.557439 311.0525 
L 567.557439 311.0525 
L 559.410017 311.0525 
z
" clip-path="url(#p9ff47afbf9)" style="fill: #1e90ff; opacity: 0.8; stroke: #ffffff; stroke-linejoin: miter"/>
   </g>
   <g id="patch_90">
    <path d="M 567.557439 311.0525 
L 575.704861 311.0525 
L 575.704861 305.249055 
L 567.557439 305.249055 
z
" clip-path="url(#p9ff47afbf9)" style="fill: #1e90ff; opacity: 0.8; stroke: #ffffff; stroke-linejoin: miter"/>
   </g>
   <g id="patch_91">
    <path d="M 398.689375 311.0525 
L 398.689375 24.6525 
" style="fill: none; stroke: #cccccc; stroke-width: 0.8; stroke-linejoin: miter; stroke-linecap: square"/>
   </g>
   <g id="patch_92">
    <path d="M 708.164375 311.0525 
L 708.164375 24.6525 
" style="fill: none; stroke: #cccccc; stroke-width: 0.8; stroke-linejoin: miter; stroke-linecap: square"/>
   </g>
   <g id="patch_93">
    <path d="M 398.689375 311.0525 
L 708.164375 311.0525 
" style="fill: none; stroke: #cccccc; stroke-width: 0.8; stroke-linejoin: miter; stroke-linecap: square"/>
   </g>
   <g id="patch_94">
    <path d="M 398.689375 24.6525 
L 708.164375 24.6525 
" style="fill: none; stroke: #cccccc; stroke-width: 0.8; stroke-linejoin: miter; stroke-linecap: square"/>
   </g>
   <g id="text_32">
    <!-- PCA -->
    <g style="fill: #262626" transform="translate(536.976875 18.6525)scale(0.16 -0.16)">
     <defs>
      <path id="ArialMT-50" d="M 494 0 
L 494 4581 
L 2222 4581 
Q 2678 4581 2919 4538 
Q 3256 4481 3484 4323 
Q 3713 4166 3852 3881 
Q 3991 3597 3991 3256 
Q 3991 2672 3619 2267 
Q 3247 1863 2275 1863 
L 1100 1863 
L 1100 0 
L 494 0 
z
M 1100 2403 
L 2284 2403 
Q 2872 2403 3119 2622 
Q 3366 2841 3366 3238 
Q 3366 3525 3220 3729 
Q 3075 3934 2838 4000 
Q 2684 4041 2272 4041 
L 1100 4041 
L 1100 2403 
z
" transform="scale(0.015625)"/>
      <path id="ArialMT-43" d="M 3763 1606 
L 4369 1453 
Q 4178 706 3683 314 
Q 3188 -78 2472 -78 
Q 1731 -78 1267 223 
Q 803 525 561 1097 
Q 319 1669 319 2325 
Q 319 3041 592 3573 
Q 866 4106 1370 4382 
Q 1875 4659 2481 4659 
Q 3169 4659 3637 4309 
Q 4106 3959 4291 3325 
L 3694 3184 
Q 3534 3684 3231 3912 
Q 2928 4141 2469 4141 
Q 1941 4141 1586 3887 
Q 1231 3634 1087 3207 
Q 944 2781 944 2328 
Q 944 1744 1114 1308 
Q 1284 872 1643 656 
Q 2003 441 2422 441 
Q 2931 441 3284 734 
Q 3638 1028 3763 1606 
z
" transform="scale(0.015625)"/>
     </defs>
     <use xlink:href="#ArialMT-50"/>
     <use xlink:href="#ArialMT-43" x="66.699219"/>
     <use xlink:href="#ArialMT-41" x="138.916016"/>
    </g>
   </g>
   <g id="legend_2">
    <g id="patch_95">
     <path d="M 660.834687 60.943125 
L 701.164375 60.943125 
Q 703.164375 60.943125 703.164375 58.943125 
L 703.164375 31.6525 
Q 703.164375 29.6525 701.164375 29.6525 
L 660.834687 29.6525 
Q 658.834687 29.6525 658.834687 31.6525 
L 658.834687 58.943125 
Q 658.834687 60.943125 660.834687 60.943125 
z
" style="fill: #ffffff; opacity: 0.8; stroke: #cccccc; stroke-linejoin: miter"/>
    </g>
    <g id="patch_96">
     <path d="M 662.834687 40.810312 
L 682.834687 40.810312 
L 682.834687 33.810312 
L 662.834687 33.810312 
z
" style="fill: #ff4500; opacity: 0.8; stroke: #ffffff; stroke-linejoin: miter"/>
    </g>
    <g id="text_33">
     <!-- M -->
     <g style="fill: #262626" transform="translate(690.834687 40.810312)scale(0.1 -0.1)">
      <use xlink:href="#ArialMT-4d"/>
     </g>
    </g>
    <g id="patch_97">
     <path d="M 662.834687 54.955625 
L 682.834687 54.955625 
L 682.834687 47.955625 
L 662.834687 47.955625 
z
" style="fill: #1e90ff; opacity: 0.8; stroke: #ffffff; stroke-linejoin: miter"/>
    </g>
    <g id="text_34">
     <!-- B -->
     <g style="fill: #262626" transform="translate(690.834687 54.955625)scale(0.1 -0.1)">
      <use xlink:href="#ArialMT-42"/>
     </g>
    </g>
   </g>
  </g>
  <g id="axes_3">
   <g id="patch_98">
    <path d="M 755.089375 311.0525 
L 1064.564375 311.0525 
L 1064.564375 24.6525 
L 755.089375 24.6525 
z
" style="fill: #ffffff"/>
   </g>
   <g id="matplotlib.axis_5">
    <g id="xtick_12">
     <g id="line2d_25">
      <path d="M 783.091846 311.0525 
L 783.091846 24.6525 
" clip-path="url(#pc0243eefe4)" style="fill: none; stroke: #cccccc; stroke-width: 0.8; stroke-linecap: round"/>
     </g>
     <g id="text_35">
      <!-- −4 -->
      <g style="fill: #262626" transform="translate(777.391065 325.210312)scale(0.1 -0.1)">
       <use xlink:href="#ArialMT-2212"/>
       <use xlink:href="#ArialMT-34" x="58.398438"/>
      </g>
     </g>
    </g>
    <g id="xtick_13">
     <g id="line2d_26">
      <path d="M 832.918219 311.0525 
L 832.918219 24.6525 
" clip-path="url(#pc0243eefe4)" style="fill: none; stroke: #cccccc; stroke-width: 0.8; stroke-linecap: round"/>
     </g>
     <g id="text_36">
      <!-- −3 -->
      <g style="fill: #262626" transform="translate(827.217437 325.210312)scale(0.1 -0.1)">
       <use xlink:href="#ArialMT-2212"/>
       <use xlink:href="#ArialMT-33" x="58.398438"/>
      </g>
     </g>
    </g>
    <g id="xtick_14">
     <g id="line2d_27">
      <path d="M 882.744591 311.0525 
L 882.744591 24.6525 
" clip-path="url(#pc0243eefe4)" style="fill: none; stroke: #cccccc; stroke-width: 0.8; stroke-linecap: round"/>
     </g>
     <g id="text_37">
      <!-- −2 -->
      <g style="fill: #262626" transform="translate(877.04381 325.210312)scale(0.1 -0.1)">
       <use xlink:href="#ArialMT-2212"/>
       <use xlink:href="#ArialMT-32" x="58.398438"/>
      </g>
     </g>
    </g>
    <g id="xtick_15">
     <g id="line2d_28">
      <path d="M 932.570964 311.0525 
L 932.570964 24.6525 
" clip-path="url(#pc0243eefe4)" style="fill: none; stroke: #cccccc; stroke-width: 0.8; stroke-linecap: round"/>
     </g>
     <g id="text_38">
      <!-- −1 -->
      <g style="fill: #262626" transform="translate(926.870183 325.210312)scale(0.1 -0.1)">
       <use xlink:href="#ArialMT-2212"/>
       <use xlink:href="#ArialMT-31" x="58.398438"/>
      </g>
     </g>
    </g>
    <g id="xtick_16">
     <g id="line2d_29">
      <path d="M 982.397337 311.0525 
L 982.397337 24.6525 
" clip-path="url(#pc0243eefe4)" style="fill: none; stroke: #cccccc; stroke-width: 0.8; stroke-linecap: round"/>
     </g>
     <g id="text_39">
      <!-- 0 -->
      <g style="fill: #262626" transform="translate(979.616868 325.210312)scale(0.1 -0.1)">
       <use xlink:href="#ArialMT-30"/>
      </g>
     </g>
    </g>
    <g id="xtick_17">
     <g id="line2d_30">
      <path d="M 1032.223709 311.0525 
L 1032.223709 24.6525 
" clip-path="url(#pc0243eefe4)" style="fill: none; stroke: #cccccc; stroke-width: 0.8; stroke-linecap: round"/>
     </g>
     <g id="text_40">
      <!-- 1 -->
      <g style="fill: #262626" transform="translate(1029.443241 325.210312)scale(0.1 -0.1)">
       <use xlink:href="#ArialMT-31"/>
      </g>
     </g>
    </g>
    <g id="text_41">
     <!-- One-Dimensional Data -->
     <g style="fill: #262626" transform="translate(839.020781 341.21875)scale(0.14 -0.14)">
      <use xlink:href="#ArialMT-4f"/>
      <use xlink:href="#ArialMT-6e" x="77.783203"/>
      <use xlink:href="#ArialMT-65" x="133.398438"/>
      <use xlink:href="#ArialMT-2d" x="189.013672"/>
      <use xlink:href="#ArialMT-44" x="222.314453"/>
      <use xlink:href="#ArialMT-69" x="294.53125"/>
      <use xlink:href="#ArialMT-6d" x="316.748047"/>
      <use xlink:href="#ArialMT-65" x="400.048828"/>
      <use xlink:href="#ArialMT-6e" x="455.664062"/>
      <use xlink:href="#ArialMT-73" x="511.279297"/>
      <use xlink:href="#ArialMT-69" x="561.279297"/>
      <use xlink:href="#ArialMT-6f" x="583.496094"/>
      <use xlink:href="#ArialMT-6e" x="639.111328"/>
      <use xlink:href="#ArialMT-61" x="694.726562"/>
      <use xlink:href="#ArialMT-6c" x="750.341797"/>
      <use xlink:href="#ArialMT-20" x="772.558594"/>
      <use xlink:href="#ArialMT-44" x="800.341797"/>
      <use xlink:href="#ArialMT-61" x="872.558594"/>
      <use xlink:href="#ArialMT-74" x="928.173828"/>
      <use xlink:href="#ArialMT-61" x="955.957031"/>
     </g>
    </g>
   </g>
   <g id="matplotlib.axis_6">
    <g id="ytick_14">
     <g id="line2d_31">
      <path d="M 755.089375 311.0525 
L 1064.564375 311.0525 
" clip-path="url(#pc0243eefe4)" style="fill: none; stroke: #cccccc; stroke-width: 0.8; stroke-linecap: round"/>
     </g>
     <g id="text_42">
      <!-- 0 -->
      <g style="fill: #262626" transform="translate(742.528437 314.631406)scale(0.1 -0.1)">
       <use xlink:href="#ArialMT-30"/>
      </g>
     </g>
    </g>
    <g id="ytick_15">
     <g id="line2d_32">
      <path d="M 755.089375 251.756434 
L 1064.564375 251.756434 
" clip-path="url(#pc0243eefe4)" style="fill: none; stroke: #cccccc; stroke-width: 0.8; stroke-linecap: round"/>
     </g>
     <g id="text_43">
      <!-- 10 -->
      <g style="fill: #262626" transform="translate(736.9675 255.33534)scale(0.1 -0.1)">
       <use xlink:href="#ArialMT-31"/>
       <use xlink:href="#ArialMT-30" x="55.615234"/>
      </g>
     </g>
    </g>
    <g id="ytick_16">
     <g id="line2d_33">
      <path d="M 755.089375 192.460367 
L 1064.564375 192.460367 
" clip-path="url(#pc0243eefe4)" style="fill: none; stroke: #cccccc; stroke-width: 0.8; stroke-linecap: round"/>
     </g>
     <g id="text_44">
      <!-- 20 -->
      <g style="fill: #262626" transform="translate(736.9675 196.039274)scale(0.1 -0.1)">
       <use xlink:href="#ArialMT-32"/>
       <use xlink:href="#ArialMT-30" x="55.615234"/>
      </g>
     </g>
    </g>
    <g id="ytick_17">
     <g id="line2d_34">
      <path d="M 755.089375 133.164301 
L 1064.564375 133.164301 
" clip-path="url(#pc0243eefe4)" style="fill: none; stroke: #cccccc; stroke-width: 0.8; stroke-linecap: round"/>
     </g>
     <g id="text_45">
      <!-- 30 -->
      <g style="fill: #262626" transform="translate(736.9675 136.743207)scale(0.1 -0.1)">
       <use xlink:href="#ArialMT-33"/>
       <use xlink:href="#ArialMT-30" x="55.615234"/>
      </g>
     </g>
    </g>
    <g id="ytick_18">
     <g id="line2d_35">
      <path d="M 755.089375 73.868235 
L 1064.564375 73.868235 
" clip-path="url(#pc0243eefe4)" style="fill: none; stroke: #cccccc; stroke-width: 0.8; stroke-linecap: round"/>
     </g>
     <g id="text_46">
      <!-- 40 -->
      <g style="fill: #262626" transform="translate(736.9675 77.447141)scale(0.1 -0.1)">
       <use xlink:href="#ArialMT-34"/>
       <use xlink:href="#ArialMT-30" x="55.615234"/>
      </g>
     </g>
    </g>
    <g id="text_47">
     <!-- Frequency -->
     <g style="fill: #262626" transform="translate(730.020937 200.922031)rotate(-90)scale(0.14 -0.14)">
      <use xlink:href="#ArialMT-46"/>
      <use xlink:href="#ArialMT-72" x="61.083984"/>
      <use xlink:href="#ArialMT-65" x="94.384766"/>
      <use xlink:href="#ArialMT-71" x="150"/>
      <use xlink:href="#ArialMT-75" x="205.615234"/>
      <use xlink:href="#ArialMT-65" x="261.230469"/>
      <use xlink:href="#ArialMT-6e" x="316.845703"/>
      <use xlink:href="#ArialMT-63" x="372.460938"/>
      <use xlink:href="#ArialMT-79" x="422.460938"/>
     </g>
    </g>
   </g>
   <g id="patch_99">
    <path d="M 769.15642 311.0525 
L 781.476819 311.0525 
L 781.476819 305.122893 
L 769.15642 305.122893 
z
" clip-path="url(#pc0243eefe4)" style="fill: #ff4500; opacity: 0.8; stroke: #ffffff; stroke-linejoin: miter"/>
   </g>
   <g id="patch_100">
    <path d="M 781.476819 311.0525 
L 793.797218 311.0525 
L 793.797218 311.0525 
L 781.476819 311.0525 
z
" clip-path="url(#pc0243eefe4)" style="fill: #ff4500; opacity: 0.8; stroke: #ffffff; stroke-linejoin: miter"/>
   </g>
   <g id="patch_101">
    <path d="M 793.797218 311.0525 
L 806.117616 311.0525 
L 806.117616 311.0525 
L 793.797218 311.0525 
z
" clip-path="url(#pc0243eefe4)" style="fill: #ff4500; opacity: 0.8; stroke: #ffffff; stroke-linejoin: miter"/>
   </g>
   <g id="patch_102">
    <path d="M 806.117616 311.0525 
L 818.438015 311.0525 
L 818.438015 305.122893 
L 806.117616 305.122893 
z
" clip-path="url(#pc0243eefe4)" style="fill: #ff4500; opacity: 0.8; stroke: #ffffff; stroke-linejoin: miter"/>
   </g>
   <g id="patch_103">
    <path d="M 818.438015 311.0525 
L 830.758413 311.0525 
L 830.758413 299.193287 
L 818.438015 299.193287 
z
" clip-path="url(#pc0243eefe4)" style="fill: #ff4500; opacity: 0.8; stroke: #ffffff; stroke-linejoin: miter"/>
   </g>
   <g id="patch_104">
    <path d="M 830.758413 311.0525 
L 843.078812 311.0525 
L 843.078812 287.334073 
L 830.758413 287.334073 
z
" clip-path="url(#pc0243eefe4)" style="fill: #ff4500; opacity: 0.8; stroke: #ffffff; stroke-linejoin: miter"/>
   </g>
   <g id="patch_105">
    <path d="M 843.078812 311.0525 
L 855.39921 311.0525 
L 855.39921 299.193287 
L 843.078812 299.193287 
z
" clip-path="url(#pc0243eefe4)" style="fill: #ff4500; opacity: 0.8; stroke: #ffffff; stroke-linejoin: miter"/>
   </g>
   <g id="patch_106">
    <path d="M 855.39921 311.0525 
L 867.719609 311.0525 
L 867.719609 293.26368 
L 855.39921 293.26368 
z
" clip-path="url(#pc0243eefe4)" style="fill: #ff4500; opacity: 0.8; stroke: #ffffff; stroke-linejoin: miter"/>
   </g>
   <g id="patch_107">
    <path d="M 867.719609 311.0525 
L 880.040007 311.0525 
L 880.040007 287.334073 
L 867.719609 287.334073 
z
" clip-path="url(#pc0243eefe4)" style="fill: #ff4500; opacity: 0.8; stroke: #ffffff; stroke-linejoin: miter"/>
   </g>
   <g id="patch_108">
    <path d="M 880.040007 311.0525 
L 892.360406 311.0525 
L 892.360406 263.615647 
L 880.040007 263.615647 
z
" clip-path="url(#pc0243eefe4)" style="fill: #ff4500; opacity: 0.8; stroke: #ffffff; stroke-linejoin: miter"/>
   </g>
   <g id="patch_109">
    <path d="M 892.360406 311.0525 
L 904.680804 311.0525 
L 904.680804 281.404467 
L 892.360406 281.404467 
z
" clip-path="url(#pc0243eefe4)" style="fill: #ff4500; opacity: 0.8; stroke: #ffffff; stroke-linejoin: miter"/>
   </g>
   <g id="patch_110">
    <path d="M 904.680804 311.0525 
L 917.001203 311.0525 
L 917.001203 233.967614 
L 904.680804 233.967614 
z
" clip-path="url(#pc0243eefe4)" style="fill: #ff4500; opacity: 0.8; stroke: #ffffff; stroke-linejoin: miter"/>
   </g>
   <g id="patch_111">
    <path d="M 917.001203 311.0525 
L 929.321602 311.0525 
L 929.321602 192.460367 
L 917.001203 192.460367 
z
" clip-path="url(#pc0243eefe4)" style="fill: #ff4500; opacity: 0.8; stroke: #ffffff; stroke-linejoin: miter"/>
   </g>
   <g id="patch_112">
    <path d="M 929.321602 311.0525 
L 941.642 311.0525 
L 941.642 186.530761 
L 929.321602 186.530761 
z
" clip-path="url(#pc0243eefe4)" style="fill: #ff4500; opacity: 0.8; stroke: #ffffff; stroke-linejoin: miter"/>
   </g>
   <g id="patch_113">
    <path d="M 941.642 311.0525 
L 953.962399 311.0525 
L 953.962399 228.038007 
L 941.642 228.038007 
z
" clip-path="url(#pc0243eefe4)" style="fill: #ff4500; opacity: 0.8; stroke: #ffffff; stroke-linejoin: miter"/>
   </g>
   <g id="patch_114">
    <path d="M 953.962399 311.0525 
L 966.282797 311.0525 
L 966.282797 180.601154 
L 953.962399 180.601154 
z
" clip-path="url(#pc0243eefe4)" style="fill: #ff4500; opacity: 0.8; stroke: #ffffff; stroke-linejoin: miter"/>
   </g>
   <g id="patch_115">
    <path d="M 966.282797 311.0525 
L 978.603196 311.0525 
L 978.603196 245.826827 
L 966.282797 245.826827 
z
" clip-path="url(#pc0243eefe4)" style="fill: #ff4500; opacity: 0.8; stroke: #ffffff; stroke-linejoin: miter"/>
   </g>
   <g id="patch_116">
    <path d="M 978.603196 311.0525 
L 990.923594 311.0525 
L 990.923594 269.545254 
L 978.603196 269.545254 
z
" clip-path="url(#pc0243eefe4)" style="fill: #ff4500; opacity: 0.8; stroke: #ffffff; stroke-linejoin: miter"/>
   </g>
   <g id="patch_117">
    <path d="M 990.923594 311.0525 
L 1003.243993 311.0525 
L 1003.243993 275.47486 
L 990.923594 275.47486 
z
" clip-path="url(#pc0243eefe4)" style="fill: #ff4500; opacity: 0.8; stroke: #ffffff; stroke-linejoin: miter"/>
   </g>
   <g id="patch_118">
    <path d="M 1003.243993 311.0525 
L 1015.564391 311.0525 
L 1015.564391 287.334073 
L 1003.243993 287.334073 
z
" clip-path="url(#pc0243eefe4)" style="fill: #ff4500; opacity: 0.8; stroke: #ffffff; stroke-linejoin: miter"/>
   </g>
   <g id="patch_119">
    <path d="M 898.544532 311.0525 
L 906.142172 311.0525 
L 906.142172 305.122893 
L 898.544532 305.122893 
z
" clip-path="url(#pc0243eefe4)" style="fill: #1e90ff; opacity: 0.8; stroke: #ffffff; stroke-linejoin: miter"/>
   </g>
   <g id="patch_120">
    <path d="M 906.142172 311.0525 
L 913.739812 311.0525 
L 913.739812 305.122893 
L 906.142172 305.122893 
z
" clip-path="url(#pc0243eefe4)" style="fill: #1e90ff; opacity: 0.8; stroke: #ffffff; stroke-linejoin: miter"/>
   </g>
   <g id="patch_121">
    <path d="M 913.739812 311.0525 
L 921.337452 311.0525 
L 921.337452 311.0525 
L 913.739812 311.0525 
z
" clip-path="url(#pc0243eefe4)" style="fill: #1e90ff; opacity: 0.8; stroke: #ffffff; stroke-linejoin: miter"/>
   </g>
   <g id="patch_122">
    <path d="M 921.337452 311.0525 
L 928.935091 311.0525 
L 928.935091 311.0525 
L 921.337452 311.0525 
z
" clip-path="url(#pc0243eefe4)" style="fill: #1e90ff; opacity: 0.8; stroke: #ffffff; stroke-linejoin: miter"/>
   </g>
   <g id="patch_123">
    <path d="M 928.935091 311.0525 
L 936.532731 311.0525 
L 936.532731 311.0525 
L 928.935091 311.0525 
z
" clip-path="url(#pc0243eefe4)" style="fill: #1e90ff; opacity: 0.8; stroke: #ffffff; stroke-linejoin: miter"/>
   </g>
   <g id="patch_124">
    <path d="M 936.532731 311.0525 
L 944.130371 311.0525 
L 944.130371 311.0525 
L 936.532731 311.0525 
z
" clip-path="url(#pc0243eefe4)" style="fill: #1e90ff; opacity: 0.8; stroke: #ffffff; stroke-linejoin: miter"/>
   </g>
   <g id="patch_125">
    <path d="M 944.130371 311.0525 
L 951.728011 311.0525 
L 951.728011 305.122893 
L 944.130371 305.122893 
z
" clip-path="url(#pc0243eefe4)" style="fill: #1e90ff; opacity: 0.8; stroke: #ffffff; stroke-linejoin: miter"/>
   </g>
   <g id="patch_126">
    <path d="M 951.728011 311.0525 
L 959.325651 311.0525 
L 959.325651 311.0525 
L 951.728011 311.0525 
z
" clip-path="url(#pc0243eefe4)" style="fill: #1e90ff; opacity: 0.8; stroke: #ffffff; stroke-linejoin: miter"/>
   </g>
   <g id="patch_127">
    <path d="M 959.325651 311.0525 
L 966.923291 311.0525 
L 966.923291 299.193287 
L 959.325651 299.193287 
z
" clip-path="url(#pc0243eefe4)" style="fill: #1e90ff; opacity: 0.8; stroke: #ffffff; stroke-linejoin: miter"/>
   </g>
   <g id="patch_128">
    <path d="M 966.923291 311.0525 
L 974.520931 311.0525 
L 974.520931 281.404467 
L 966.923291 281.404467 
z
" clip-path="url(#pc0243eefe4)" style="fill: #1e90ff; opacity: 0.8; stroke: #ffffff; stroke-linejoin: miter"/>
   </g>
   <g id="patch_129">
    <path d="M 974.520931 311.0525 
L 982.118571 311.0525 
L 982.118571 257.68604 
L 974.520931 257.68604 
z
" clip-path="url(#pc0243eefe4)" style="fill: #1e90ff; opacity: 0.8; stroke: #ffffff; stroke-linejoin: miter"/>
   </g>
   <g id="patch_130">
    <path d="M 982.118571 311.0525 
L 989.71621 311.0525 
L 989.71621 228.038007 
L 982.118571 228.038007 
z
" clip-path="url(#pc0243eefe4)" style="fill: #1e90ff; opacity: 0.8; stroke: #ffffff; stroke-linejoin: miter"/>
   </g>
   <g id="patch_131">
    <path d="M 989.71621 311.0525 
L 997.31385 311.0525 
L 997.31385 180.601154 
L 989.71621 180.601154 
z
" clip-path="url(#pc0243eefe4)" style="fill: #1e90ff; opacity: 0.8; stroke: #ffffff; stroke-linejoin: miter"/>
   </g>
   <g id="patch_132">
    <path d="M 997.31385 311.0525 
L 1004.91149 311.0525 
L 1004.91149 174.671548 
L 997.31385 174.671548 
z
" clip-path="url(#pc0243eefe4)" style="fill: #1e90ff; opacity: 0.8; stroke: #ffffff; stroke-linejoin: miter"/>
   </g>
   <g id="patch_133">
    <path d="M 1004.91149 311.0525 
L 1012.50913 311.0525 
L 1012.50913 145.023514 
L 1004.91149 145.023514 
z
" clip-path="url(#pc0243eefe4)" style="fill: #1e90ff; opacity: 0.8; stroke: #ffffff; stroke-linejoin: miter"/>
   </g>
   <g id="patch_134">
    <path d="M 1012.50913 311.0525 
L 1020.10677 311.0525 
L 1020.10677 38.290595 
L 1012.50913 38.290595 
z
" clip-path="url(#pc0243eefe4)" style="fill: #1e90ff; opacity: 0.8; stroke: #ffffff; stroke-linejoin: miter"/>
   </g>
   <g id="patch_135">
    <path d="M 1020.10677 311.0525 
L 1027.70441 311.0525 
L 1027.70441 97.586661 
L 1020.10677 97.586661 
z
" clip-path="url(#pc0243eefe4)" style="fill: #1e90ff; opacity: 0.8; stroke: #ffffff; stroke-linejoin: miter"/>
   </g>
   <g id="patch_136">
    <path d="M 1027.70441 311.0525 
L 1035.30205 311.0525 
L 1035.30205 115.375481 
L 1027.70441 115.375481 
z
" clip-path="url(#pc0243eefe4)" style="fill: #1e90ff; opacity: 0.8; stroke: #ffffff; stroke-linejoin: miter"/>
   </g>
   <g id="patch_137">
    <path d="M 1035.30205 311.0525 
L 1042.89969 311.0525 
L 1042.89969 162.812334 
L 1035.30205 162.812334 
z
" clip-path="url(#pc0243eefe4)" style="fill: #1e90ff; opacity: 0.8; stroke: #ffffff; stroke-linejoin: miter"/>
   </g>
   <g id="patch_138">
    <path d="M 1042.89969 311.0525 
L 1050.49733 311.0525 
L 1050.49733 287.334073 
L 1042.89969 287.334073 
z
" clip-path="url(#pc0243eefe4)" style="fill: #1e90ff; opacity: 0.8; stroke: #ffffff; stroke-linejoin: miter"/>
   </g>
   <g id="patch_139">
    <path d="M 755.089375 311.0525 
L 755.089375 24.6525 
" style="fill: none; stroke: #cccccc; stroke-width: 0.8; stroke-linejoin: miter; stroke-linecap: square"/>
   </g>
   <g id="patch_140">
    <path d="M 1064.564375 311.0525 
L 1064.564375 24.6525 
" style="fill: none; stroke: #cccccc; stroke-width: 0.8; stroke-linejoin: miter; stroke-linecap: square"/>
   </g>
   <g id="patch_141">
    <path d="M 755.089375 311.0525 
L 1064.564375 311.0525 
" style="fill: none; stroke: #cccccc; stroke-width: 0.8; stroke-linejoin: miter; stroke-linecap: square"/>
   </g>
   <g id="patch_142">
    <path d="M 755.089375 24.6525 
L 1064.564375 24.6525 
" style="fill: none; stroke: #cccccc; stroke-width: 0.8; stroke-linejoin: miter; stroke-linecap: square"/>
   </g>
   <g id="text_48">
    <!-- FA -->
    <g style="fill: #262626" transform="translate(900.044375 18.6525)scale(0.16 -0.16)">
     <use xlink:href="#ArialMT-46"/>
     <use xlink:href="#ArialMT-41" x="55.583984"/>
    </g>
   </g>
   <g id="legend_3">
    <g id="patch_143">
     <path d="M 762.089375 60.943125 
L 802.419062 60.943125 
Q 804.419062 60.943125 804.419062 58.943125 
L 804.419062 31.6525 
Q 804.419062 29.6525 802.419062 29.6525 
L 762.089375 29.6525 
Q 760.089375 29.6525 760.089375 31.6525 
L 760.089375 58.943125 
Q 760.089375 60.943125 762.089375 60.943125 
z
" style="fill: #ffffff; opacity: 0.8; stroke: #cccccc; stroke-linejoin: miter"/>
    </g>
    <g id="patch_144">
     <path d="M 764.089375 40.810312 
L 784.089375 40.810312 
L 784.089375 33.810312 
L 764.089375 33.810312 
z
" style="fill: #ff4500; opacity: 0.8; stroke: #ffffff; stroke-linejoin: miter"/>
    </g>
    <g id="text_49">
     <!-- M -->
     <g style="fill: #262626" transform="translate(792.089375 40.810312)scale(0.1 -0.1)">
      <use xlink:href="#ArialMT-4d"/>
     </g>
    </g>
    <g id="patch_145">
     <path d="M 764.089375 54.955625 
L 784.089375 54.955625 
L 784.089375 47.955625 
L 764.089375 47.955625 
z
" style="fill: #1e90ff; opacity: 0.8; stroke: #ffffff; stroke-linejoin: miter"/>
    </g>
    <g id="text_50">
     <!-- B -->
     <g style="fill: #262626" transform="translate(792.089375 54.955625)scale(0.1 -0.1)">
      <use xlink:href="#ArialMT-42"/>
     </g>
    </g>
   </g>
  </g>
 </g>
 <defs>
  <clipPath id="p7d732438b8">
   <rect x="42.289375" y="24.6525" width="309.475" height="286.4"/>
  </clipPath>
  <clipPath id="p9ff47afbf9">
   <rect x="398.689375" y="24.6525" width="309.475" height="286.4"/>
  </clipPath>
  <clipPath id="pc0243eefe4">
   <rect x="755.089375" y="24.6525" width="309.475" height="286.4"/>
  </clipPath>
 </defs>
</svg>
